<?xml version='1.0' encoding='UTF-8' standalone='no'?>
<svg xmlns="http://www.w3.org/2000/svg" version="1.2" xmlns:xlink="http://www.w3.org/1999/xlink" width="296.926mm" viewBox="0 0 3507 2480" xmlns:cc="http://creativecommons.org/ns#" height="209.973mm" baseProfile="tiny">
 <defs/>
 <g stroke="black" fill-rule="evenodd" fill="none" stroke-width="1" stroke-linecap="square" stroke-linejoin="bevel">
  <g stroke="#000000" font-family="MS Shell Dlg 2" fill="none" stroke-width="1" stroke-linecap="square" font-style="normal" font-size="34.375" transform="matrix(1,0,0,1,0,0)" stroke-linejoin="bevel" font-weight="400" stroke-opacity="1"/>
  <g stroke="#000000" font-family="MS Shell Dlg 2" fill="none" stroke-width="1" stroke-linecap="square" font-style="normal" font-size="34.375" transform="matrix(1,0,0,1,0,0)" stroke-linejoin="bevel" font-weight="400" stroke-opacity="1"/>
  <g stroke="#000000" font-family="MS Shell Dlg 2" fill="none" stroke-width="1" stroke-linecap="square" font-style="normal" font-size="34.375" transform="matrix(11.8081,0,0,11.8081,0,0)" stroke-linejoin="bevel" font-weight="400" stroke-opacity="1"/>
  <g stroke="#000000" font-family="MS Shell Dlg 2" fill="none" stroke-width="1" stroke-linecap="square" font-style="normal" font-size="34.375" transform="matrix(0.999751,0,0,0.999751,0,0)" stroke-linejoin="bevel" font-weight="400" stroke-opacity="1"/>
  <g stroke="none" font-family="MS Shell Dlg 2" fill="#ffffff" font-style="normal" fill-opacity="1" font-size="34.375" transform="matrix(0.999751,0,0,0.999751,0,0)" font-weight="400">
   <path vector-effect="none" d="M-2,-2 L3510,-2 L3510,2483 L-2,2483 L-2,-2" fill-rule="evenodd"/>
  </g>
  <g stroke="#000000" font-family="MS Shell Dlg 2" fill="none" stroke-width="1" stroke-linecap="square" font-style="normal" font-size="34.375" transform="matrix(0.999751,0,0,0.999751,0,0)" stroke-linejoin="bevel" font-weight="400" stroke-opacity="1"/>
  <g stroke="#000000" font-family="MS Shell Dlg 2" fill="none" stroke-width="1" stroke-linecap="square" font-style="normal" font-size="34.375" transform="matrix(11.8081,0,0,11.8081,0,0)" stroke-linejoin="bevel" font-weight="400" stroke-opacity="1"/>
  <g stroke="#000000" font-family="MS Shell Dlg 2" fill="none" stroke-width="1" stroke-linecap="square" font-style="normal" font-size="34.375" transform="matrix(11.8081,0,0,11.8081,0,0)" stroke-linejoin="bevel" font-weight="400" stroke-opacity="1"/>
  <g stroke="#000000" font-family="MS Shell Dlg 2" fill="none" stroke-width="1" stroke-linecap="square" font-style="normal" font-size="34.375" transform="matrix(11.8081,0,0,11.8081,0,0)" stroke-linejoin="bevel" font-weight="400" stroke-opacity="1"/>
  <g stroke="#000000" font-family="MS Shell Dlg 2" fill="none" stroke-width="1" stroke-linecap="square" font-style="normal" font-size="34.375" transform="matrix(11.8081,0,0,11.8081,0,0)" stroke-linejoin="bevel" font-weight="400" stroke-opacity="1"/>
  <g stroke="#000000" font-family="MS Shell Dlg 2" fill="none" stroke-width="1" stroke-linecap="square" font-style="normal" font-size="34.375" transform="matrix(11.8081,0,0,11.8081,0,0)" stroke-linejoin="bevel" font-weight="400" stroke-opacity="1"/>
  <g stroke="#000000" font-family="MS Shell Dlg 2" fill="none" stroke-width="1" stroke-linecap="square" font-style="normal" font-size="34.375" transform="matrix(11.8081,0,0,11.8081,0,0)" stroke-linejoin="bevel" font-weight="400" stroke-opacity="1"/>
  <g stroke="none" font-family="MS Shell Dlg 2" fill="#000000" font-style="normal" fill-opacity="0" font-size="34.375" transform="matrix(0.999751,0,0,0.999751,0,0)" font-weight="400">
   <rect x="0" y="0" width="3508" height="2480"/>
  </g>
  <g stroke="#000000" font-family="MS Shell Dlg 2" fill="none" stroke-width="1" stroke-linecap="square" font-style="normal" font-size="34.375" transform="matrix(0.999751,0,0,0.999751,0,0)" stroke-linejoin="bevel" font-weight="400" stroke-opacity="1"/>
  <g stroke="#2b28d7" font-family="MS Shell Dlg 2" fill="none" stroke-width="3.07087" stroke-linecap="square" font-style="normal" font-size="34.375" transform="matrix(0.999751,0,0,0.999751,0,0)" stroke-linejoin="bevel" font-weight="400" stroke-opacity="1">
   <path vector-effect="none" d="M1525.22,1557.25 L1525.07,1557.52 L1525.21,1557.43 L1525.52,1558.42 L1540.68,1540.83 L1506.72,1552.57 L1505.02,1552.06 L1475.12,1548.31 L1475.19,1552.1 L1474.66,1551.6 L1508.95,1551.41 L1509.69,1551.43 L1510.56,1551.46 L1511.2,1551.39 L1511.98,1551.35 L1541.63,1539.94 L1540.49,1540.86 L1540.31,1540.62 L1540.27,1540.48 L1540.28,1540.8 L1568.54,1524.44 L1731.86,1547.31 L1751.78,1562.67 L1802.71,1545.07 L1888.07,1469.48 L1882.02,1471.64 L1929.95,1402.81 L1865.45,1271.12 L1862.44,1259.04 L1865.45,1271.12 L1738.37,1157.67 L1746.37,1155.5 L1620.7,1201.25 L1614.04,1200.52 L1604.91,1264.29 L1604.51,1265.68 L1604.33,1266.3 L1610.1,1289.78 L1612.61,1289.43 L1503.15,1449.41 L1494.88,1458.99 L1491.97,1461.44 L1491.4,1462.14 L1490.97,1463 L1489.72,1464.32 L1488.75,1465.59 L1487.76,1466.76 L1486.79,1467.88 L1485.84,1469.02 L1484.84,1470.18 L1483.77,1471.3 L1438.91,1491.75 L1444.23,1490.02 L1444.15,1490.82 L1568.67,1524.41 L1543.81,1519.61 L1543.7,1519.36 L1541.4,1540.58 L1542.13,1553.37 L1542.07,1551.27 L1540.53,1541.03 L1540.14,1540.68 L1540.57,1540.65 L1540.32,1540.52 L1540.11,1540.66 L1540.28,1540.79 L1567.84,1522.84 L1569,1524.68 L1568.36,1524.42 L1508.76,1496.5 L1445.71,1486.63 L1445.21,1487.19 L1446.1,1487.41 L1444.12,1488.58 L1445.71,1488.79 L1445.66,1487.98 L1571.23,1385.34 L1572.09,1381.32 L1571.24,1380.82 L1570.54,1380.43 L1569.98,1380.12 L1571.12,1378.83 L1613.36,1233.84 L1613.11,1232.47 L1613.15,1231.76 L1613.47,1230.39 L1613.77,1229.25 L1614.13,1228.4 L1613.96,1227.27 L1614.65,1200.41 L1614.24,1201.16 L1613.63,1200.74 L1619.62,1291.15 L1570.23,1412.66 L1568.46,1411.96 L1567.26,1412.05 L1565.64,1414.73 L1565.57,1413.87 L1566.17,1413.41 L1553.06,1503.42 L1554.8,1501.39 L1553.88,1503.67 L1552.97,1504.95 L1553.71,1505.04 L1543.7,1519.36 L1530.28,1526.29 L1529.45,1526.53 L1529.54,1527.18 L1561.06,1533.77 L1561.45,1533.21 L1592.2,1528.02 L1592.82,1527.88 L1625.01,1539.46 L1624.17,1539.99 L1623.24,1540.2 L1622.7,1540.68 L1650.04,1548.67 L1661.31,1548.98 L1649.08,1547.53 L1653.35,1548.05 L1697.99,1541.07 L1701.22,1543.99 L1700,1542.85 L1698.46,1541.24 L1730.27,1526.91 L1730.75,1525.98 L1731.65,1524.33 L1728.78,1531.96 L1719.85,1529.09 L1718.32,1528.56 L1717.3,1528.16 L1704.77,1542.36 L1631.65,1539.72 L1640.64,1540.13 L1647.66,1540.45 L1683.28,1539.78 L1688.78,1538.82 L1695.89,1539.72 L1694.58,1539.61 L1697.8,1541.64 L1688.11,1539.29 L1665.82,1549.6 L1679.97,1543.95 L1680.77,1543.72 L1682.09,1542.97 L1663.22,1548.34 L1630.9,1547.36 L1658.4,1545.28 L1658.07,1545.83 L1603.59,1531.36 L1572.47,1525.27 L1571.81,1525.37 L1563.21,1520.36 L1539.51,1539.14 L1541.25,1537.96 L1543.7,1519.36 L1543.7,1519.36 L1543.56,1518.93 L1543.7,1519.36 L1540.74,1541.19 L1540.35,1540.62 L1547.22,1535.63 L1540.35,1540.6 L1540.35,1540.6 L1539.89,1549.39 L1540.36,1540.87 L1540.25,1540.67 L1543.7,1519.36 L1540.52,1540.82 L1541.06,1541.63 L1540.7,1540.2 L1540.71,1540.83 L1540.28,1540.35 L1541.36,1541.62 L1540.47,1540.58 L1540.34,1540.59 L1540.29,1540.65 L1540.62,1540.82 L1540.51,1540.52 L1565.95,1520.73 L1567.23,1519.73 L1596.21,1529.95 L1625.49,1541.92 L1626.11,1542.14 L1656.65,1547.48 L1687.5,1540.33 L1656.69,1547.65 L1625.5,1542.09 L1596.11,1529.95 L1595.62,1529.52 L1565.78,1520.87 L1565.23,1520.56 L1542.01,1539.49 L1540.92,1540.51 L1540.27,1540.81 L1540.85,1540.43 L1540.78,1540.16 L1540.61,1540.49 L1540.67,1540.68 L1540.13,1541.02 L1540.47,1540.67 L1540.66,1540.52 L1540.6,1540.96 L1551.76,1534.31 L1566.95,1521.73 L1565.1,1521.24 L1540.21,1539.26 L1541.4,1539.05 L1543.11,1537.92 L1540.66,1541.03 L1540.71,1540.85 L1540.4,1540.76 L1540.34,1540.62 L1539.97,1540.42 L1540.19,1540.62 L1567.16,1521.58 L1566.8,1520.09 L1567.41,1520.54 L1566.74,1520.31 L1567.32,1520.05 L1541.83,1498.53 L1541.18,1498.69 L1542.59,1466.86 L1543.13,1466.4 L1556.42,1438.36 L1556.62,1437.75 L1580.28,1398.25 L1581.51,1397.76 L1577.35,1393.16 L1576.69,1395.51 L1561.17,1422.08 L1560.82,1422.72 L1547.84,1450.77 L1532.55,1478.55 L1544.92,1497.81 L1554.47,1504 L1561.88,1506.89 L1612.79,1465.94 L1613.28,1465.44 L1564.01,1519.72 L1556.48,1511.89 L1556.04,1510.25 L1562.81,1521.37 L1543.58,1519.04 L1544.09,1519.44 L1543.88,1519.46 L1542.2,1541.68 L1539.55,1550.82 L1539.61,1551.74 L1541.08,1550.35 L1545.17,1539.83 L1557.73,1524.87 L1557.41,1524.23 L1545.02,1542.59 L1545.02,1542.59 L1540.4,1540.81 L1540.47,1540.8 L1568.57,1524.35 L1387.42,1446.61 L1351.34,1434.1 L1469.45,1309.72 L1501.87,1271.81 L1503.88,1270.11 L1501.87,1271.81 L1503.88,1270.11 L1501.87,1271.81 L1696.03,1340.65 L1501.87,1271.81 L1805.28,1263.86 L1501.87,1271.81 L1853.69,1091.81 L1501.87,1271.81 L1932.51,980.96 L1933.73,980.873 L1934.68,980.819 L1936.77,991.988 L1936.87,993.044 L1937.27,980.748 L1862.05,1097.34 L1937.27,980.748 L1810.99,1238.58 L1784.63,1306.63 L1702.24,1341.32 L1784.63,1306.63 L1702.24,1341.32 L1699.86,1341.04 L1698.69,1340.91 L1697.44,1340.58 L1626.16,1336.83 L1593.76,1380.24 L1626.16,1336.83 L1650.29,1518.68 L1670.78,1509.5 L1670.26,1511.49 L1670.65,1512.03 L1670.28,1512.93 L1670.21,1514.46 L1669.61,1515.59 L1669.39,1517.21 L1669.23,1518.28 L1659.46,1569.92 L1475.47,1247.3 L1472.46,1241.93 L1470.95,1239.24 L1481.79,1277 L1491.24,1309.9 L1499.47,1338.56 L1658.96,1569.91 L1568.7,1524.68 L1566.37,1525.4 L1568.7,1524.68 L1566.37,1525.4 L1567.26,1526.83 L1568.7,1524.68 L1567.87,1523.42 L1565.98,1522.66 L1566.81,1522.78 L1524.33,1546.18 L1524.25,1544.83 L1523.22,1544.82 L1522.12,1544.59 L1520.54,1542.55 L1520.66,1543.21 L1485.03,1561.43 L1485.74,1559.11 L1486.98,1560.21 L1515.73,1549.89 L1514.97,1550.66 L1516.44,1547.93 L1517.44,1545.07 L1517.85,1544.38 L1518.32,1543.44 L1546.41,1535.89 L1547.04,1535.74 L1439.91,1491.32 L1441.89,1490.26 L1440.06,1491.41 L1450.02,1487.22 L1505.86,1453.57 L1507,1452.05 L1507.96,1450.77 L1513.39,1438.32 L1514.61,1437.42 L1515.51,1436.06 L1516.49,1435.03 L1517.43,1434.03 L1518.29,1432.92 L1519.19,1431.79 L1573.34,1377.29 L1572.53,1375.28 L1573.5,1378.07 L1528.45,1418.91 L1528.13,1420.2 L1526.22,1419.69 L1525.41,1422.07 L1524.42,1423.14 L1523.42,1424.42 L1522.05,1425.79 L1520.96,1427.1 L1520.41,1427.64 L1519.97,1428.56 L1518.94,1430.13 L1441.85,1490.99 L1440.39,1491.94 L1350.88,1434.92 L1370.94,1407.04 L1345.97,1427.67 L1347.41,1425.13 L1348.08,1424.42 L1349.89,1435.45 L1497.15,1492.57 L1374.71,1464.01 L1568.22,1524.28 L1540.59,1540.51 L1541.11,1541 L1545.35,1539.85 L1540.25,1540.57 L1540.53,1541.03 L1540.74,1541.19 L1540.59,1540.85 L1540.7,1540.99 L1540.33,1540.78 L1569.11,1526.83 L1569.69,1527.21 L1592.1,1527.2 L1644.83,1514.48 L1596.29,1527.2 L1595.01,1527.83 L1613.25,1537.03 L1643.83,1545.21 L1644.56,1545.14 L1675.56,1544.06 L1676.2,1544.02 L1700.14,1535.89 L1676.68,1474.06 L1703.83,1535.01 L1704.29,1534.51 L1734.42,1520.07 L1732.44,1520.78 L1731.81,1520.95 L1707.84,1535.45 L1712.36,1543.93 L1704.2,1539.23 L1703.27,1538.76 L1680.66,1543.3 L1649.48,1548.9 L1648.97,1548.44 L1618.86,1537.21 L1617.38,1536.15 L1588.77,1526.23 L1588.16,1525.91 L1557.09,1525.14 L1543.91,1519.56 L1543.78,1519.28 L1540.57,1540.41 L1540.64,1540.96 L1562.83,1532.33 L1561.85,1532.41 L1562.66,1532.43 L1562.03,1532.24 L1563.19,1531.83 L1540.53,1541.02 L1540.61,1540.52 L1540.68,1540.89 L1543.78,1519.28 L1569.77,1524.88 L1650.63,1565.55 L1569.77,1524.88 L1650.77,1565.6 L1800.22,1544.56 L1801.04,1544.72 L1850.07,1628.41 L1846.26,1634.95 L1800.2,1548.3 L1623.72,1535.46 L1798.55,1544.2 L1601.39,1527.2 L1563.81,1520.18 L1563.96,1521.23 L1563.36,1519.22 L1562.66,1520.99 L1563.16,1520.33 L1564.2,1520.32 L1563.48,1520.02 L1540.29,1540.83 L1540.61,1540.52 L1540.24,1540.4 L1540.69,1541.17 L1539.8,1540.25 L1540.31,1541.47 L1543.79,1519.23 L1544.81,1539.98 L1540.34,1540.79 L1545.67,1536.27 L1540.68,1541.09 L1540.62,1541.12 L1540.62,1541.12 L1540.53,1541.03 L1539.95,1540.08 L1543.75,1519.07 L1543.9,1517.79 L1549.11,1507.6 L1543.9,1517.79 L1549.11,1507.6 L1549.87,1505.88 L1550.25,1505.02 L1544.77,1518.73 L1543.66,1518.96 L1542.87,1538.63 L1540.45,1540.62 L1540.53,1540.41 L1540.53,1541.03 L1545.27,1535.86 L1544.03,1518.88 L1550.4,1505.82 L1550.54,1505.13 L1544.74,1518 L1545.22,1518.9 L1540.67,1523.43 L1543.74,1519.39 L1508.79,1496.57 L1357.51,1431.51 L1508.86,1496.71 L1236.29,1356.82 L1234.85,1355.6 L1234.04,1355.16 L1117.28,1276.88 L1070.2,1256.74 L1016.56,1211.78 L1070.2,1256.74 L948.615,1146.82 L1070.2,1256.74 L461.85,1121.92 L431.492,1120.4 L661.914,1149.14 L661.994,1148.5 L672.975,1179.02 L663.31,1169.54 L644.795,1149.45 L624.55,1150.61 L623.638,1150.11 L622.957,1150.2 L622.465,1149.65 L622.223,1150.47 L622.072,1149.54 L624.838,1117.75 L626.799,1120.3 L398.536,917.404 L626.799,1120.3 L398.536,917.404 L310.936,844.978 L267.196,808.791 L245.271,790.66 L326.383,880.443 L382.618,942.633 L287.524,2729.18 L-342.931,2727.03 L-277.929,499.181 L-209.581,441.081 L672.093,1289.79 L665.978,1175.74 L661.971,1149.48 L795.312,1115.71 L797.458,1115.94 L798.527,1116.06 L661.971,1149.48 L948.611,1146.94 L962.191,1158.31 L1031.51,1238.41 L1117.24,1276.88 L1231.94,1351.89 L1234.16,1354.95 L1231.87,1352.27 L1345.45,1428.93 L1440.7,1491.06 L1473.89,1492.54 L1567.45,1526.29 L1564.87,1521.85 L1565.71,1520.99 L1564.98,1521.25 L1564.98,1520.6 L1543.53,1519.12 L1536.12,1523.39 L1539.07,1522.44 L1539.75,1522.47 L1540.47,1522.83 L1542.65,1523.64 L1540.7,1541.37 L1540.51,1540.66 L1547.27,1533.33 L1540.74,1540.52 L1540.74,1540.52 L1540.74,1541.22 L1540.72,1540.55 L1540.74,1540.52 L1541.81,1541.64 L1567.25,1529.5 L1567.01,1530.11 L1540.57,1541.03 L1540.59,1540.93 L1543.81,1518.84 L1540.68,1540.94 L1540.68,1540.94 L1541.44,1540.85 L1540.57,1540.51 L1543.89,1519.64 L1508.73,1496.62 L1444.32,1488.49 L1446.01,1486.1 L1444.27,1486.66 L1445.18,1485.31 L1444.76,1485.82 L1444.99,1486.47 L1444.06,1486.9 L1578.35,1376.89 L1564.46,1354.41 L1569.88,1353.2 L1565.92,1354.62 L1563.69,1353 L1767.12,1390.05 L1548.72,1353.05 L1549.01,1354.32 L1549.02,1353.66 L1579.37,1362.48 L1585.78,1390.95 L1590.7,1394.94 L1591.43,1395.54 L1585.77,1390.97 L1567.14,1416.26 L1566.54,1416.57 L1504.79,1498.76 L1504.26,1496.64 L1504.9,1495.48 L1504.28,1495.09 L1552.56,1514.15 L1551.75,1514.36 L1544.79,1539.46 L1540.75,1540.87 L1545.69,1536.73 L1540.58,1540.71 L1540.74,1541.22 L1540.74,1540.52 L1540.63,1540.98 L1540.63,1540.96 L1540.69,1540.95 L1540.69,1540.95 L1540.51,1540.92 L1540.51,1540.92 L1540.74,1540.52 L1540.74,1540.52 L1546.6,1535.05 L1547.24,1535.34 L1540.85,1541.19 L1540.82,1540.93 L1540.57,1541.03 L1540.57,1541.03 L1539.11,1542.88 L1540.57,1541.03 L1540.57,1541.03 L1556.7,1524.13 L1557.1,1524.29 L1540.69,1541.18 L1540.74,1541.24 L1540.74,1540.52 L1543.5,1519.27 L1543.61,1519.42 L1540.74,1541.24 L1540.82,1541.05 L1540.82,1541.05 L1541.56,1540.76 L1540.47,1540.7 L1540.74,1540.89 L1540.74,1540.89 L1568.38,1529.51 L1568.17,1530.46 L1568.64,1530.94 L1540.4,1540.67 L1540.7,1541.03 L1543.54,1519.06 L1540.26,1540.62 L1540.49,1540.85 L1541.15,1540.47 L1530.44,1493.78 L1531.82,1493.88 L1546.21,1457.74 L1545.28,1457.34 L1546.72,1455.9 L1562.71,1423.2 L1562.9,1422.44 L1563.58,1421.62 L1564.03,1420.85 L1563.33,1422.32 L1566.5,1419.81 L1581.47,1396.78 L1573.05,1377.48 L1520.41,1430.79 L1509.1,1441.83 L1508.09,1442.12 L1508.69,1442.46 L1507.77,1443.27 L1506.52,1444.81 L1504.99,1445.39 L1504.31,1446.19 L1503.28,1447.29 L1204.46,1514.13 L1180.35,1549.18 L1179.81,1549.96 L1178.32,1552.13 L1135.07,1552.83 L1129.25,1553.17 L1127.61,1554.01 L1126.02,1554.93 L1183.61,1910.34 L1186.31,1919.5 L1183.61,1910.34 L1186.35,1919.62 L1187.34,1923.28 L1187.67,1924.53 L1187.98,1925.78 L1188.23,1926.94 L1188.49,1928.14 L1188.8,1929.41 L1190.69,1932.28 L1193.06,1933.77 L1193.34,1935.09 L1131.96,2169.05 L1183.86,2069.08 L1187.66,2061.8 L1190.05,2057.22 L1144.96,2143.49 L1138.68,2155.51 L1130.16,2167.41 L1130.8,2168.76 L1124.04,2176.37 L1156.76,1956.87 L1288.71,2731.06 L2350.98,2730.98 L2350.03,2706.4 L2346.22,2383.42 L2347.93,2363.71 L2348.91,2352.62 L2349.47,2346.32 L2350.74,2237.29 L2450.72,2181.9 L2460.71,2161.72 L2460.9,2160.9 L2461.71,2159.41 L2462.58,2158.46 L2462.74,2156.89 L2463.01,2155.28 L2463.22,2153.68 L2463.44,2152.07 L2463.55,2150.48 L2474.99,1845.69 L2475.94,1828.23 L2476.1,1822.14 L2475.32,1819.74 L2475.09,1817.85 L2474.81,1816.16 L2474.56,1814.43 L2474.29,1812.7 L2474.03,1811 L2622.18,1475.13 L2622.48,1474.24 L2622.42,1473.15 L2622.08,1472.23 L2621.59,1471.19 L2621.02,1470.56 L2620.54,1470.05 L2619.77,1469.75 L2618.64,1469.54 L2602.19,1383.97 L2603.63,1380.4 L2602.19,1383.97 L2603.63,1380.4 L2601.98,1385.17 L2602.3,1384.52 L2602.59,1383.92 L2602.2,1384.45 L2504.22,1469.82 L2501.29,1472.62 L2323.29,1565.57 L2316.73,1568.56 L2314.37,1569.23 L2115.07,1496.92 L2314.37,1569.23 L1945.72,1539.83 L1942.72,1541.59 L1940.96,1542.68 L1939.81,1543.39 L1939.05,1543.86 L2314.37,1569.23 L1742.66,1540.54 L2314.37,1569.23 L1591.23,1525.95 L1592.64,1526.34 L1593.34,1526.53 L1553.92,1536.61 L1554.62,1535.48 L1554.86,1534.66 L1555.05,1533.9 L1508.61,1496.62 L1444.86,1487.06 L1448.48,1487.31 L1449.41,1487.31 L1450.03,1487.7 L1600.61,1355.57 L1629.57,1356.64 L1632.15,1356.74 L1601.16,1332.77 L1601.98,1331.76 L1601.89,1329.9 L1608.17,1329.14 L1610.79,1325.23 L1611,1323.97 L1611.09,1322.93 L1611.31,1321.93 L1614.16,1200.78 L1572.47,1376.87 L1441.75,1491.37 L1444.16,1487.7 L1446.15,1488.13 L1446.23,1488.87 L1446.33,1489.76 L1441.44,1491.4 L1443.02,1490.97 L1568.47,1524.23 L1543.61,1519.42 L1540.52,1540.97 L1540.88,1541.75 L1540.6,1540.99 L1540.6,1540.99 L1540.61,1540.91 L1540.24,1540.62 L1540.29,1541.05 L1540.47,1540.75 L1541.46,1541.35 L1540.15,1540.54 L1540.72,1542.52 L1540.72,1542.52 L1542.57,1539.54 L1542.57,1539.54 L1541.21,1541.06 L1547.02,1523.46 L1543.62,1518.62 L1544.02,1519.34 L1568.46,1524.4 L1697.88,1575.28 L1795.62,1543.63 L1799.3,1541.86 L1798.71,1544.24 L1799.67,1544.41 L1924.92,1525.46 L1908.58,1536.43 L1896.77,1544.29 L1888.33,1549.92 L1846.59,1633.04 L1850.33,1628.53 L1853.26,1629.06 L1848.52,1630.9 L1847.71,1631.91 L1847.47,1637.58 L1847.47,1637.58 L1834.88,1644.63 L1800.31,1548.46 L1798.63,1547.5 L1751.99,1562.68 L1594.07,1526.72 L1568.2,1524.21 L1563.1,1523.13 L1564.59,1522.5 L1564.96,1521.8 L1565.25,1521.21 L1540.7,1540.49 L1540.7,1540.49 L1540.7,1540.49 L1540.73,1541.17 L1540.64,1540.8 L1542.24,1539.07 L1543.53,1519.04 L1540.69,1541.07 L1540.22,1540.3 L1543.26,1519.9 L1543.26,1519.9 L1543.47,1518.66 L1543.47,1518.66 L1543.48,1518.8 L1543.49,1519.44 L1543.49,1519.44 L1543.49,1519.44 L1529.54,1492.49 L1527.33,1491.6 L1529.54,1492.49 L1527.25,1491.58 L1528.14,1491.74 L1529.26,1493.48 L1527.76,1491.65 L1526.97,1491.54 L1431.48,1491.86 L1432.2,1491.01 L1430.75,1489.97 L1431.92,1491 L1432.48,1490.66 L1508.62,1496.62 L1567.32,1522.28 L1556.37,1506.7 L1555.95,1506.11 L1565.88,1521.32 L1567.06,1520.18 L1565.98,1520.32 L1543.49,1519.44 L1543.49,1519.44 L1543.49,1519.44 L1543.49,1519.44 L1543.49,1519.44 L1543.49,1519.44 L1540.59,1538.27 L1542.02,1539.6 L1541.6,1540.18 L1541.26,1540.8 L1540.67,1542.63 L1541.91,1539.36 L1543.71,1539.5 L1543.5,1540.3 L1542.38,1539.44 L1541.11,1540.33 L1540.43,1540.67 L1540.74,1541.32 L1540.44,1540.73 L1540.75,1541.39 L1540.39,1540.71 L1539.72,1540.62 L1540.35,1540.81 L1539.52,1540.55 L1540.28,1540.89 L1539.86,1540.39 L1540.43,1540.71 L1539.55,1540.59 L1540.43,1540.84 L1539.66,1540.43 L1540.48,1540.78 L1539.62,1540.57 L1540.47,1540.66 L1539.18,1540.66 L1540.61,1540.7 L1541.45,1539.24 L1541.37,1539.89 L1541.82,1539.97 L1544.72,1540.73 L1543.86,1540.85 L1542.13,1541.14 L1541.05,1540.97 L1542.54,1540.87 L1541.2,1540.68 L1543.59,1540.3 L1544.52,1540.4 L1545.31,1540.61 L1542.33,1539.25 L1544.72,1540.17 L1542.66,1539.8 L1541.28,1539.61 L1540.76,1540.17 L1540.79,1540.8 L1540.16,1540.42 L1540.44,1541.1 L1540.27,1540.33 L1540.45,1540.99 L1540.23,1539.49 L1540.27,1540.69 L1540.2,1539.96 L1540.23,1540.65 L1540.05,1539.44 L1539.71,1540.08 L1540.34,1540.79 L1540.07,1540.19 L1540.52,1540.78 L1539.87,1540.66 L1540.56,1540.77 L1540.25,1539.9 L1540.31,1540.59 L1540.27,1540.31 L1540.21,1539.37 L1540.29,1540.01 L1540.54,1540.73 L1540.45,1540.05 L1540.64,1540.77 L1540.59,1540.9 L1540.31,1540.15 L1540.46,1540.77 L1539.49,1539.97 L1540.63,1541.06 L1538.89,1540.84 L1535.63,1540.53 L1534.74,1540.21 L1535.35,1540.48 L1536.57,1540.46 L1540.21,1542.5 L1533.97,1540.75 L1531.82,1540.15 L1532.03,1539.05 L1532.17,1538.31 L1540.36,1540.8 L1543.31,1541.04 L1546.79,1541.2 L1544.61,1541.12 L1540.47,1541.17 L1540.88,1540.5 L1541.5,1538.69 L1544.27,1539.88 L1544.54,1540.46 L1542.91,1539.42 L1543.83,1538.67 L1543.16,1538.07 L1544.11,1538.04 L1543.19,1538.22 L1542.3,1539.09 L1543.17,1538.98 L1543.87,1538.26 L1543.61,1537.43 L1544.12,1540.53 L1545.13,1540.11 L1544.09,1540.15 L1542.25,1539.71 L1541.44,1539.97 L1541.75,1539.15 L1540.99,1538.98 L1543.01,1538.48 L1543.45,1539.02 L1543.95,1537.76 L1544.28,1537.16 L1544.9,1536.83 L1545.6,1536.61 L1546.75,1535.93 L1547.34,1535.65 L1547.81,1535.21 L1548.41,1534.88 L1547.06,1535.26 L1546.59,1535.69 L1545.97,1535.97 L1545.35,1536.23 L1544.72,1536.32 L1544.15,1536.63 L1543.75,1537.18 L1543.25,1537.59 L1543.14,1538.96 L1542.97,1539.65 L1543.16,1540.44 L1542.76,1540.93 L1541.55,1540.97 L1541.56,1539.15 L1540.68,1541.07 L1541.12,1540.55 L1541.54,1539.49 L1542.19,1539.55 L1542.48,1540.16 L1545.51,1540.53 L1542.4,1539.94 L1541.31,1540.48 L1542.12,1539.19 L1543.06,1539.09 L1543.51,1539.57 L1543.73,1538.87 L1543.95,1538.23 L1544.2,1537.5 L1544.76,1537.1 L1545.41,1536.95 L1544.69,1537.02 L1543.88,1538.05 L1541.59,1540.19 L1542.65,1537.41 L1540.97,1540.41 L1542.98,1539.39 L1544.3,1540.18 L1542.3,1538.89 L1540.66,1540.18 L1539.94,1540.59 L1540.98,1540.48 L1541.18,1539.47 L1542.67,1539.27 L1542.59,1540.3 L1541.36,1540.39 L1542.18,1538.86 L1542.92,1538.49 L1543.66,1538.13 L1543.97,1537.51 L1544.49,1536.98 L1545.14,1536.79 L1545.85,1536.54 L1546.39,1536.2 L1547.53,1535.46 L1548.12,1535.1 L1548.64,1534.73 L1549.96,1534.3 L1550.6,1534.13 L1551.28,1534.07 L1552.73,1533.81 L1553.06,1533.18 L1553.37,1532.59 L1553.76,1532.05 L1554.09,1531.5 L1554.66,1530.26 L1554.94,1529.66 L1555.59,1529.51 L1555.94,1528.92 L1556.58,1527.74 L1556.77,1527.09 L1557.21,1526.6 L1557.63,1526.06 L1558.04,1525.4 L1558.56,1524.88 L1559.08,1524.42 L1559.65,1524.05 L1560.79,1523.36 L1561.41,1523.04 L1561.88,1522.56 L1562.42,1522.12 L1563.59,1521.46 L1564.06,1521.03 L1565.25,1520.7 L1565.68,1521.2 L1566.03,1521.78 L1566.48,1522.49 L1566.95,1523.04 L1567.4,1523.5 L1567.93,1523.87 L1648.44,1564.26 L1651.27,1566.23 L1795.53,1543.68 L1800.74,1548.88 L1850.42,1640.88 L1800.28,1548.44 L1796.35,1543.76 L1643.8,1537.02 L1568.61,1524.5 L1567.84,1524.35 L1568.56,1524.47 L1544.11,1518.36 L1543.91,1519.42 L1540.45,1540.77 L1540.62,1540.86 L1538.93,1539.8 L1533.86,1554.37 L1537.93,1551.89 L1537.21,1552.29 L1535.63,1552.97 L1530.29,1554.89 L1543.84,1538.68" fill-rule="evenodd"/>
  </g>
  <g stroke="#000000" font-family="MS Shell Dlg 2" fill="none" stroke-width="1" stroke-linecap="square" font-style="normal" font-size="34.375" transform="matrix(0.999751,0,0,0.999751,0,0)" stroke-linejoin="bevel" font-weight="400" stroke-opacity="1"/>
  <g stroke="#000000" font-family="MS Shell Dlg 2" fill="none" stroke-width="1" stroke-linecap="square" font-style="normal" font-size="34.375" transform="matrix(11.8081,0,0,11.8081,0,0)" stroke-linejoin="bevel" font-weight="400" stroke-opacity="1"/>
  <g stroke="#000000" font-family="MS Shell Dlg 2" fill="none" stroke-width="1" stroke-linecap="square" font-style="normal" font-size="34.375" transform="matrix(11.8081,0,0,11.8081,0,0)" stroke-linejoin="bevel" font-weight="400" stroke-opacity="1"/>
  <g stroke="#000000" font-family="MS Shell Dlg 2" fill="none" stroke-width="1" stroke-linecap="square" font-style="normal" font-size="34.375" transform="matrix(11.8081,0,0,11.8081,0,0)" stroke-linejoin="bevel" font-weight="400" stroke-opacity="1"/>
  <g stroke="#000000" font-family="MS Shell Dlg 2" fill="none" stroke-width="1" stroke-linecap="square" font-style="normal" font-size="34.375" transform="matrix(1,0,0,1,0,0)" stroke-linejoin="bevel" font-weight="400" stroke-opacity="1"/>
  <g stroke="#000000" font-family="MS Shell Dlg 2" fill="none" stroke-width="1" stroke-linecap="square" font-style="normal" font-size="34.375" transform="matrix(11.8081,0,0,11.8081,0,0)" stroke-linejoin="bevel" font-weight="400" stroke-opacity="1"/>
  <g stroke="#000000" font-family="MS Shell Dlg 2" fill="none" stroke-width="1" stroke-linecap="square" font-style="normal" font-size="34.375" transform="matrix(11.8081,0,0,11.8081,0,0)" stroke-linejoin="bevel" font-weight="400" stroke-opacity="1"/>
  <g stroke="#000000" font-family="MS Shell Dlg 2" fill="none" stroke-width="1" stroke-linecap="square" font-style="normal" font-size="34.375" transform="matrix(11.8081,0,0,11.8081,0,0)" stroke-linejoin="bevel" font-weight="400" stroke-opacity="1"/>
  <g stroke="#000000" font-family="MS Shell Dlg 2" fill="none" stroke-width="1" stroke-linecap="square" font-style="normal" font-size="34.375" transform="matrix(11.8081,0,0,11.8081,0,0)" stroke-linejoin="bevel" font-weight="400" stroke-opacity="1"/>
  <g stroke="#000000" font-family="MS Shell Dlg 2" fill="none" stroke-width="1" stroke-linecap="square" font-style="normal" font-size="34.375" transform="matrix(1,0,0,1,0,0)" stroke-linejoin="bevel" font-weight="400" stroke-opacity="1"/>
 </g>
 <metadata>
  <rdf:RDF xmlns:dc="http://purl.org/dc/elements/1.1/" xmlns:rdf="http://www.w3.org/1999/02/22-rdf-syntax-ns#" xmlns:rdfs="http://www.w3.org/2000/01/rdf-schema#">
   <rdf:Description dc:date="2024-09-25T09:46:49" dc:title="" dc:identifier="" dc:description="" dc:format="image/svg+xml">
    <dc:creator>
     <rdf:Bag>
      <rdf:li>Michele</rdf:li>
     </rdf:Bag>
    </dc:creator>
    <dc:publisher>
     <rdf:Bag>
      <rdf:li>QGIS 3.28.15-Firenze</rdf:li>
     </rdf:Bag>
    </dc:publisher>
    <dc:subject>
     <rdf:Bag/>
    </dc:subject>
   </rdf:Description>
   <cc:Work rdf:about="">
    <dc:format>image/svg+xml</dc:format>
    <dc:title></dc:title>
    <dc:date>2024-09-25T09:46:49</dc:date>
    <dc:identifier></dc:identifier>
    <dc:description></dc:description>
    <dc:creator>
     <cc:Agent>
      <dc:title>Michele</dc:title>
     </cc:Agent>
    </dc:creator>
    <dc:publisher>
     <cc:Agent>
      <dc:title>QGIS 3.28.15-Firenze</dc:title>
     </cc:Agent>
    </dc:publisher>
   </cc:Work>
  </rdf:RDF>
 </metadata>
</svg>
