<?xml version='1.0' encoding='UTF-8' standalone='no'?>
<svg xmlns="http://www.w3.org/2000/svg" version="1.2" xmlns:xlink="http://www.w3.org/1999/xlink" width="296.926mm" viewBox="0 0 3507 2480" xmlns:cc="http://creativecommons.org/ns#" height="209.973mm" baseProfile="tiny">
 <defs/>
 <g stroke="black" fill-rule="evenodd" fill="none" stroke-width="1" stroke-linecap="square" stroke-linejoin="bevel">
  <g stroke="#000000" font-family="MS Shell Dlg 2" fill="none" stroke-width="1" stroke-linecap="square" font-style="normal" font-size="34.375" transform="matrix(1,0,0,1,0,0)" stroke-linejoin="bevel" font-weight="400" stroke-opacity="1"/>
  <g stroke="#000000" font-family="MS Shell Dlg 2" fill="none" stroke-width="1" stroke-linecap="square" font-style="normal" font-size="34.375" transform="matrix(1,0,0,1,0,0)" stroke-linejoin="bevel" font-weight="400" stroke-opacity="1"/>
  <g stroke="#000000" font-family="MS Shell Dlg 2" fill="none" stroke-width="1" stroke-linecap="square" font-style="normal" font-size="34.375" transform="matrix(11.8081,0,0,11.8081,0,0)" stroke-linejoin="bevel" font-weight="400" stroke-opacity="1"/>
  <g stroke="#000000" font-family="MS Shell Dlg 2" fill="none" stroke-width="1" stroke-linecap="square" font-style="normal" font-size="34.375" transform="matrix(0.999751,0,0,0.999751,0,0)" stroke-linejoin="bevel" font-weight="400" stroke-opacity="1"/>
  <g stroke="none" font-family="MS Shell Dlg 2" fill="#ffffff" font-style="normal" fill-opacity="1" font-size="34.375" transform="matrix(0.999751,0,0,0.999751,0,0)" font-weight="400">
   <path vector-effect="none" d="M-2,-2 L3510,-2 L3510,2483 L-2,2483 L-2,-2" fill-rule="evenodd"/>
  </g>
  <g stroke="#000000" font-family="MS Shell Dlg 2" fill="none" stroke-width="1" stroke-linecap="square" font-style="normal" font-size="34.375" transform="matrix(0.999751,0,0,0.999751,0,0)" stroke-linejoin="bevel" font-weight="400" stroke-opacity="1"/>
  <g stroke="#000000" font-family="MS Shell Dlg 2" fill="none" stroke-width="1" stroke-linecap="square" font-style="normal" font-size="34.375" transform="matrix(11.8081,0,0,11.8081,0,0)" stroke-linejoin="bevel" font-weight="400" stroke-opacity="1"/>
  <g stroke="#000000" font-family="MS Shell Dlg 2" fill="none" stroke-width="1" stroke-linecap="square" font-style="normal" font-size="34.375" transform="matrix(11.8081,0,0,11.8081,0,0)" stroke-linejoin="bevel" font-weight="400" stroke-opacity="1"/>
  <g stroke="#000000" font-family="MS Shell Dlg 2" fill="none" stroke-width="1" stroke-linecap="square" font-style="normal" font-size="34.375" transform="matrix(11.8081,0,0,11.8081,0,0)" stroke-linejoin="bevel" font-weight="400" stroke-opacity="1"/>
  <g stroke="#000000" font-family="MS Shell Dlg 2" fill="none" stroke-width="1" stroke-linecap="square" font-style="normal" font-size="34.375" transform="matrix(11.8081,0,0,11.8081,0,0)" stroke-linejoin="bevel" font-weight="400" stroke-opacity="1"/>
  <g stroke="#000000" font-family="MS Shell Dlg 2" fill="none" stroke-width="1" stroke-linecap="square" font-style="normal" font-size="34.375" transform="matrix(11.8081,0,0,11.8081,0,0)" stroke-linejoin="bevel" font-weight="400" stroke-opacity="1"/>
  <g stroke="#000000" font-family="MS Shell Dlg 2" fill="none" stroke-width="1" stroke-linecap="square" font-style="normal" font-size="34.375" transform="matrix(11.8081,0,0,11.8081,0,0)" stroke-linejoin="bevel" font-weight="400" stroke-opacity="1"/>
  <g stroke="none" font-family="MS Shell Dlg 2" fill="#000000" font-style="normal" fill-opacity="0" font-size="34.375" transform="matrix(0.999751,0,0,0.999751,0,0)" font-weight="400">
   <rect x="0" y="0" width="3508" height="2480"/>
  </g>
  <g stroke="#000000" font-family="MS Shell Dlg 2" fill="none" stroke-width="1" stroke-linecap="square" font-style="normal" font-size="34.375" transform="matrix(0.999751,0,0,0.999751,0,0)" stroke-linejoin="bevel" font-weight="400" stroke-opacity="1"/>
  <g stroke="#88f07e" font-family="MS Shell Dlg 2" fill="none" stroke-width="3.07087" stroke-linecap="square" font-style="normal" font-size="34.375" transform="matrix(0.999751,0,0,0.999751,0,0)" stroke-linejoin="bevel" font-weight="400" stroke-opacity="1">
   <path vector-effect="none" d="M1525.25,1557.7 L1524.64,1557.4 L1526.46,1559.78 L1525.17,1557.54 L1526.46,1558.86 L1525.11,1557.57 L1525.08,1557.52 L1524.71,1561.78 L1517.23,1554.06 L1526.1,1561.4 L1524.83,1561.7 L1525.04,1557.51 L1529.56,1556.58 L1525.04,1557.51 L1537.78,1552.99 L1547.29,1535.45 L1537.32,1553.08 L1538.65,1553.19 L1539.73,1553.1 L1533.59,1564.64 L1535.78,1565.59 L1535.08,1565.32 L1534.24,1566.2 L1525.6,1568.99 L1524.51,1569.04 L1537.57,1554.09 L1537.79,1555.04 L1537.71,1555.02 L1529.61,1557.1 L1537.61,1552.75 L1537.51,1552.87 L1537.68,1552.94 L1537.6,1552.81 L1503.36,1552.64 L1502.63,1552.27 L1536.14,1551.85 L1536.2,1550.99 L1537.28,1551.5 L1537.5,1552.87 L1524.48,1569.04 L1537.23,1552.78 L1537.59,1552.9 L1537.52,1552.85 L1537.52,1552.85 L1537.6,1552.84 L1546.19,1533.23 L1537.41,1552.68 L1537.67,1552.89 L1537.67,1552.89 L1537.5,1552.82 L1537.69,1552.79 L1537.59,1552.93 L1530.43,1556.94 L1538.43,1551.98 L1525.18,1557.79 L1525.1,1557.5 L1525.1,1557.5 L1523.35,1555.18 L1504.51,1552.35 L1503.83,1552.45 L1495.22,1553.28 L1518.18,1553 L1524.5,1569.14 L1524.5,1569.53 L1512.59,1507.01 L1513.1,1506.18 L1513.45,1505.59 L1513.88,1504.99 L1513.95,1504.25 L1514.18,1503.66 L1565.74,1418.13 L1565.69,1417.48 L1593.85,1379.08 L1624.61,1338.16 L1625.32,1338.23 L1618.22,1284.08 L1614.99,1252.47 L1614.97,1251.58 L1614.94,1250.57 L1614.91,1249.56 L1614.89,1248.57 L1614.86,1247.56 L1614.83,1246.61 L1614.81,1245.63 L1614.78,1244.69 L1614.76,1243.72 L1652.7,1157.7 L1653.47,1157.83 L1654.3,1157.64 L1673.46,1128.2 L1672.95,1128.78 L1672.47,1129.29 L1671.87,1129.72 L1671.22,1129.73 L1670.3,1129.8 L1740.65,1120.57 L1741.66,1120.51 L1742.58,1120.45 L1743.42,1120.4 L1744.22,1120.35 L1794.68,1117.64 L1794.65,1118.34 L1529.51,1570.15 L1524.58,1561.77 L1525,1561.67 L1524.65,1561.76 L1524.4,1558.32 L1524.47,1557.42 L1537.6,1554.97 L1537.83,1555.19 L1534.23,1554.87 L1537.64,1554.83 L1538.67,1553.08 L1539.56,1553.25 L1523.28,1556.23 L1537.5,1555.14 L1537.48,1555.13 L1537.59,1554.72 L1538.63,1553.22 L1537.65,1552.9 L1537.75,1552.8 L1537.65,1552.94 L1537.63,1552.92 L1537.65,1552.92 L1537.6,1553.03 L1537.6,1553.03 L1526.8,1556.67 L1537.93,1554.97 L1538.91,1553.17 L1538.85,1553.18 L1526.14,1561.35 L1524.43,1561.78 L1525.51,1557.36 L1525.45,1557.48 L1535.93,1550.48 L1535.59,1549.3 L1539.03,1553.19 L1538.82,1552.96 L1526.74,1560.05 L1512.37,1558.79 L1537.51,1554.79 L1537.57,1554.11 L1526.43,1568.62 L1532.89,1565.27 L1532.54,1560.64 L1532.88,1565.9 L1532.74,1565.12 L1537.68,1552.83 L1537.57,1552.86 L1537.37,1553.23 L1536,1544.01 L1537.93,1555.02 L1537.4,1554.65 L1536.26,1554.29 L1537.68,1554.81 L1537.59,1552.87 L1537.59,1552.8 L1537.55,1552.82 L1537.62,1552.87 L1537.59,1552.79 L1537.64,1553.04 L1545.31,1536.37 L1538.02,1553.95 L1537.5,1553.2 L1536.85,1552.06 L1537.45,1552.81 L1538.87,1546.74 L1537.56,1552.89 L1537.61,1553.59 L1537.5,1552.95 L1537.08,1550.96 L1537.53,1552.6 L1537.72,1553.29 L1537.43,1552.6 L1538.58,1552.96 L1538.02,1553.31 L1537.46,1552.96 L1537.89,1551.45 L1538.21,1550.09 L1537.59,1552.88 L1537.93,1551.85 L1538.17,1550.72 L1537.46,1552.36 L1537.52,1553 L1538.93,1553.79 L1537.88,1553.74 L1537.58,1553.06 L1537.51,1551.98 L1534.39,1549.74 L1536.49,1551.33 L1536.93,1550.77 L1536.17,1550.67 L1536.07,1551.3 L1535.58,1551.76 L1534.95,1551.39 L1534.98,1552.03 L1534.83,1552.66 L1534.66,1553.65 L1534.4,1554.66 L1533.61,1555.01 L1533.03,1555.31 L1531.6,1555.57 L1531.24,1556.12 L1529.53,1555.66 L1528.87,1556.11 L1532.22,1556.17 L1530.99,1556.05 L1527.71,1558.46 L1532.63,1555.79 L1527.81,1564.74 L1528.82,1566.58 L1529.16,1567.4 L1528.47,1565.12 L1537.54,1555.17 L1537.68,1554.73 L1543.91,1537.06 L1542.28,1536.57 L1542.88,1536.34 L1537.68,1553.04 L1537.6,1553.01 L1537.73,1552.89 L1530.03,1569.2 L1530.44,1568.38 L1502.35,1552.76 L1499.57,1553.11 L1480.61,1565.03 L1427.87,1554.68 L1428.8,1554.15 L1377.2,1588.36 L1379.74,1567.24 L1379.38,1566.09 L1379.22,1566.73 L1370.49,1588.78 L1481.11,1564.7 L1511.56,1552.09 L1512.7,1552.32 L1513.68,1552.5 L1514.33,1552.22 L1555.28,1531.45 L1556.82,1534.42 L1557.51,1534.16 L1558.06,1534.5 L1696.52,1597.56 L1749.35,1581.08 L1748.36,1573.93 L1793.81,1546.54 L1794.41,1546.32 L1795.14,1546.06 L1813.26,1544.87 L1827.45,1537.95 L1818.58,1548.88 L1819.61,1548.09 L1820.35,1547.55 L1866.84,1562.69 L1868.44,1563.81 L1868.97,1565.69 L1868.85,1564.69 L1923.02,1721.92 L1938.32,1784.34 L1940.38,1785.35 L1942.21,1786.23 L1942.3,1780.23 L1945,1776.63 L1945.43,1777.27 L1946.34,1778.01 L1947.03,1779.37 L1948.07,1780.76 L1949.04,1782.04 L1949.91,1783.16 L1950.81,1784.35 L1951.65,1785.46 L2171.09,2089.17 L2234.81,2181.35 L2242.01,2173.19 L2242.5,2173.86 L2243.38,2175.03 L2244.94,2176.88 L2245.85,2178.77 L2246.94,2180.13 L2248.11,2181.59 L2249.2,2182.95 L2250.32,2184.35 L2257.29,2192.41 L2356.9,2638.71 L2357.02,2639.39 L2352.01,2652.56 L2352.01,2654.51 L2352.39,2656.21 L2352.14,2657.91 L2352.17,2659.48 L2352.13,2660.79 L2352.16,2662.28 L2351.73,2730.98 L2352.11,2730.98 L2349.42,2566.5 L2334.5,2327.88 L2340.21,2332.33 L2339.96,2331.1 L2339.71,2329.78 L2339.51,2328.45 L2339.29,2327.14 L2339.09,2325.81 L2338.99,2324.54 L2338.78,2323.26 L2337.67,2315.18 L2050.95,1916.19 L2064.27,1935.31 L2063.29,1933.96 L2062.07,1931.98 L2061.72,1930.87 L2060.6,1929.74 L2059.85,1928.55 L2058.81,1927.28 L2051.38,1916.78 L1941.25,1765.66 L1940.04,1764.63 L1939.33,1764.07 L1938.81,1763.27 L1938.26,1762.38 L1937.82,1761.65 L1936.86,1761.04 L1936.42,1760.33 L1936.11,1759.59 L1935.77,1758.96 L1878.63,1564.19 L1880.19,1562.95 L1880.06,1558.84 L1880.15,1560.24 L1880.4,1561.39 L1790.98,1561.46 L1791.15,1562.9 L1791.43,1563.85 L1791.61,1565.57 L1792.17,1566.61 L1792.69,1566.98 L1797.12,1564.2 L1793.73,1566.03 L1792.97,1566.44 L1794.81,1565.38 L1800.78,1561.93 L1802.09,1561.23 L1804.06,1560.29 L1799.81,1562.71 L1795.66,1564.97 L1799.69,1562.48 L1802.42,1561.32 L1803.19,1560.73 L1803.37,1561.51 L1803.26,1560.62 L1802.26,1560.37 L1764.82,1625.26 L1750.77,1649.61 L1742.37,1664.16 L1701.14,1679.94 L1685.47,1685.94 L1802.72,1560.63 L1521.96,1622.15 L1481.61,1563.68 L1483.02,1565.57 L1483.8,1565.38 L1482.83,1565.83 L1514.49,1552.44 L1515.38,1552.76 L1514.61,1552.83 L1513.05,1552.92 L1513.67,1552.77 L1515.48,1552.8 L1523.23,1556.26 L1543.1,1537.6 L1541.49,1538.41 L1544.34,1536.86 L1537.64,1555.43 L1537.55,1554.95 L1528.97,1566.37 L1529.74,1566.72 L1529.19,1566.09 L1531.8,1564.2 L1537.7,1555.4 L1525.09,1557.54 L1525.77,1557.55 L1499.78,1553.02 L1498.74,1553.25 L1498.44,1553.86 L1523.86,1493.61 L1524.41,1493.24 L1525.07,1492.76 L1575.88,1403.13 L1572.83,1401.35 L1607.83,1368.48 L1605.81,1367.32 L1604.97,1366.27 L1579.41,1398.75 L1583.63,1404.95 L1583.1,1403.02 L1582.91,1402.26 L1540.27,1464.49 L1525.48,1494.65 L1523.33,1494.05 L1522.27,1495 L1521.66,1495.54 L1520.69,1495.97 L1519.63,1496.49 L1518.92,1497.16 L1518.43,1497.67 L1517.91,1498.17 L1493.81,1554.72 L1499.22,1551.07 L1496.9,1553.3 L1497.48,1553.59 L1525.62,1559.14 L1526.86,1561.03 L1526.7,1560.24 L1522.52,1554.45 L1526.31,1560.89 L1537.64,1555.29 L1529.59,1570.4 L1494.15,1555.46 L1540.88,1463.66 L1577.46,1435.62 L1580.74,1434.96 L1657.29,1459.6 L1658.13,1459.82 L1659.79,1460.29 L1658.51,1459.94 L1722.37,1460.95 L1724,1445.44 L1721.9,1443.73 L1759.51,1438.07 L1760.37,1436.01 L1761.41,1436.3 L1762.3,1436.13 L1762.8,1435.73 L1763.91,1435.15 L1764.5,1434.86 L1765.13,1434.56 L1753.99,1373.35 L1753.53,1372.74 L1754.02,1373.6 L1753.43,1373.28 L1735.53,1345.31 L1707.99,1349.04 L1699.56,1344.13 L1699.3,1342.4 L1700.27,1343.45 L1700.36,1342.81 L1665.86,1342.85 L1667.17,1341.72 L1667.19,1341.08 L1669.09,1342.82 L1669.98,1343.31 L1671.28,1341.89 L1631.81,1340.35 L1630.85,1339.75 L1631.63,1338.71 L1633.14,1338.19 L1632.5,1338.02 L1599.76,1376.7 L1600.59,1376.38 L1595.41,1377.69 L1539.95,1463.73 L1541.32,1463.84 L1542.15,1465.03 L1540.36,1463.73 L1539.27,1461.82 L1543.51,1430.99 L1542.8,1431.01 L1532.32,1460.67 L1531.86,1459.88 L1532.63,1460.1 L1527.03,1460.66 L1532.46,1464.46 L1530.49,1462.67 L1532.19,1460.06 L1490.52,1557.38 L1498.64,1541.49 L1489.97,1557.55 L1490.77,1556.94 L1521.71,1555.71 L1522.4,1556.14 L1523.88,1557.09 L1524.43,1561.77 L1524.84,1561.75 L1529.63,1570.46 L1486.47,1560.46 L1487.74,1560.62 L1487.3,1561.22 L1480.65,1565.02 L1613.33,1695.17 L1614.08,1696.06 L1660.56,1694.45 L1663.68,1693.5 L1661.27,1696.49 L1659.55,1697.53 L1658.7,1698.05 L1658.6,1695.63 L1657.95,1697.14 L1658.06,1696.41 L1657.35,1695.84 L1665.26,1694.24 L1519.24,1620.03 L1483.95,1562.3 L1484.85,1561.66 L1484.2,1562.17 L1485.09,1562.86 L1485.2,1561.99 L1515.13,1552.48 L1515.74,1552.14 L1537.72,1554.55 L1528.13,1558.47 L1530.09,1569.06 L1525.03,1569.11 L1516.88,1500.11 L1519.26,1499.14 L1519.76,1498.22 L1566.01,1417.78 L1565.66,1416.89 L1563.82,1416.63 L1565.51,1415.63 L1566.07,1417.05 L1578.48,1392.74 L1577.63,1387.58 L1578.48,1392.74 L1577.64,1387.32 L1577.29,1388.68 L1570.32,1412.73 L1566.43,1417.48 L1570.32,1412.73 L1566.39,1417.48 L1567.03,1416.49 L1567.69,1416.35 L1567.06,1416.73 L1566.09,1417.59 L1565.74,1412.52 L1552.92,1503.5 L1554.96,1504.19 L1546.19,1536.07 L1545.45,1536.69 L1545.68,1536.01 L1528.95,1564.43 L1527.91,1565.28 L1527.3,1565.56 L1499.05,1553.03 L1480.61,1565 L1611.43,1693.46 L1480.61,1565 L1799.58,1564.33 L1802.49,1560.51 L1800.26,1548.87 L1865.61,1645.42 L1865.57,1648.11 L1800.26,1548.87 L1964.91,1694.89 L1964.39,1694.44 L1979.45,1747.89 L1979.07,1746.22 L1979.79,1746.51 L2010.79,1734.04 L2010.29,1734.85 L2010.06,1735.5 L1992.31,1708.36 L1964.88,1695.14 L1963.35,1695.52 L1964.88,1695.14 L1963.35,1695.52 L1965.26,1695.71 L1966.24,1694.29 L1964.85,1693.56 L1851.31,1639.68 L1802.1,1555.46 L1738.08,1671.78 L1737.38,1672.91 L1802.06,1555.3 L1510.24,1668.07 L1494.51,1663.65 L1481.39,1659.97 L1470.52,1656.91 L1481.22,1566.65 L1481.51,1567.29 L1482.19,1566.66 L1481.57,1566.83 L1482.15,1566.32 L1483.29,1565.71 L1515.14,1552.92 L1514.48,1552.22 L1516.11,1551.32 L1484.85,1562.31 L1484.21,1562.79 L1515.42,1616.19 L1736.72,1673.74 L1837.64,1528.62 L2055.88,1453.23 L2146.26,1366.88 L2164.99,1305.66 L2090.95,1277.87 L2058.85,1268.18 L2058.37,1267.21 L2020.72,1227.7 L2019.73,1219.81 L2019.37,1217.95 L2019.21,1216.35 L2019.04,1215.01 L2018.8,1213.94 L2018.73,1212.7 L2018.61,1211.5 L2018.5,1210.52 L2018.38,1209.48 L2018.28,1208.63 L2018.15,1207.58 L1887.15,1125.39 L1829.28,1127.66 L1887.11,1125.33 L1639.22,1140.11 L1640.57,1138.07 L1614.07,1200.79 L1613.82,1293.56 L1591.19,1377 L1585.64,1374.16 L1582.87,1372.66 L1579.72,1372.42 L1583.61,1394.1 L1571.87,1410.63 L1571.42,1411.34 L1569.3,1415.17 L1568.9,1415.94 L1514.67,1503.05 L1508.43,1518.53 L1507.68,1519.91 L1507.05,1521.06 L1495.96,1546.04 L1495.48,1546.84 L1494.95,1547.65 L1494.68,1548.28 L1505.12,1548.36 L1505.14,1549.02 L1529.65,1570.19 L1529.4,1571.85 L1525.22,1569.19 L1523.47,1556.28 L1536.51,1554 L1537.53,1554.95 L1537.61,1554.79 L1537.38,1553.44 L1537.65,1553.02 L1541.66,1540.92 L1541.57,1540.29 L1525.25,1569.17 L1534.51,1555.02 L1525.18,1557.57 L1497.81,1553.14 L1492.73,1551.77 L1495.39,1554.61 L1495.91,1553.39 L1480.65,1564.99 L1598.78,1681.23 L1672.39,1674.63 L1672.31,1675.48 L1671.28,1759.63 L1671.82,1612.87 L1671.84,1611.37 L1671.85,1610.62 L1665.27,1694.02 L1519.17,1619.96 L1518.09,1619.07 L1517.54,1618.62 L1484.43,1561.83 L1475.28,1570.02 L1477.6,1565.61 L1484.43,1561.83 L1477.6,1565.61 L1479.01,1564.21 L1485.12,1559.85 L1485.5,1561.32 L1486.14,1561.57 L1485.48,1561.12 L1516.53,1553.46 L1515.38,1551.29 L1515.08,1551.88 L1523.49,1556.34 L1523.47,1556.29 L1548.46,1538.22 L1547.5,1539.27 L1537.49,1555.41 L1533.18,1557.37 L1529.96,1567.43 L1501.26,1552.99 L1499.46,1553.92 L1500.51,1553.88 L1488.01,1560.55 L1480.67,1564.91 L1375.56,1587.72 L1373.83,1588.44 L1372.97,1588.8 L1480.67,1564.91 L1372.97,1588.8 L1372.32,1589.07 L1480.67,1564.91 L1167.33,1645.63 L1480.67,1564.91 L1114.78,1723.37 L1143.94,1792.88 L1146.62,1824.9 L1143.51,1792.36 L1139.2,1787.06 L1138.47,1785.55 L1138.11,1784.31 L1137.57,1783.27 L1136.85,1783.16 L1115.85,1722.73 L1113.84,1723.31 L1115.85,1722.73 L1113.84,1723.31 L1114.63,1723.41 L1260.44,1588.6 L1263.71,1586.58 L1115.07,1723.47 L1421.76,1559.39 L1426.22,1556.19 L1115.07,1723.47 L1428.45,1554.59 L1429.58,1553.78 L1430.13,1553.39 L1480.71,1565.06 L1510.9,1552.01 L1511.98,1551.42 L1525.16,1569.38 L1530.35,1568.25 L1537.9,1555.12 L1479.3,1562.77 L1478.58,1562.72 L1509.67,1552.4 L1506.73,1552.53 L1505.33,1552.34 L1510.82,1552.36 L1509.78,1552.09 L1537.54,1554.94 L1537.36,1554.46 L1530.07,1555.95 L1525.78,1568.51 L1527.36,1568.29 L1561.31,1533.08 L1529.09,1546.18 L1537.71,1541.83 L1543.46,1538.93 L1547.29,1537 L1561.23,1533.31 L1562.2,1533.06 L1594.05,1526.72 L1568.46,1524.36 L1508.59,1496.63 L1568.58,1524.31 L1343.74,1424.4 L1346.81,1429.42 L1348.94,1432.04 L1350,1433.35 L1349.29,1422.29 L1350.34,1421.54 L1351.08,1421.18 L1318.29,1428.32 L1317.73,1428.78 L1316.95,1429.37 L1316.28,1429.88 L1315.8,1430.33 L1315.25,1430.78 L1271.97,1462.23 L1239.88,1463.85 L1240.54,1463.27 L1272.5,1461.87 L1266.92,1464.93 L1272.46,1461.84 L1273.96,1460.12 L1314.87,1484.06 L1322.04,1487.62 L1322.82,1488.3 L1316.15,1486.59 L1316.39,1485.98 L1317.18,1484.39 L1317.09,1485.07 L1377.63,1493.78 L1378.16,1494.37 L1378.72,1493.8 L1379.88,1493.89 L1380.98,1493.83 L1381.48,1494.42 L1382.51,1494.44 L1418.18,1494.03 L1416.22,1493.01 L1466.36,1516.82 L1466.23,1517.47 L1467.43,1518.01 L1468.11,1518.58 L1472.15,1553.16 L1473.65,1554.75 L1474.28,1555.07 L1475.01,1555.96 L1474.61,1556.99 L1475.27,1557.97 L1515.61,1552.5 L1482.36,1563.06 L1512.55,1550.84 L1513.61,1550.98 L1515.87,1552.17 L1516.5,1551.42 L1518.54,1553.24 L1512.73,1589.97 L1513.39,1590.85 L1513.05,1592.06 L1512.13,1592.93 L1510.87,1592.59 L1518.12,1619.6 L1536.42,1648.77 L1528.66,1643.83 L1528.95,1643.01 L1528.77,1643.81 L1528.44,1644.68 L1528.52,1645.54 L1528.76,1646.31 L1516.84,1699.54 L1517.09,1700.19 L1522.92,1730.8 L1522.56,1729.81 L1522.54,1729.08 L1530.12,1687.29 L1528.93,1687.31 L1530.27,1686.74 L1529.75,1685.2 L1530.55,1683.9 L1531.12,1682.98 L1531.74,1681.98 L1512.57,1589.06 L1513.01,1588.13 L1513.72,1587.6 L1526.28,1570.38 L1527.99,1559.78 L1528.41,1557.22 L1528.67,1555.64 L1528.83,1554.62 L1528.96,1553.83 L1555.47,1534.03 L1554.46,1533.27 L1555.58,1533.67 L1556.07,1534.07 L1557.08,1534.2 L1568.45,1524.32 L1647.23,1563.78 L1648.14,1564.23 L1795.5,1543.71 L1997.91,1515.51 L2000.02,1514.64 L1795.55,1543.68 L2258.66,1529.23 L2264.52,1530.5 L2268.1,1531.27 L2372.05,1550.16 L2373.84,1548.66 L2371.53,1548.73 L2423.95,1621.16 L2427.51,1625.95 L2430.15,1629.5 L2453.21,1681.04 L2456.4,1683.02 L2449.49,1665.03 L2446.68,1658.46 L2445.27,1655.18 L2444.57,1653.53 L2453.55,1681.13 L2452.92,1680.1 L2452.22,1679.08 L2426.28,1697.87 L2426.43,1697.03 L2427.4,1697.71 L2427.05,1698.26 L2456.37,1683.07 L2376.95,1550.44 L2314.38,1569.22 L2109.62,1485.63 L1916.5,1547.71 L1927.16,1546.21 L1932.4,1545.47 L1934.95,1545.12 L1936.29,1544.92 L2109.62,1485.63 L1639.81,1544 L1623.35,1536.99 L1614.16,1532.88 L2109.62,1485.63 L1563.77,1523.01 L1568.55,1524.22 L1515.4,1552.79 L1516.24,1552.92 L1517.65,1551.61 L1522.95,1555.92 L1537.2,1553.03 L1537.7,1554.63 L1537.72,1554.66 L1538.13,1555.41 L1526.48,1564.04 L1483.92,1562.37 L1485.18,1562.25 L1514.8,1552.04 L1515.76,1551.8 L1557.1,1534.58 L1556.03,1533.9 L1556.37,1531.71 L1556.85,1533.17 L1508.46,1496.67 L1307.89,1408.88 L1305.85,1407.93 L1304.83,1407.45 L1350.8,1435.05 L1194.85,1328.49 L1187.09,1323.59 L1180.81,1319.63 L1350.8,1435.05 L1056.9,1245.56 L1062.78,1248.02 L1067.55,1250.01 L962.362,1158.45 L821.884,1113.56 L817.621,1114.19 L814.391,1114.66 L811.889,1114.99 L809.987,1115.24 L962.362,1158.45 L656.302,1127.38 L962.362,1158.45 L656.302,1127.38 L660.479,1143.18 L661.437,1146.68 L661.917,1148.43 L662.148,1149.31 L660.291,1142.59 L659.012,1137.93 L658.127,1134.71 L657.513,1132.48 L657.077,1130.93 L659.721,1140.56 L661.059,1145.37 L661.727,1147.78 L662.052,1148.98 L662.162,1149.86 L950.242,1243.6 L662.162,1149.86 L1039.93,1226.5 L1049.98,1233.3 L1070.28,1256.92 L1122.43,1279.83 L1223.79,1346.87 L1219.73,1345.67 L1220.85,1344.26 L1221.41,1343.55 L1221.84,1343.01 L1223.14,1346.49 L1222.45,1345.75 L1221.26,1344.33 L1222.12,1344.17 L1222.39,1343.25 L1234.47,1355.27 L1349.82,1433.42 L1346.27,1429.25 L1343.81,1426.49 L1234.47,1355.27 L1609.9,1523.75 L1622.79,1528.45 L1629.24,1530.81 L1234.47,1355.27 L1629.24,1530.81 L1632.47,1531.99 L1634.08,1532.57 L1799.22,1544.3 L1807.27,1537.47 L1812.8,1534.36 L1815.56,1532.81 L1801.87,1544.19 L1801.03,1544.89 L1800.14,1546.49 L1797.85,1544.01 L1734.44,1670.98 L1735.66,1672.78 L1797.85,1544.01 L1569.3,1650.92 L1482.12,1567.28 L1480.94,1566.18 L1481.92,1566.2 L1512.63,1552.38 L1514.29,1551.92 L1514.83,1552.51 L1512.7,1589.86 L1512.48,1592.79 L1513.21,1592.37 L1528.9,1644.46 L1535.49,1672.31 L1536.62,1673.67 L1536.93,1676.19 L1535.97,1677.08 L1535.6,1677.66 L1534.92,1678.57 L1534.2,1679.45 L1507.26,1725.06 L1507.37,1722.44 L1566.28,1747.19 L1615.25,1769.83 L1814.31,1646.02 L1845.84,1643.01 L1845.56,1643.69 L1845.66,1643.03 L1815.56,1655.35 L1817.4,1656.48 L1815.89,1650.07 L1756.36,1633.67 L1813.92,1645.63 L1565.57,1746.51 L1566.19,1746.95 L1570.64,1749.16 L1510.91,1712.63 L1511.61,1712.76 L1510.95,1714.93 L1511.05,1714.2 L1536.81,1673.25 L1542.77,1663.49 L1536.76,1673.44 L1509.06,1606.18 L1509.3,1603.11 L1517.14,1552.22 L1517.74,1552.62 L1525.27,1557.45 L1544.93,1536.7 L1547.87,1537.19 L1545.68,1535.75 L1527.93,1563.62 L1527.27,1565.2 L1525.15,1569.64 L1523.44,1556.19 L1545.52,1536.49 L1546.18,1536.17 L1537.67,1555.43 L1537.32,1554.28 L1529.01,1564.61 L1531.91,1566.9 L1530.68,1565.14 L1525.22,1569.76 L1526.81,1564.48 L1499.47,1553.12 L1498.8,1553.02 L1499.61,1553.22 L1495.14,1548.55 L1530.83,1467.2 L1541.05,1464 L1543.63,1462.73 L1544.79,1460.49 L1544.99,1459.81 L1576.61,1402.96 L1582.32,1394.06 L1581.81,1395.86 L1582.32,1394.44 L1581.83,1393.97 L1582.22,1393.39 L1582.71,1392.93 L1625.73,1324.53 L1626.31,1338.19 L1624.94,1338.3 L1500.69,1280.65 L1624.94,1338.3 L1500.69,1280.65 L1500.81,1279.92 L1500.5,1286.55 L1500.44,1290.75 L1624.94,1338.3 L1352.6,1251.62 L1347.21,1251.44 L1344.52,1251.34 L1343.02,1251.29 L1341.33,1251.18 L1270.54,1194.43 L1387.56,1253.09 L1270.54,1194.46 L1555.78,1309.87 L1628.88,1339.92 L1628.34,1337.9 L1628.89,1339.93 L1628.45,1339.26 L1603.96,1367.04 L1601.48,1370.74 L1600.96,1371.64 L1600.58,1372.8 L1598.6,1374.37 L1597.76,1375.47 L1597.34,1376.02 L1541.8,1463.95 L1540.41,1463.43 L1540.84,1464.04 L1488.65,1560.19 L1484.51,1558.7 L1488.65,1560.19 L1484.51,1558.7 L1484.07,1557.48 L1483.71,1556.44 L1486.63,1560.27 L1486.81,1562.07 L1487.36,1561.75 L1515.84,1552.61 L1516.74,1551.84 L1517.5,1551.46 L1525.22,1569.76 L1525.41,1569.41 L1525.41,1569.41 L1543.56,1537.29 L1545.06,1537.92 L1544.9,1537.16 L1513.66,1552.47 L1525.43,1569.44 L1537.51,1554.96 L1537.79,1555.2 L1524.94,1568.79 L1525.51,1569.5 L1539.33,1540.35 L1539.34,1541.07 L1538.82,1536.66 L1538.16,1539.6 L1540.03,1538.95 L1540.46,1539.48 L1540.52,1538.71 L1525.57,1569.5 L1494.78,1554.86 L1495.9,1555.48 L1494.65,1555.67 L1480.74,1565.05 L1335.68,1580.55 L1480.74,1565.05 L1335.68,1580.55 L1319.59,1582.31 L1305.08,1583.9 L1393.12,1574.25 L1437.08,1569.42 L1459.11,1567 L1430.84,1570.11 L1405.17,1572.92 L1382.12,1575.45 L1361.38,1577.73 L1342.76,1579.77 L1480.74,1565.05 L1615.32,1660.75 L1480.74,1565.05 L1615.32,1660.75 L1615.44,1656.01 L1615.53,1652.29 L1615.6,1649.17 L1615.66,1646.87 L1480.74,1565.05 L1829.16,1553.34 L1480.74,1565.05 L1966.74,1483.54 L1480.74,1565.05 L2103.4,1417.2 L2094.48,1411.3 L1480.74,1565.05 L2094.48,1411.3 L2090.02,1408.34 L2087.78,1406.87 L2125.08,1421.41 L2125.49,1420.81 L2125.69,1419.21 L2126.15,1418.41 L2126.51,1417.18 L2144.93,1364.49 L2143.74,1360.46 L2142.14,1361.69 L2254.89,1389.89 L2268.78,1395.73 L2254.89,1389.89 L2268.77,1395.74 L2273.08,1395.8 L2273.89,1399.85 L2274.83,1402.31 L2391.6,1576.91 L2439.53,1636.6 L2391.6,1576.91 L2439.52,1636.58 L2440.94,1635.12 L2442.31,1634.53 L2443.27,1634.14 L2444.26,1633.61 L2445.11,1633.05 L2446.12,1632.53 L2447.3,1632.11 L2448.17,1631.43 L2492.14,1637.22 L2491.86,1636.61 L2471.22,1613.48 L2472.18,1613.25 L2490.25,1584.7 L2486.38,1583.38 L2486.19,1582.47 L2487.6,1584.95 L2487.89,1585.88 L2523.23,1596.26 L2527.07,1602.66 L2527.78,1602.9 L2528.39,1603.11 L2523.14,1596.96 L2521.58,1595.71 L2520.01,1594.59 L2537.25,1559.66 L2537.8,1568.21 L2537.95,1561.75 L2538.31,1560.37 L2538.48,1559.68 L2537.27,1563.81 L2537.08,1560.37 L2537.11,1559.23 L2534.74,1528.52 L2529.68,1497.6 L2533.47,1522.47 L2529.5,1524.16 L2532.03,1524.72 L2515.33,1469.41 L2514.72,1469.08 L2484.86,1460.72 L2484.16,1460.55 L2470.26,1436.76 L2481.35,1428.91 L2478.59,1429.9 L2483.68,1460.49 L2484.26,1460.75 L2510.71,1477.18 L2510.32,1476.51 L2531.41,1501.15 L2537.14,1532.69 L2536.84,1530.02 L2536.9,1530.73 L2538.5,1566.03 L2538.23,1563.25 L2538.5,1567.43 L2538.09,1566.21 L2538.85,1566.35 L2524.71,1594.54 L2524.22,1594.97 L2504.48,1618.99 L2504.07,1619.48 L2471.96,1622.15 L2472.09,1621.51 L2426.97,1643.53 L2229.5,1636.5 L2426.94,1643.57 L2229.5,1636.5 L2224.34,1634.17 L2221.49,1632.87 L2135.64,1620.4 L2111.64,1639.12 L2135.64,1620.4 L2111.64,1639.12 L2103.93,1645.14 L2098.27,1649.56 L2135.64,1620.4 L1921.5,1679.53 L2135.64,1620.4 L1836.91,1531.4 L1800.04,1544.69 L1746.1,1660.58 L1741.12,1667.47 L1739.16,1670.15 L1800.04,1544.69 L1614.08,1696.45 L1800.04,1544.69 L1614.08,1696.45 L1480.59,1565.02 L1481.23,1564.61 L1480.57,1565.06 L1518.62,1554.29 L1521.34,1553.25 L1520.42,1554.11 L1523.49,1556.3 L1523.33,1556.23 L1545.03,1536.86 L1545.41,1536.28 L1537.52,1553.2 L1537.73,1555.22 L1537.85,1555.24 L1535.76,1557.37 L1537.66,1554.97 L1536.86,1556.25 L1529.71,1568.11 L1530.06,1567.41 L1501.18,1552.2 L1500.51,1552.33 L1511.13,1508.2 L1511.57,1506.94 L1512.98,1505.44 L1513.5,1505.05 L1513.9,1504.35 L1514.36,1503.62 L1575.62,1404.78 L1579.15,1401.24 L1577.27,1403.2 L1626.92,1338.58 L1628.59,1337.86 L1626.92,1338.58 L1628.59,1337.86 L1625.37,1337.71 L1626.58,1338.3 L1624.93,1338.37 L1772.85,1312.61 L1778.53,1309.34 L1781.36,1307.7 L1624.93,1338.37 L1781.36,1307.7 L1782.8,1306.87 L1783.49,1306.47 L1624.93,1338.37 L1823.61,1172.65 L1862.44,1117.9 L1862.26,1113.65 L1893.94,1126.7 L1888.62,1125.5 L1891.57,1129.4 L1892.36,1132.12 L1892.8,1133.63 L1893.04,1134.46 L1894.76,1126.82 L1895.94,1124.9 L1896.27,1125.97 L1896.3,1125.2 L1862.21,1117.33 L1816.03,1240.09 L1814.1,1245.01 L1813.13,1247.47 L1862.38,1117.41 L1813.13,1247.47 L1812.64,1248.71 L1812.4,1249.32 L1862.38,1117.41 L1707.25,1340.38 L1702.38,1340.58 L1699.94,1340.67 L1697.51,1340.62 L1624.94,1338.33 L1626.37,1338.63 L1624.94,1338.33 L1626.38,1338.63 L1626.48,1337.88 L1592.72,1377.98 L1595.38,1380.07 L1595.47,1379.32 L1520.23,1497.36 L1515.86,1501.96 L1506.15,1552.48 L1506.31,1551.04 L1506.81,1551.68" fill-rule="evenodd"/>
  </g>
  <g stroke="#000000" font-family="MS Shell Dlg 2" fill="none" stroke-width="1" stroke-linecap="square" font-style="normal" font-size="34.375" transform="matrix(0.999751,0,0,0.999751,0,0)" stroke-linejoin="bevel" font-weight="400" stroke-opacity="1"/>
  <g stroke="#000000" font-family="MS Shell Dlg 2" fill="none" stroke-width="1" stroke-linecap="square" font-style="normal" font-size="34.375" transform="matrix(11.8081,0,0,11.8081,0,0)" stroke-linejoin="bevel" font-weight="400" stroke-opacity="1"/>
  <g stroke="#000000" font-family="MS Shell Dlg 2" fill="none" stroke-width="1" stroke-linecap="square" font-style="normal" font-size="34.375" transform="matrix(11.8081,0,0,11.8081,0,0)" stroke-linejoin="bevel" font-weight="400" stroke-opacity="1"/>
  <g stroke="#000000" font-family="MS Shell Dlg 2" fill="none" stroke-width="1" stroke-linecap="square" font-style="normal" font-size="34.375" transform="matrix(11.8081,0,0,11.8081,0,0)" stroke-linejoin="bevel" font-weight="400" stroke-opacity="1"/>
  <g stroke="#000000" font-family="MS Shell Dlg 2" fill="none" stroke-width="1" stroke-linecap="square" font-style="normal" font-size="34.375" transform="matrix(1,0,0,1,0,0)" stroke-linejoin="bevel" font-weight="400" stroke-opacity="1"/>
  <g stroke="#000000" font-family="MS Shell Dlg 2" fill="none" stroke-width="1" stroke-linecap="square" font-style="normal" font-size="34.375" transform="matrix(11.8081,0,0,11.8081,0,0)" stroke-linejoin="bevel" font-weight="400" stroke-opacity="1"/>
  <g stroke="#000000" font-family="MS Shell Dlg 2" fill="none" stroke-width="1" stroke-linecap="square" font-style="normal" font-size="34.375" transform="matrix(11.8081,0,0,11.8081,0,0)" stroke-linejoin="bevel" font-weight="400" stroke-opacity="1"/>
  <g stroke="#000000" font-family="MS Shell Dlg 2" fill="none" stroke-width="1" stroke-linecap="square" font-style="normal" font-size="34.375" transform="matrix(11.8081,0,0,11.8081,0,0)" stroke-linejoin="bevel" font-weight="400" stroke-opacity="1"/>
  <g stroke="#000000" font-family="MS Shell Dlg 2" fill="none" stroke-width="1" stroke-linecap="square" font-style="normal" font-size="34.375" transform="matrix(11.8081,0,0,11.8081,0,0)" stroke-linejoin="bevel" font-weight="400" stroke-opacity="1"/>
  <g stroke="#000000" font-family="MS Shell Dlg 2" fill="none" stroke-width="1" stroke-linecap="square" font-style="normal" font-size="34.375" transform="matrix(1,0,0,1,0,0)" stroke-linejoin="bevel" font-weight="400" stroke-opacity="1"/>
 </g>
 <metadata>
  <rdf:RDF xmlns:dc="http://purl.org/dc/elements/1.1/" xmlns:rdf="http://www.w3.org/1999/02/22-rdf-syntax-ns#" xmlns:rdfs="http://www.w3.org/2000/01/rdf-schema#">
   <rdf:Description dc:date="2024-09-25T09:46:49" dc:title="" dc:identifier="" dc:description="" dc:format="image/svg+xml">
    <dc:creator>
     <rdf:Bag>
      <rdf:li>Michele</rdf:li>
     </rdf:Bag>
    </dc:creator>
    <dc:publisher>
     <rdf:Bag>
      <rdf:li>QGIS 3.28.15-Firenze</rdf:li>
     </rdf:Bag>
    </dc:publisher>
    <dc:subject>
     <rdf:Bag/>
    </dc:subject>
   </rdf:Description>
   <cc:Work rdf:about="">
    <dc:format>image/svg+xml</dc:format>
    <dc:title></dc:title>
    <dc:date>2024-09-25T09:46:49</dc:date>
    <dc:identifier></dc:identifier>
    <dc:description></dc:description>
    <dc:creator>
     <cc:Agent>
      <dc:title>Michele</dc:title>
     </cc:Agent>
    </dc:creator>
    <dc:publisher>
     <cc:Agent>
      <dc:title>QGIS 3.28.15-Firenze</dc:title>
     </cc:Agent>
    </dc:publisher>
   </cc:Work>
  </rdf:RDF>
 </metadata>
</svg>
