<?xml version='1.0' encoding='UTF-8' standalone='no'?>
<svg xmlns="http://www.w3.org/2000/svg" version="1.2" xmlns:xlink="http://www.w3.org/1999/xlink" width="296.926mm" viewBox="0 0 3507 2480" xmlns:cc="http://creativecommons.org/ns#" height="209.973mm" baseProfile="tiny">
 <defs/>
 <g stroke="black" fill-rule="evenodd" fill="none" stroke-width="1" stroke-linecap="square" stroke-linejoin="bevel">
  <g stroke="#000000" font-family="MS Shell Dlg 2" fill="none" stroke-width="1" stroke-linecap="square" font-style="normal" font-size="34.375" transform="matrix(1,0,0,1,0,0)" stroke-linejoin="bevel" font-weight="400" stroke-opacity="1"/>
  <g stroke="#000000" font-family="MS Shell Dlg 2" fill="none" stroke-width="1" stroke-linecap="square" font-style="normal" font-size="34.375" transform="matrix(1,0,0,1,0,0)" stroke-linejoin="bevel" font-weight="400" stroke-opacity="1"/>
  <g stroke="#000000" font-family="MS Shell Dlg 2" fill="none" stroke-width="1" stroke-linecap="square" font-style="normal" font-size="34.375" transform="matrix(11.8081,0,0,11.8081,0,0)" stroke-linejoin="bevel" font-weight="400" stroke-opacity="1"/>
  <g stroke="#000000" font-family="MS Shell Dlg 2" fill="none" stroke-width="1" stroke-linecap="square" font-style="normal" font-size="34.375" transform="matrix(0.999751,0,0,0.999751,0,0)" stroke-linejoin="bevel" font-weight="400" stroke-opacity="1"/>
  <g stroke="none" font-family="MS Shell Dlg 2" fill="#ffffff" font-style="normal" fill-opacity="1" font-size="34.375" transform="matrix(0.999751,0,0,0.999751,0,0)" font-weight="400">
   <path vector-effect="none" d="M-2,-2 L3510,-2 L3510,2483 L-2,2483 L-2,-2" fill-rule="evenodd"/>
  </g>
  <g stroke="#000000" font-family="MS Shell Dlg 2" fill="none" stroke-width="1" stroke-linecap="square" font-style="normal" font-size="34.375" transform="matrix(0.999751,0,0,0.999751,0,0)" stroke-linejoin="bevel" font-weight="400" stroke-opacity="1"/>
  <g stroke="#000000" font-family="MS Shell Dlg 2" fill="none" stroke-width="1" stroke-linecap="square" font-style="normal" font-size="34.375" transform="matrix(11.8081,0,0,11.8081,0,0)" stroke-linejoin="bevel" font-weight="400" stroke-opacity="1"/>
  <g stroke="#000000" font-family="MS Shell Dlg 2" fill="none" stroke-width="1" stroke-linecap="square" font-style="normal" font-size="34.375" transform="matrix(11.8081,0,0,11.8081,0,0)" stroke-linejoin="bevel" font-weight="400" stroke-opacity="1"/>
  <g stroke="#000000" font-family="MS Shell Dlg 2" fill="none" stroke-width="1" stroke-linecap="square" font-style="normal" font-size="34.375" transform="matrix(11.8081,0,0,11.8081,0,0)" stroke-linejoin="bevel" font-weight="400" stroke-opacity="1"/>
  <g stroke="#000000" font-family="MS Shell Dlg 2" fill="none" stroke-width="1" stroke-linecap="square" font-style="normal" font-size="34.375" transform="matrix(11.8081,0,0,11.8081,0,0)" stroke-linejoin="bevel" font-weight="400" stroke-opacity="1"/>
  <g stroke="#000000" font-family="MS Shell Dlg 2" fill="none" stroke-width="1" stroke-linecap="square" font-style="normal" font-size="34.375" transform="matrix(11.8081,0,0,11.8081,0,0)" stroke-linejoin="bevel" font-weight="400" stroke-opacity="1"/>
  <g stroke="#000000" font-family="MS Shell Dlg 2" fill="none" stroke-width="1" stroke-linecap="square" font-style="normal" font-size="34.375" transform="matrix(11.8081,0,0,11.8081,0,0)" stroke-linejoin="bevel" font-weight="400" stroke-opacity="1"/>
  <g stroke="none" font-family="MS Shell Dlg 2" fill="#000000" font-style="normal" fill-opacity="0" font-size="34.375" transform="matrix(0.999751,0,0,0.999751,0,0)" font-weight="400">
   <rect x="0" y="0" width="3508" height="2480"/>
  </g>
  <g stroke="#000000" font-family="MS Shell Dlg 2" fill="none" stroke-width="1" stroke-linecap="square" font-style="normal" font-size="34.375" transform="matrix(0.999751,0,0,0.999751,0,0)" stroke-linejoin="bevel" font-weight="400" stroke-opacity="1"/>
  <g stroke="#214cda" font-family="MS Shell Dlg 2" fill="none" stroke-width="3.07087" stroke-linecap="square" font-style="normal" font-size="34.375" transform="matrix(0.999751,0,0,0.999751,0,0)" stroke-linejoin="bevel" font-weight="400" stroke-opacity="1">
   <path vector-effect="none" d="M1525.14,1557.4 L1525.06,1557.63 L1524.6,1559.24 L1524.75,1557.54 L1525.57,1558.07 L1524.94,1558.13 L1525.63,1557.75 L1531.14,1555.37 L1530.24,1556.27 L1529.77,1556.75 L1531.41,1554.92 L1531.07,1555.26 L1341.38,1522.25 L1342.05,1522.07 L1342.04,1519.25 L1342.12,1522.12 L1341.71,1520.93 L1342.19,1521.75 L1526.81,1553.31 L1527.24,1553.41 L1527.38,1553.85 L1553.29,1534.25 L1341.31,1522.61 L1341.99,1523.03 L1342.71,1522.31 L1342.87,1521.63 L1343.96,1521.35 L1343.34,1521.1 L1341.82,1522.48 L1329.05,1477.43 L1328.52,1476.95 L1326.15,1473.41 L1325.12,1472.85 L1322.19,1470.64 L1166.62,1522.49 L1167.35,1522.97 L1167.53,1522.31 L1167.82,1523.19 L1167.02,1523.21 L1167.33,1521.82 L1171.93,1547 L1172.92,1549.26 L1172.62,1551.56 L1171.99,1551.69 L1170.68,1553.59 L1160.25,1519.82 L1159.82,1519.21 L1201.88,1503.77 L1203.24,1503.19 L1204.43,1503.1 L1205.07,1502.84 L1205.78,1502.39 L1206.35,1501.99 L1207.03,1501.78 L1267.61,1468.46 L1293.54,1465.26 L1294.3,1465.31 L1296.29,1466.08 L1300.35,1466.33 L1300.79,1465.7 L1301.99,1465.4 L1302.62,1465.53 L1303.27,1465.61 L1362.42,1492.85 L1360.03,1493.45 L1358.19,1493.55 L1359.8,1492.96 L1427.3,1492.42 L1427.92,1493.06 L1427.05,1491.61 L1426.72,1490.75 L1427.51,1492.52 L1502.35,1497.62 L1503.09,1497.38 L1503.76,1497.15 L1504.59,1498.22 L1504.5,1498.95 L1500.55,1524.64 L1468.66,1491.7 L1467.98,1491.35 L1467.36,1491.14 L1466.25,1490.38 L1465.54,1490.08 L1464.63,1489.99 L1355.69,1505.56 L1352.26,1508.95 L1350.59,1509.35 L1350.41,1509.97 L1350.03,1510.59 L1349.68,1511.62 L1349.21,1512.45 L1341.89,1523.02 L1341.38,1520.98 L1341.53,1522.41 L1385.55,1494.58 L1386.21,1494.5 L1387.24,1494.5 L1388,1494.73 L1486.2,1496.12 L1487.57,1496.41 L1488.94,1496.81 L1490.57,1499.98 L1490.86,1499.29 L1491.31,1498.08 L1492.37,1497.81 L1493.31,1497.87 L1500.76,1526.25 L1501.07,1525.4 L1500.38,1526.43 L1499.48,1526.94 L1500.51,1526.3 L1489.62,1496.45 L1488.89,1496.28 L1488.12,1496.09 L1487.38,1495.84 L1486.58,1495.64 L1485.78,1495.41 L1484.92,1495.17 L1484.05,1494.91 L1483.11,1494.7 L1393.83,1493.71 L1342.27,1522.35 L1341.6,1522.66 L1358.71,1495.3 L1359.03,1494.74 L1359.81,1492.05 L1486.48,1468.79 L1489.34,1463.97 L1489.83,1463.37 L1489.33,1464.62 L1490.92,1462.93 L1492.07,1461.69 L1492.92,1460.67 L1493.73,1459.63 L1494.56,1458.66 L1495.49,1457.58 L1501.97,1450.16 L1610.16,1286.88 L1612.19,1278.58 L1612.23,1277.71 L1610.22,1279.27 L1610.63,1278.1 L1610.81,1276.85 L1611.68,1276.06 L1611.74,1275.02 L1611.8,1273.86 L1611.84,1272.69 L1645.33,1123.45 L1674.91,1090.01 L1673.1,1085.59 L1673.42,1086.35 L1674.82,1087.11 L1675.48,1087.67 L1676.09,1088.59 L1676.74,1089.05 L1677.37,1058.32 L1677.58,1057.65 L1678.19,1057.06 L1678.99,1056.76 L1720.99,1044.52 L1718.14,1044.94 L1719.46,1043.7 L1716.76,1042.27 L1715.2,1042.28 L1715.79,1042.93 L1686.74,1051.53 L1688.66,1050.46 L1690.04,1049.7 L1696.24,1047.62 L1696.31,1046.92 L1697.05,1046.77 L1701.93,1092.35 L1699.88,1087.73 L1700.25,1088.91 L1700.53,1089.79 L1702.29,1087.84 L1700.52,1087.07 L1700.99,1086.07 L1698.1,1101.94 L1699.22,1100.91 L1700.36,1123.13 L1698.88,1124.8 L1698.86,1123.96 L1697.83,1124.71 L1696.49,1124.21 L1696.21,1123.52 L1677.14,1101.83 L1645.62,1123.43 L1612.63,1271.79 L1612.45,1273.04 L1612.46,1274.25 L1612.39,1275.49 L1612.28,1276.68 L1612.23,1277.77 L1612.12,1278.98 L1612.07,1280.18 L1612.02,1281.37 L1612,1282.56 L1612.04,1283.72 L1559.64,1393.11 L1533.82,1418.28 L1510.05,1442.43 L1509.52,1443.04 L1509.76,1442.03 L1508.85,1443.02 L1508,1444.04 L1507.01,1445.01 L1506.14,1445.84 L1505.24,1446.8 L1504.39,1447.77 L1503.51,1448.69 L1502.6,1449.7 L1501.79,1450.65 L1363.05,1493.89 L1358.47,1495.35 L1358,1494.83 L1360.6,1494.13 L1359.98,1493.21 L1359.27,1495.69 L1359.52,1493.83 L1341.08,1522.71 L1342.02,1522.03 L1342.13,1519.85 L1341.7,1522.55 L1342.03,1522.47 L1353.57,1503.33 L1341.73,1522.19 L1341.64,1522.51 L1335.55,1553.89 L1335.42,1554.53 L1334.99,1555.03 L1345.63,1523.88 L1346.01,1523.35 L1342,1523.21 L1366.85,1496.24 L1367.66,1494.24 L1367.13,1495.99 L1418.96,1493.31 L1423.12,1492.82 L1424.57,1493.37 L1425.42,1493.39 L1426.08,1493.29 L1427.11,1493.06 L1460.39,1503.78 L1460.5,1504.47 L1460.67,1505.23 L1460.8,1506 L1474.43,1549.57 L1475.15,1549.68 L1474.93,1548.88 L1506.06,1552.56 L1506.85,1552.2 L1507.72,1551.66 L1527.78,1553.98 L1526.72,1553.24 L1527.7,1553.74 L1526.72,1553.24 L1527.7,1553.58 L1540.62,1537 L1537.08,1539.15 L1527.41,1553.1 L1524.76,1553.51 L1525.12,1552.91 L1525.29,1557.28 L1572.52,1528.21 L1570.85,1527.79 L1568.47,1524.44 L1568.95,1524.04 L1568.82,1513.22 L1580.9,1446.69 L1580.84,1445.98 L1575.08,1512.61 L1569.65,1513.75 L1619.41,1463.23 L1570.18,1512.62 L1591.83,1455.73 L1569.49,1512.88 L1579.75,1443.33 L1579.84,1442.08 L1569.59,1512.43 L1581.97,1475.47 L1577.52,1489.46 L1574.57,1498.74 L1571.11,1511.95 L1570.38,1512.33 L1569.55,1513.26 L1569.47,1510.97 L1569.32,1512.07 L1569.36,1512.72 L1568.19,1513.06 L1608.31,1468.72 L1608.63,1468.13 L1569.33,1510.72 L1569.02,1511.64 L1570.02,1511.51 L1580.74,1450.3 L1579.41,1449.05 L1578.79,1448.45 L1569.74,1512.3 L1570.69,1513.77 L1569.31,1513.19 L1616.48,1456.94 L1660.55,1547.77 L1660.97,1548.42 L1576.8,1516.38 L1577.54,1514.79 L1575.11,1515.96 L1567.28,1521.57 L1564.86,1520.4 L1566.48,1520.6 L1547.28,1533.34 L1540.43,1538.75 L1541.7,1539.72 L1542.36,1538.14 L1526.07,1553.03 L1526.72,1553.24 L1505.88,1552.43 L1504.58,1551.98 L1472.81,1551.45 L1473.69,1551.12 L1473.03,1551.63 L1473.27,1551.01 L1433.12,1492.43 L1431.81,1491.95 L1359.45,1497.3 L1357.51,1499.73 L1360.97,1498.32 L1341.69,1522.31 L1335.91,1502.17 L1344.92,1520.58 L1345.27,1519.93 L1342.16,1522.17 L1341.9,1522.22 L1390.37,1495.33 L1391.78,1494.05 L1392.82,1494.27 L1394.02,1494.27 L1394.66,1494.67 L1396,1494.68 L1396.72,1494.69 L1457.82,1493.63 L1457.39,1491.02 L1458.07,1493.41 L1460.92,1491.97 L1393.14,1494.22 L1393.21,1492.29 L1394.71,1492.76 L1342.34,1520.05 L1343.13,1520.6 L1342.01,1523.2 L1341.69,1522.31 L1363.57,1496.58 L1364.2,1496.18 L1364.78,1494.57 L1365.66,1497.32 L1428.56,1492.86 L1436.7,1492.87 L1435.57,1492.36 L1435.18,1491.62 L1435.81,1491.84 L1476.06,1527.84 L1476.26,1529.33 L1475.89,1530.18 L1477.6,1529.65 L1477.84,1530.43 L1480.29,1561.84 L1477.73,1561.63 L1478.65,1561.22 L1478,1561.8 L1513.23,1552.44 L1514.06,1552.4 L1514.6,1552 L1527.6,1553.69 L1527.62,1553.71 L1525.16,1557.43 L1544.12,1536.92 L1537.14,1543.24 L1534.71,1541.05 L1544.85,1536.62 L1544.65,1537.39 L1546.01,1535.55 L1531.08,1555.49 L1531.07,1555.31 L1530.96,1556.56 L1494.25,1553.27 L1489.47,1556.96 L1491.52,1559.73 L1498.13,1552.08 L1499.23,1549.64 L1493.68,1550.02 L1496.04,1549.14 L1496.88,1547.98 L1497.52,1547.24 L1497.91,1546.1 L1468.58,1519.56 L1468.01,1518.23 L1467.34,1517.39 L1466.59,1517.51 L1465.98,1516.54 L1465.56,1515.83 L1418.91,1492 L1408.82,1491.77 L1403.88,1492.17 L1401.41,1495.04 L1396.65,1494.47 L1394.9,1494.08 L1394.53,1493.41 L1354.38,1502.06 L1387.98,1494.24 L1464.13,1513.57 L1464.29,1514.2 L1475.27,1556.76 L1475.78,1557.29 L1476.27,1558.01 L1476.74,1558.66 L1477.07,1559.32 L1480.72,1565.03 L1613.33,1694.98 L1480.72,1565.03 L1735.58,1674.08 L1736.84,1673.78 L1799.71,1545.08 L1795.49,1543.62 L1608.1,1367.21 L1658.94,1569.93 L1509.17,1496.48 L1439.08,1491.5 L1440.5,1490.74 L1439.67,1491.08 L1377.15,1494.14 L1375.01,1494.04 L1375.65,1493.69 L1376.71,1493.29 L1341.18,1522.49 L1341.9,1522.87 L1341.61,1522.37 L1362.32,1498.29 L1362.94,1498.01 L1363.7,1497.89 L1425.83,1492.51 L1426.53,1492.9 L1426.81,1492.02 L1427.28,1495.03 L1427.57,1494.42 L1476.05,1527.8 L1476.3,1528.98 L1486.38,1560.46 L1487.4,1561.14 L1527.12,1553.34 L1527.45,1553.77 L1485.04,1561.26 L1483.63,1561.39 L1483.3,1562.75 L1482.98,1562.17 L1465.55,1516.1 L1463.33,1514.4 L1462.77,1513.88 L1464.46,1514.85 L1464.99,1515.38 L1464.28,1514.03 L1425.14,1492.45 L1424.35,1492.29 L1423.66,1492.51 L1422.84,1492.7 L1421.65,1492.81 L1420.85,1493.17 L1354.59,1500.36 L1354.92,1499.82 L1354.89,1500.74 L1355.26,1499.73 L1341.69,1522.31 L1341.69,1522.31 L1341.48,1521.02 L1344.42,1519.91 L1344,1521.13 L1342.66,1520.92 L1342.81,1520.14 L1343.85,1521.15 L1343.88,1519.8 L1342.32,1519.53 L1342.91,1519.99 L1343.64,1520.07 L1344.13,1519.67 L1344.8,1519.62 L1345.04,1518.93 L1345.68,1518.65 L1346.32,1518.43 L1347.01,1518.44 L1347.51,1517.94 L1347.78,1517.35 L1347.95,1516.69 L1348.11,1516.07 L1348.35,1515.41 L1348.56,1514.79 L1348.8,1514.17 L1349.18,1513.52 L1349.33,1512.79 L1349.62,1512.22 L1349.86,1511.55 L1350.16,1510.99 L1350.32,1510.34 L1350.59,1509.65 L1350.78,1508.94 L1350.89,1508.27 L1351.09,1507.57 L1351.18,1506.91 L1351.47,1506.31 L1351.71,1505.66 L1351.95,1504.96 L1352.15,1504.28 L1352.46,1503.67 L1352.61,1502.95 L1353.03,1501.69 L1353.25,1501.05 L1353.35,1500.31 L1353.39,1499.68 L1353.74,1499.12 L1354.43,1499.01 L1355.16,1499.1 L1356.48,1499.21 L1357.25,1499.32 L1358,1499.31 L1358.69,1499.12 L1360.06,1498.94 L1360.71,1498.71 L1361.37,1498.45 L1361.97,1498.24 L1363.28,1497.91 L1363.96,1497.72 L1364.66,1497.55 L1365.37,1497.38 L1366.04,1497.21 L1366.69,1496.92 L1367.89,1496.45 L1368.7,1496.07 L1369.46,1495.79 L1370.72,1495.38 L1371.35,1495.13 L1372.12,1494.92 L1373.4,1494.72 L1374.83,1494.67 L1375.68,1494.7 L1376.62,1494.71 L1378.61,1494.72 L1379.66,1494.7 L1380.55,1494.68 L1381.54,1494.72 L1382.6,1494.71 L1383.63,1494.74 L1384.9,1494.73 L1385.85,1494.87 L1386.57,1494.77 L1387.66,1494.87 L1388.56,1494.92 L1389.18,1494.66 L1473.03,1492.56 L1473.87,1492.84 L1474.72,1493.09 L1475.58,1493.38 L1476.54,1493.7 L1477.42,1493.93 L1478.34,1494.22 L1479.15,1494.44 L1480.09,1494.74 L1480.94,1495.03 L1481.64,1495.33 L1482.4,1495.54 L1501.29,1525.73 L1501.62,1524.44 L1487.48,1496.44 L1487.84,1497.69 L1486.98,1497.45 L1486.31,1495.81 L1483.99,1495.16 L1483.17,1494.93 L1482.56,1494.76 L1481.92,1494.58 L1481.25,1494.39 L1480.62,1494.21 L1420.14,1492.09 L1395.44,1493.33 L1420.14,1492.09 L1395.44,1493.33 L1392.27,1493.35 L1395,1492.93 L1353.58,1503.75 L1349.97,1511.09 L1350.94,1507.93 L1350.27,1507.17 L1350.67,1507.7 L1387.81,1494.34 L1371.86,1495.41 L1387.86,1491.24 L1385.93,1493.12 L1386.36,1494.07 L1386.32,1494.8 L1458.97,1490.53 L1457.76,1490.55 L1456.75,1490.37 L1457.44,1490.31 L1458.34,1490.59 L1459.09,1490.61 L1500.44,1526.94 L1501.34,1526.08 L1490.51,1496.81 L1488.97,1496.39 L1488.3,1496.24 L1487.55,1496.03 L1486.73,1495.82 L1485.9,1495.55 L1485.08,1495.32 L1484.26,1495.08 L1483.31,1494.86 L1482.43,1494.55 L1481.55,1494.3 L1410.29,1491.89 L1402.56,1492.26 L1395,1494.07 L1393.89,1494.23 L1393.34,1494.69 L1394.43,1494.15 L1344.03,1520.41 L1340.2,1523.49 L1341.38,1522.48 L1335.21,1554.98 L1334.88,1555.72 L1334.83,1556.49 L1332.44,1586.56 L1333.09,1586.73 L1335.39,1555.02 L1335.89,1554.51 L1336.15,1553.91 L1346.19,1518.02 L1345.5,1517.77 L1344.82,1517.78 L1341.69,1522.31 L1388.25,1494.34 L1390.65,1494.68 L1391.5,1495.82 L1394.16,1493.71 L1394.58,1494.7 L1395.21,1494.93 L1396.45,1494.95 L1397.2,1494.88 L1397.87,1494.91 L1398.58,1494.83 L1464.2,1514.93 L1477.17,1560.39 L1476.55,1559.69 L1476.1,1560.31 L1476.74,1561.46 L1477.23,1562.04 L1477.81,1561.41 L1477.12,1560.52 L1531.11,1555.43 L1522.74,1555.96 L1525.16,1557.35 L1524.93,1557.38 L1524.38,1557.42 L1525.05,1557.67 L1525.8,1558.01 L1526.22,1558.5 L1485.13,1561.17 L1483.06,1560.59 L1482.44,1561.44 L1481.38,1562.73 L1480.57,1562.89 L1451.67,1491.06 L1413,1492.2 L1412.2,1491.92 L1412.42,1493.92 L1410.52,1493.85 L1411.86,1491.9 L1409.8,1492.43 L1408.14,1493.06 L1406.98,1493.35 L1406.03,1493.21 L1354.77,1500.67 L1349.78,1497.7 L1355.17,1495.75 L1353.48,1503.63 L1351.64,1500.9 L1351.87,1501.57 L1341.81,1520.59 L1338.98,1587.66 L1340.67,1587.85 L1341.44,1586.85 L1342.1,1586.53 L1342.82,1586.46 L1343.91,1586.71 L1345.16,1586.79 L1346.24,1586.93 L1369.84,1602.66 L1369.77,1603.34 L1369.73,1604.33 L1369.06,1605.14 L1368.85,1606.3 L1371.31,1665.79 L1371.81,1668.31 L1373.58,1673.15 L1373.93,1674.29 L1375.25,1675.44 L1375.79,1676.14 L1375.88,1676.77 L1376.39,1677.81 L1376.72,1678.81 L1383.82,1694.41 L1383.08,1697.85 L1380.52,1698.55 L1367.5,1658.5 L1367.45,1657.78 L1367.62,1656.35 L1367.67,1655.25 L1367.62,1654.19 L1367.39,1653.6 L1369.53,1589.33 L1369.23,1588.74 L1369.56,1587.47 L1370.25,1586.86 L1368.29,1587.49 L1367.42,1587.62 L1366.39,1587.67 L1342.07,1538.74 L1342.77,1538.38 L1341.93,1520.81 L1341.93,1520.81 L1341.93,1520.81 L1351.89,1509.54 L1352.55,1505.99 L1352.7,1505.12 L1353.14,1505.99 L1352.66,1506.65 L1351.91,1505.75 L1352.59,1505.93 L1382.45,1494.69 L1383.2,1494.62 L1383.92,1494.68 L1384.64,1494.66 L1385.85,1494.55 L1386.89,1494.54 L1387.78,1494.55 L1454.77,1490.82 L1461.5,1490.58 L1460.31,1490.6 L1459.59,1490.31 L1460.21,1491.33 L1460.3,1491.98 L1472.41,1551.89 L1473.51,1551.33 L1474.8,1552.5 L1475.8,1551.67 L1474.27,1550.97 L1538.49,1540.87 L1539.31,1540.27 L1496.73,1546.99 L1493.94,1546.73 L1493.59,1547.62 L1493.34,1548.42 L1469.85,1521.64 L1469.42,1520.94 L1469.03,1519.43 L1468.39,1518.93 L1376.45,1494.34 L1376.32,1495.27 L1375.42,1495.31 L1374.61,1495.05 L1373.63,1493.75 L1372.87,1493.89 L1372.11,1494.13 L1371.41,1494.36 L1349.26,1517.65 L1349.52,1519.64 L1342.32,1522.85 L1341.93,1520.81 L1341.93,1520.81 L1364.32,1497.17 L1363.65,1497.67 L1364.31,1497.56 L1422.46,1496.29 L1424.11,1494.24 L1424.87,1493.25 L1425.91,1492.56 L1426.82,1492.35 L1476.35,1528.19 L1477.44,1529.22 L1478.39,1530.15 L1478.68,1529.53 L1516.08,1553.03 L1514.86,1552.82 L1516.46,1551.96 L1517.11,1551.48 L1531.04,1555.14 L1530.92,1555.51 L1527.14,1553.37 L1527,1553.4 L1548.66,1535.02 L1543.2,1537.27 L1542.02,1535.99 L1540.62,1536.84 L1548.99,1534.99 L1550.13,1534.81 L1508.86,1496.54 L1374.84,1464.19 L1232.88,1353.29 L1231.94,1352.87 L1527.36,1553.48 L1288.53,1246.76 L1313.78,1269.47 L1314.35,1269.88 L1328.9,1241.63 L1329.33,1241.11 L1297.38,1244.5 L1296.68,1244.47 L1300.26,1229.45 L1240.8,1329.58 L1233.75,1336.84 L1226.11,1345.09 L1167.37,1509.68 L1166.15,1511.54 L1165.56,1512.43 L1165.11,1513.1 L1239.79,1483.24 L1242.51,1481.13 L1244.14,1480.1 L1245.27,1479.76 L1246.18,1479.31 L1246.77,1479.06 L1361.86,1492.42 L1344.86,1519.12 L1344.47,1519.65 L1342.32,1522.85 L1366.76,1496.22 L1457.77,1490.72 L1458.38,1490.55 L1459.42,1490.67 L1476.73,1545.71 L1482.32,1545.58 L1476.7,1545.72 L1476.16,1546.52 L1474.97,1546.86 L1474.83,1545.32 L1475.18,1546.06 L1519.59,1549.33 L1520.46,1548.9 L1520.01,1549.54 L1520.85,1551.64 L1521.58,1551.42 L1527.56,1553.58 L1527.52,1553.63 L1526.49,1555.89 L1548.97,1534.82 L1546.36,1538.95 L1546.52,1539.21 L1531.18,1555.34 L1530.57,1556.97 L1531.25,1555.33 L1531.16,1555.2 L1531.09,1555.23 L1518.53,1544.47 L1518.81,1553.35 L1516.39,1554.31 L1515.92,1553.86 L1516.17,1548.35 L1514.8,1550.68 L1515.1,1549.53 L1515.1,1550.18 L1474.5,1555.48 L1474.49,1557.44 L1474.95,1556.91 L1474.63,1556.26 L1460.17,1492.72 L1459.33,1490.32 L1458.16,1490.13 L1356.74,1498.12 L1360.31,1508.02 L1359.49,1510.07 L1361.54,1498.54 L1362.55,1500.72 L1342.21,1522.93 L1341.93,1520.81 L1341.93,1520.81 L1334.85,1519.37 L1341.41,1522.7 L1342.21,1522.93 L1341.93,1520.81 L1355.32,1500.46 L1387.35,1491.49 L1387.87,1492.09 L1388.27,1492.64 L1481.58,1495.06 L1480.58,1494.13 L1482.67,1494.95 L1485.94,1496.04 L1488.29,1497.53 L1488.58,1496.77 L1501.07,1525.54 L1483.56,1495.44 L1483,1494.2 L1482.03,1494.16 L1481.09,1494.21 L1480.2,1493.25 L1479.3,1492.96 L1394.71,1494.25 L1360.92,1500.86 L1360.55,1502.16 L1342.23,1522.98 L1430.48,1492.24 L1432.73,1485.54 L1433.12,1486.38 L1433.75,1486.04 L1434.48,1485.89 L1435.18,1485.72 L1435.83,1485.71 L1437.16,1486.85 L1437.88,1487.73 L1499.48,1514.07 L1499.75,1515.13 L1436.83,1492.78 L1433.83,1492.47 L1360.65,1498.09 L1360.17,1498.76 L1360.84,1498.74 L1338.27,1523.8 L1339.86,1524.03 L1356.06,1499.74 L1359.54,1497.82 L1357.35,1499.05 L1354.16,1500.23 L1353.99,1499.59 L1359.84,1492.64 L1443.96,1486.82 L1441.55,1486.43 L1439.91,1485.81 L1441.27,1484.81 L1441.71,1485.79 L1442.26,1486.34 L1443.57,1487.39 L1595.69,1362.09 L1596.6,1361.2 L1597.35,1360.45 L1603.57,1350.2 L1604.94,1348.99 L1609.68,1353.19 L1606.81,1347.12 L1611.68,1275.42 L1615.99,1200.94 L1611.68,1275.42 L1309.32,1391.54 L1725.23,1078.77 L1766.09,1101.3 L1725.23,1078.77 L1639.12,1060.04 L1725.23,1078.77 L1464.14,965.901 L1385.28,817.642 L1385.01,817.024 L1328.95,752.622 L1330.23,751.268 L1331.12,747.871 L1334.68,753.669 L1339.19,758.219 L1334.61,753.397 L1332.28,749.949 L1302.08,887.09 L1269.16,995.857 L1239.88,1028.81 L1231.73,1037.86 L1226.18,1044.01 L1225.3,1044.1 L1225.44,1043.34 L1221.71,1047.96 L1219.26,1051.01 L1207.74,1094.86 L1262.52,1184.49 L1266.47,1189.56 L1268.44,1192.09 L1207.74,1094.86 L1393.28,1253.16 L1314.37,1379.43 L1313.66,1379.2 L1361.4,1488.72 L1341.89,1522.11 L1341.93,1520.81 L1341.48,1522.55 L1341.93,1520.81 L1341.39,1521.86 L1341.56,1522.31 L1354.15,1501.89 L1358.44,1494.86 L1355.22,1500.29 L1354.18,1499.49 L1353.4,1499.88 L1428.83,1492.47 L1427.95,1488.61 L1427.58,1489.42 L1427.45,1490.11 L1427.48,1490.82 L1460.64,1499.74 L1480.6,1533.96 L1479.88,1533.55 L1479.49,1534.86 L1481.41,1534.38 L1482.3,1535.79 L1513.82,1552.18 L1515.23,1552.54 L1515.97,1552.33 L1525.82,1560.01 L1528.06,1554.18 L1542.96,1537.7 L1543.65,1536.98 L1540.96,1540.73 L1534.21,1546 L1504.67,1552.23 L1505.98,1551.33 L1505.79,1558.72 L1505.7,1562.41 L1505.65,1564.26 L1503.2,1552.58 L1536.96,1550.17 L1533.93,1554.06 L1532.8,1553.35 L1535.64,1551.53 L1534.98,1552.62 L1529.32,1554.91 L1525.14,1557.54 L1524,1556.57 L1539.25,1549.01 L1534.63,1553.59 L1535.42,1553.1 L1525.85,1552.74 L1503.24,1552.73 L1500.37,1554.01 L1499.18,1554.41 L1494.96,1554.75 L1492.93,1554.91 L1477.85,1528.99 L1476.54,1528.27 L1476.91,1529.18 L1476.28,1528.74 L1433.52,1492.63 L1432.23,1492.5 L1431.44,1492.82 L1431.68,1494.32 L1431.56,1493.62 L1361.83,1496.86 L1353.46,1504.51 L1352.86,1505.21 L1353.42,1500.25 L1354.12,1500.12 L1354.74,1499.83 L1341.37,1522.37 L1343.21,1534.74 L1343.12,1535.38 L1345.43,1536.78 L1344.79,1536.66 L1349.18,1490.13 L1354.35,1505.11 L1354.51,1504.36 L1341.56,1522.31 L1342.67,1523.06 L1341.91,1520.98 L1341.91,1520.98 L1341.91,1520.98 L1385.02,1494.23 L1386.02,1494.25 L1384.78,1495.01 L1386.18,1495.5 L1385.78,1496.06 L1385.84,1494.97 L1464.15,1514.11 L1465.29,1515.77 L1472.33,1552.01 L1472.9,1551.45 L1472.51,1552.62 L1471.9,1553.1 L1516.18,1552.56 L1514.93,1551.48 L1515.46,1552.02 L1514.9,1552.48 L1514.69,1553.46 L1514.75,1549.22 L1535.85,1551.93 L1535.98,1552.02 L1536.29,1551.15 L1538.42,1549.52 L1537.76,1546.03 L1538.17,1547.89 L1538.45,1548.85 L1543.5,1536.49 L1540.79,1537.2 L1543.8,1537.09 L1497.89,1553.21 L1498.57,1552.84 L1497.8,1553.29 L1461.02,1505.39 L1460.18,1504.6 L1460.49,1503.3 L1460.56,1502.5 L1429.34,1492.28 L1428.76,1489.84 L1429.32,1490.36 L1428.53,1490.96 L1429.63,1491.53 L1429.31,1492.46 L1359.76,1499.01 L1342.31,1520.52 L1326.36,1526.97 L1341.04,1522.63 L1344.45,1519.42 L1343.63,1520.01 L1342.36,1520.73 L1362.26,1497.63 L1362.65,1497.12 L1363.72,1498.08 L1363.88,1497.42 L1388.47,1494.29 L1434.52,1493.16 L1435.73,1494.31 L1437.53,1493.89 L1439.72,1493.76 L1440.5,1493.4 L1441.6,1493.1 L1442.77,1492.83 L1443.44,1492.77 L1475.77,1527.39 L1475.76,1526.16 L1475.93,1527.33 L1476.38,1559.43 L1475.74,1558.16 L1478.98,1561.6 L1479.67,1562.24 L1476.38,1559.43 L1479.67,1562.24 L1480.18,1562.72 L1476.31,1560.92 L1474.76,1561.61 L1472.82,1559.73 L1473.75,1560.34 L1475.62,1559.63 L1514.91,1552.73 L1518.45,1552.65 L1518.14,1551.16 L1527.18,1553.51 L1527.18,1553.33 L1527.14,1553.52 L1528.78,1555.06 L1543.36,1537.82 L1542.04,1538.23 L1541.39,1538.51 L1542.35,1539.52 L1514.27,1550.82 L1515.19,1551.15 L1514.71,1551.66 L1513.89,1551.92 L1474.32,1555.9 L1473.56,1556.11 L1472.88,1555.32 L1471.3,1555.13 L1472.08,1555.07 L1471.79,1554.3 L1461.36,1491.16 L1461.57,1490.05 L1461.35,1491.14 L1461.15,1491.78 L1374.72,1492.81 L1352.99,1494.58 L1354.43,1496 L1358.35,1497.89 L1357.64,1496.76 L1357.22,1497.26 L1357.23,1498.11 L1357.58,1498.72 L1358.36,1498.96 L1353.73,1511.91 L1341.49,1522.61 L1341.54,1522.85 L1341.02,1523.26 L1362.19,1498.84 L1362.4,1498.17 L1403.82,1494.57 L1407.16,1495.72 L1412.12,1493.32 L1412.69,1493.74 L1413.64,1493.81 L1414.39,1493.77 L1415.04,1493.77 L1415.7,1493.74 L1416.85,1493.7 L1480.02,1495.02 L1494.91,1500.26 L1491.17,1499.79 L1490.99,1498.43 L1491.49,1497.88 L1492.2,1497.58 L1493.07,1497.71 L1493.77,1497.78 L1500.96,1525.47 L1502.85,1523 L1503.45,1521.77 L1503.74,1521.17 L1501.78,1524.73 L1463.35,1489.58 L1462.51,1489.5 L1463.6,1489.62 L1394.08,1494.45 L1373.63,1495.34 L1371.89,1495.01 L1365.39,1496.85 L1364.15,1497.07 L1363.48,1497.18 L1362.7,1496.9 L1361.45,1497.23 L1343.48,1521.37 L1341.05,1520.11 L1341.89,1520.9 L1343.22,1520.96 L1338.45,1553.38 L1337.66,1552.17 L1344.84,1520.57 L1346.28,1522.01 L1365.84,1496.87 L1366.51,1496.76 L1423.64,1492.95 L1426.55,1489.9 L1426.49,1490.85 L1427.05,1490.44 L1427.28,1491.54 L1501.09,1527.99 L1500.42,1526.7 L1500.45,1526 L1501.09,1526.01 L1489.14,1497.39 L1488.31,1496.98 L1487.71,1496.66 L1486.7,1494.54 L1485.18,1494.9 L1484.36,1494.82 L1483.67,1494.57 L1482.23,1494.28 L1481.44,1494.1 L1480.68,1493.77 L1392.6,1494.34 L1395.88,1494.24 L1392.72,1494.75 L1392.04,1494.25 L1390.48,1494.95 L1390.34,1492.91 L1389.7,1493.64 L1388.65,1493.6 L1387.49,1493.59 L1386.8,1493.57 L1342.56,1520.43 L1343.26,1520.1 L1339.9,1524.11 L1341.42,1522.47 L1359.5,1490.73 L1360.52,1489.52 L1361.53,1488.94 L1361.88,1487.92 L1362.21,1487.38 L1362.59,1486.7 L1362.96,1486.17 L1363.32,1485.45 L1363.82,1484.87 L1351.69,1437.65 L1325.51,1405.93 L1316.71,1393.08 L1319.86,1396.22 L1319.54,1397.26 L1319.62,1396.49 L1318.97,1395.67 L1318.58,1395.03 L1319.71,1375.05 L1374.32,1283.19 L1378.25,1289.63 L1374.02,1286.91 L1374.61,1286.61 L1375.19,1285.5 L1375.48,1284.68 L1375.97,1284.07 L1376.33,1283.46 L1376.73,1282.85 L1377.15,1281.98 L1399.55,1217.87 L1400.29,1215.23 L1401.12,1214.79 L1402.77,1214.01 L1403.4,1213.37 L1403.84,1212.78 L1404.43,1212.38 L1404.92,1211.88 L1387.81,1186.39 L1387.22,1187.15 L1386.55,1185.1 L1385.72,1184.39 L1384.95,1183.97 L1384.16,1183.61 L1383.5,1183.31 L1382.87,1182.99 L1382.19,1182.65 L1381.59,1182.42 L1381.03,1182.07 L1356.19,1192.15 L1355.36,1192.04 L1356.14,1191.75 L1356.06,1192.38 L1325.93,1206.65 L1328.36,1204.36 L1326.13,1206.76 L1327.39,1205.26 L1327.57,1203.27 L1329.07,1200.01 L1327.13,1199.51 L1325.44,1203.98 L1325.01,1204.69 L1414.97,1202.72 L1412.96,1203.97 L1412.3,1204.77 L1410.59,1204 L1410.36,1204.85 L1410.56,1206.32 L1409.7,1206.96 L1381.32,1271.09 L1374.81,1285.71 L1370.65,1293.34 L1369.7,1294.07 L1369.43,1294.79 L1369.03,1295.55 L1368.62,1296.34 L1368.23,1297.07 L1367.84,1297.82 L1367.47,1298.52 L1367.08,1299.25 L1366.67,1300.03 L1311,1383.88 L1298.3,1394.08 L1295.8,1396.1 L1310.53,1391.53 L1312.47,1392.02 L1312.94,1392.5 L1312.23,1391.84 L1313.05,1388.53 L1312.99,1389.41 L1312.18,1391.53 L1311.77,1392.53 L1353.48,1503.94 L1348.87,1516.93 L1348.4,1515.39 L1347.02,1515.73 L1347.49,1516.18 L1343.03,1522.84 L1364.03,1493.03 L1421.37,1490.03 L1423.64,1489.74 L1425.51,1489.5 L1364.03,1493.03 L1425.51,1489.5 L1427.43,1489.29 L1428.68,1489.13 L1432.09,1488.8 L1433.77,1488.57 L1435.17,1488.38 L1440.57,1487.8 L1441.19,1489.12 L1441.84,1489.7 L1364.03,1493.03 L1604.1,1339.4 L1607.82,1334.38 L1609.67,1331.89 L1364.03,1493.03 L1619.33,1190.22 L1619.54,1189.22 L1364.03,1493.03 L1619.7,1188.93 L1621.12,1183.56 L1645.48,1123.37 L1645.43,1123.68 L1621.12,1183.56 L1783.87,1089.14 L1788.03,1090.87 L1790.84,1092.09 L1792.78,1092.92 L1621.12,1183.56 L1941.9,1041.47 L1621.12,1183.56 L2049.49,1009.3 L2043.61,1005.81 L2129.94,908.511 L2145.68,861.722 L2145.65,874.276 L2147.28,873.986 L2145.68,875.641 L2147.91,874.531 L2147.8,873.749 L2148.55,872.902 L2148.84,872.244 L2135.94,773.737 L2115.37,712.599 L2117.47,710.27 L2114.41,708.885 L2113.51,709.622 L2114.27,710.057 L2114.07,712.458 L2113.74,711.678 L2057.81,567.543 L2059.85,566.512 L2060.7,566.34 L2061.39,566.197 L2056.24,561.795 L2056.13,560.861 L2056.76,558.362 L2056.27,557.941 L2056.39,556.986 L2055.49,557.081 L2020.16,415.818 L2019.56,406.012 L2020.86,415.315 L2020.32,415.839 L2019.09,381.665 L2024.49,337.777 L2019.09,381.665 L2024.49,337.72 L2024.22,331.344 L2024.84,323.045 L2024.9,320.748 L2027.14,313.917 L2025.91,322.722 L2037.37,116.809 L2034.69,111.644 L2033.36,109.104 L2032.69,107.834 L2033.27,40.3279 L2029.61,-73.5013 L2033.27,40.3279 L2029.61,-73.5013 L2029.49,-74.6496 L2029.41,-75.496 L2017.66,-86.406 L2024.72,-84.4903 L2034.75,-35.3402 L2034.87,-33.1591 L2035,-32.0301 L2035.03,-30.7336 L2035.03,-29.5426 L2035.13,-28.4514 L2035.26,-27.5086 L2035.42,-25.9582 L2035.55,-24.8973 L2035.68,-23.7822 L2035.64,104.112 L2035.12,105.637 L2035.31,103.673 L2035.32,104.326 L2035.4,105.814 L2036.5,109.581 L2039.44,123.435 L2023.29,343.749 L2021.11,383.917 L2057.82,567.638 L2058,568.486 L2060.01,575.369 L2060.53,576.42 L2062.57,577.2 L2063.02,581.894 L2127.29,743.88 L2127.63,744.956 L2128.06,746.135 L2128.45,747.251 L2128.82,748.387 L2129.24,749.521 L2129.63,750.67 L2130.07,751.788 L2130.44,752.87 L2130.81,753.898 L2132.07,905.576 L2131.69,906.149 L2103.18,961.294 L2103.87,961.015 L2092.95,991.529 L2092.95,992.38 L2092.87,993.157 L2092.64,993.79 L2061.53,987.489 L2060.91,987.204 L2039.98,1010.66 L2028.03,1021.05 L1783.26,1088.74 L1789.03,1088.56 L1793.02,1088.44 L1795.78,1088.35 L2028.03,1021.05 L1600.85,1167.1 L2028.03,1021.05 L1614.96,1221.69 L1547.28,1402.1 L1545.08,1403.61 L1543.48,1404.64 L1542.15,1405.49 L1539.67,1408.16 L1540.14,1407.25 L1537.64,1409.17 L1536.45,1410.41 L1535.38,1411.51 L1360.84,1492.03 L1361.53,1490.15 L1361.65,1490.97 L1360.84,1492.03 L1361.65,1490.97 L1364.07,1493.11 L1348.95,1518.9 L1348.69,1519.71 L1348.91,1520.33 L1348.8,1520.97 L1332.07,1492.1 L1331.34,1492.04 L1342.97,1522.76 L1341.62,1522.26 L1339.97,1522.21 L1341.3,1522.71 L1341.66,1522.18 L1341.76,1522.65 L1362.33,1496.39 L1366.49,1495.8 L1367.25,1495.94 L1435.08,1492.32 L1448.3,1490.29 L1449.19,1490.15 L1449.94,1490.04 L1451.98,1490.94 L1454.15,1491.88 L1454.85,1491.63 L1475.63,1547.56 L1474.86,1548.69 L1475.7,1549.46 L1506.83,1552.45 L1512.67,1552.51 L1511.86,1552.4 L1512.35,1551.98 L1513.23,1552.21 L1513.92,1552.18 L1514.59,1552.07 L1524.8,1557.38 L1542.71,1538.06 L1543.27,1538.6 L1543.62,1538.03 L1533.38,1541.03 L1577.68,1533.05 L1578.31,1534.84 L1656.6,1574.44 L1675.33,1649.03 L1674.02,1649.34 L1674.6,1648.42 L1670.86,1715.09 L1669.55,1718.47 L1670.55,1719.41 L1671.28,1719.77 L1670.88,1720.43 L1670.75,1721.13 L1670.65,1722.26 L1669.12,1750.71 L1670.79,1749.96 L1668.15,1750.91 L1669.83,1762.69 L1697.35,1810.82 L1697.04,1812.28 L1696.13,1812.62 L1697.17,1812.8 L1697.72,1813.19 L1698.23,1813.72 L1742.43,1951.12 L1751.95,2001.59 L1751.85,2004.58 L1751.79,2006.06 L1748.94,1966.4 L1749.54,1967.51 L1749.77,1968.41 L1750.09,1969.33 L1750.5,1970.25 L1750.95,1971.11 L1751.33,1972.08 L1751.79,1973.03 L1755.4,1979.94 L1755.4,1979.94 L1786,2305.38 L1788.6,2310.51 L1789.9,2313.08 L1788.26,2300.48 L1787.42,2294.14 L1787,2290.97 L1783.62,2286.11 L1749.05,2582.81 L1737.78,2601.37 L1736.95,2601.33 L1735.6,2602.05 L1734.97,2602.8 L1733.06,2604.18 L1732.14,2604.82 L1731.14,2605.52 L1730.11,2606.23 L1729.08,2606.95 L1728.03,2607.67 L1726.99,2608.34 L1725.99,2609.08 L1719.29,2614.69 L1710.5,2731.28 L1486.45,2731.21 L1482.69,2625.49 L1481.77,2616.72 L1481.75,2615.63 L1481.74,2614.63 L1482.72,2613.76 L1483.03,2612.4 L1482.94,2611.59 L1482.97,2610.77 L1482.93,2610.02 L1482.89,2609.26 L1482.86,2608.43 L1482.85,2607.67 L1399.17,2359.3 L1386.21,2340.05 L1382.99,2335.46 L1380.36,2331.71 L1365.79,2314.76 L1364.74,2313.09 L1364.21,2311.97 L1363.3,2310.98 L1362.27,2309.86 L1361.45,2308.87 L1225.28,2057.66 L1223.72,2054.05 L1213.59,1996.21 L1212.76,1993.94 L1212.11,1992.93 L1211.04,1990.68 L1209.48,1987.75 L1208.94,1986.49 L1208.51,1984.85 L1208.08,1983.34 L1143.2,1794.05 L1142.72,1792.77 L1142.48,1791.5 L1142.37,1790.82 L1142.09,1790.01 L1141.7,1788.65 L1141.46,1787.88 L1101.31,1674.46 L1104.09,1577.81 L1096.46,1579.65 L1097.44,1578.94 L1098.08,1577.46 L1098.66,1576.95 L1099.26,1576.39 L1099.71,1575.9 L1178.37,1516.07 L1196.3,1506.5 L1199.06,1504.33 L1205.13,1502.78 L1206.76,1502.12 L1207.76,1501.9 L1208.78,1501.48 L1209.79,1500.79 L1210.99,1500.14 L1211.91,1499.25 L1213.15,1498.87 L1214.36,1498.33 L1215.52,1497.68 L1359.18,1492.51 L1361.76,1493.18 L1363.72,1493.76 L1365.2,1492.88 L1363.89,1491.13 L1363.22,1490.88 L1341.75,1522.09 L1341.06,1522.67 L1363.28,1495.34 L1363.47,1496.83 L1364.09,1497.02 L1364.71,1497.3 L1365.36,1497.45 L1364.57,1495.27 L1414.25,1492.84 L1415.72,1492.79 L1416.94,1493.14 L1417.86,1493.3 L1418.7,1493.29 L1419.54,1493.22 L1420.38,1493.09 L1421.25,1493.06 L1422.05,1493 L1422.8,1492.97 L1475.89,1527.69 L1476.53,1527.71 L1478.44,1561.77 L1479.5,1563.11 L1477.98,1559.34 L1513.76,1551.01 L1514.25,1551.59 L1527.78,1553.66 L1527.94,1553.76 L1535.13,1541.34 L1535.86,1541.13 L1534.88,1544.28 L1537.3,1542.87 L1534.85,1544.29 L1531.01,1555.35 L1531.07,1555.33 L1487.99,1559.26 L1483.14,1562.26 L1488.51,1560.87 L1486.59,1561.34 L1485.77,1561.29 L1485.09,1562.02 L1462.39,1509.74 L1462.61,1510.48 L1461.64,1510.01 L1460.96,1510.72 L1431.72,1492.34 L1434.81,1488.38 L1430.8,1491.99 L1429.62,1492.06 L1430.43,1491.25 L1430.2,1489.94 L1431.67,1492.48 L1431.19,1492.95 L1358.88,1498.07 L1360.52,1498.71 L1342.78,1522.83 L1339.86,1524.19 L1341.47,1522.39 L1359.23,1502.89 L1360.19,1498.66 L1360.88,1499.42 L1360.81,1500.34 L1361.51,1500.18 L1362.12,1499.8 L1423.17,1493.39 L1443.38,1491.51 L1428.61,1492.54 L1425.87,1491.24 L1428.16,1492.09 L1480.26,1532.57 L1513.85,1552.48 L1516.43,1553.12 L1516.19,1551.26 L1516.55,1551.84 L1527.3,1553.39 L1527.29,1553.54 L1483.94,1562.62 L1480.19,1562.22 L1477.84,1560.76 L1477.49,1560.1 L1476.85,1559.89 L1451.26,1491.57 L1446.5,1490.27 L1447.12,1489.89 L1445.13,1492.37 L1362.16,1499.71 L1361.56,1500.68 L1360.72,1502.47 L1349.81,1515.92 L1341.88,1520.92 L1341.81,1522.28 L1340.99,1522.35 L1394.74,1494.24 L1395.7,1493.93 L1396.73,1495.13 L1397.46,1494.58 L1398.57,1494.7 L1399.98,1494.94 L1401.29,1494.95 L1402.13,1494.96 L1403.1,1494.96 L1404.05,1494.97 L1405.15,1494.98 L1451.47,1490.99 L1503.17,1497.46 L1500.94,1490.07 L1501.87,1490.08 L1503.35,1490.89 L1504.52,1493.29 L1503.94,1492.87 L1504.61,1492.69 L1505.05,1493.42 L1505.4,1494.49 L1501.34,1524.82 L1505.29,1517.91 L1500.8,1525.83 L1486.4,1496.15 L1452.97,1490.85 L1453.79,1490.85 L1454.72,1491.64 L1453.95,1490.41 L1394.59,1494.13 L1383.79,1493.43 L1381.87,1493.12 L1380.4,1492.89 L1378.83,1495.89 L1378.14,1495.91 L1376.46,1496.24 L1375.7,1496.4 L1374.78,1496.07 L1374.1,1496.22 L1373.34,1496.26 L1372.66,1496.06 L1372.13,1494.41 L1341.43,1522.35 L1342.28,1522.11 L1342.78,1522.83 L1336.17,1553.67 L1335.72,1554.52 L1335.51,1555.26 L1343.09,1584.57 L1343.88,1584.72 L1344.56,1584.82 L1338.21,1553.28 L1338.52,1552.54 L1344.1,1521.23 L1343.69,1520.72 L1364.64,1497.16 L1365.28,1497.05 L1417.87,1493.68 L1417.42,1494.75 L1420.41,1493.89 L1420.93,1492.24 L1421.67,1493.41 L1422.19,1492.85 L1423.42,1492.57 L1504.02,1499.73 L1504.13,1500.74 L1470.25,1492.15 L1469.63,1492.01 L1468.53,1491.86 L1467.47,1491.56 L1466.35,1491.14 L1465.42,1490.86 L1394.97,1494.22 L1389.75,1494.47 L1394.97,1494.22 L1389.72,1494.47 L1392.51,1497.03 L1392.26,1496.14 L1391.65,1494.57 L1390.85,1494.65 L1390.6,1493.64 L1389.67,1493.64 L1388.55,1493.63 L1341.88,1520.92 L1340.06,1520.02 L1340.77,1520.21 L1341.9,1522.01 L1341.07,1520.9 L1342.53,1522.9 L1338.61,1553.53 L1338.36,1554.15 L1336.68,1554.23 L1336.46,1554.91 L1336.25,1555.56 L1335.98,1556.41 L1363.91,1588.25 L1367.41,1588.5 L1498.99,1613.38 L1367.41,1588.5 L1667.3,1690.49 L1670.29,1695.21 L1671.34,1695.83 L1671.06,1730.51 L1670.59,1728.63 L1669.38,1728.62 L1669.04,1729.28 L1646.71,1750.73 L1645.51,1748.88 L1646.98,1749.18 L1646.44,1749.71 L1614.65,1757.82 L1613.62,1756.15 L1613.01,1756.85 L1612.39,1757.15 L1611.78,1757.69 L1611.04,1757.9 L1550.05,1738.08 L1531.6,1731.13 L1529.92,1730.99 L1528.57,1730.89 L1533.19,1731.03 L1532.02,1727.06 L1531.52,1728.83 L1530.94,1728.31 L1456.95,1711.9 L1455.61,1711.64 L1452.93,1709.16 L1453.27,1710.45 L1452.48,1710.2 L1451.56,1710.03 L1450.71,1709.88 L1375.43,1678.02 L1374.9,1676.7 L1374.62,1675.21 L1369.03,1593.72 L1368.87,1591.63 L1370.07,1591.43 L1370.83,1591.64 L1370.9,1590.93 L1370.77,1590.12 L1347.26,1522.11 L1348.48,1520.19 L1347.91,1520.54 L1342.5,1522.9 L1341.88,1520.92 L1341.88,1520.92 L1342.76,1520.63 L1366.44,1496.01 L1367.1,1496.5 L1388.25,1494.32 L1411.63,1495.51 L1413.15,1494.25 L1413,1491.97 L1412.93,1493.27 L1460.5,1500.56 L1460.84,1501.54 L1461.05,1502.23 L1461.15,1503 L1460.55,1503.7 L1492.26,1556 L1492.76,1554.04 L1491.82,1553.49 L1493.85,1555.97 L1494.01,1555.28 L1494.28,1554.51 L1523.92,1556.68 L1524.91,1557.59 L1527.05,1554.61 L1525.09,1557.45 L1524.73,1557.45 L1525.27,1557.77 L1525.26,1556.53 L1525.11,1557.37 L1547.78,1535.35 L1547.06,1535.69 L1517.59,1545.52 L1516.56,1546.42 L1516.05,1546.92 L1515.97,1547.61 L1515.57,1548.4 L1473.6,1550.89 L1474.59,1550.83 L1473.9,1551.92 L1474.63,1551.85 L1460.96,1495.53 L1459.91,1490.52 L1460.96,1495.53 L1459.91,1490.52 L1460.96,1491.24 L1461.49,1492.82 L1394.29,1494.24 L1390.86,1493.72 L1394.29,1494.24 L1390.86,1493.72 L1392.44,1494.51 L1390.84,1493.33 L1389.88,1493.57 L1388.8,1493.6 L1387.54,1493.58 L1386.18,1493.61 L1385.48,1493.65 L1352.25,1504.58 L1350.65,1510.51 L1350.63,1511.66 L1350.01,1510.07 L1349.66,1509.04 L1349.58,1508.3 L1353.38,1506.55 L1353.45,1507.2 L1341.37,1522.35 L1388.35,1494.3 L1391.29,1494.82 L1392.24,1494.66 L1393.05,1494.73 L1393.98,1494.72 L1394.63,1494.74 L1454.9,1490.88 L1463.72,1492.63 L1464.92,1493.11 L1465.81,1493.47 L1459.35,1500.77 L1460.21,1501.23 L1460.55,1501.83 L1462.52,1509.84 L1464.41,1515.33 L1464.15,1514.2 L1462.16,1515.04 L1461.02,1514.44 L1461.74,1514.61 L1462.39,1514.8 L1477.18,1544.84 L1476.33,1545.31 L1475.72,1546.14 L1515.1,1552.76 L1515.91,1552.59 L1528.69,1560.86 L1527.25,1553.5 L1526.42,1552.99 L1527.25,1553.5 L1492.32,1554.31 L1491.71,1554.72 L1491.39,1555.52 L1490.56,1556.38 L1490.47,1557.19 L1489.8,1557.61 L1489.14,1557.92 L1488.46,1558.12 L1487.54,1558.54 L1492.3,1554.11 L1486.39,1559.42 L1485.8,1559.82 L1487.36,1561.33 L1486.94,1562.73 L1484.45,1561.15 L1483.89,1561.58 L1483.2,1562.14 L1482.57,1562.62 L1482.02,1562.94 L1472.43,1549.79 L1472.96,1551.36 L1478.43,1561.93 L1477.46,1559.13 L1514.57,1550.44 L1543.28,1536.78 L1529.78,1554.14 L1528.2,1555.35 L1529.73,1554.6 L1525.67,1552.66 L1527.05,1554.61 L1525.72,1552.85 L1514.77,1550.79 L1514.5,1551.67 L1513.68,1552.05 L1512.94,1551.71 L1478.32,1529.53 L1477.77,1528.51 L1476.65,1527.58 L1476.92,1528.26 L1431.26,1492.14 L1429.73,1492.28 L1430.25,1490.98 L1431.97,1493.18 L1431.32,1493.07 L1359.77,1498.96 L1357.68,1500.16 L1355.43,1499.18 L1356.59,1501.26 L1355.91,1501.31 L1345.02,1529.34 L1343.05,1523.07 L1340.76,1521.11 L1341.73,1520.82 L1341.88,1520.92 L1341.88,1520.92 L1342.53,1522.93 L1344.69,1497.61 L1344.77,1496.94 L1316.6,1484.28 L1308.21,1469.94 L1307.21,1467.08 L1251.11,1470.99 L1250.45,1470.08 L1249.65,1469.42 L1249.53,1468.48 L1249.08,1467.59 L1248.82,1466.56 L1242.8,1410.69 L1243.05,1409.77 L1243.59,1410.09 L1238.58,1358.18 L1226.52,1347.49 L1227.17,1350.82 L1227.32,1348.78 L1224.54,1347.88 L1223.95,1348.72 L1223.45,1347.24 L1222.47,1346.74 L1221.49,1346.11 L1180.91,1295.83 L1171.9,1286.39 L1168.67,1283.8 L1166.23,1281.84 L1165.52,1278.94 L1162.85,1277.31 L1162.01,1276.91 L1161.24,1276.41 L1160.5,1275.93 L1159.76,1275.49 L1159.05,1275.06 L1079.56,1254.94 L1111.11,1250.45 L1111.8,1250.36 L1112.49,1250.29 L1113.18,1250.29 L1114.14,1250.3 L1177.51,1289.55 L1178.29,1290.2 L1178.89,1290.58 L1179.37,1291.09 L1180.11,1291.5 L1201.55,1335.84 L1228.52,1352.63 L1229.21,1353.1 L1229.85,1353.58 L1263.1,1402.5 L1263.44,1403.05 L1263.73,1403.78 L1264.09,1404.3 L1264.29,1405.14 L1277.27,1455.57 L1306.17,1468.7 L1306.51,1469.57 L1306.73,1470.21 L1306.87,1470.92 L1307.17,1471.61 L1334.86,1524.9 L1335.78,1524.7 L1336.67,1524.42 L1337.29,1524.09 L1277.24,1455.54 L1361.13,1542.67 L1362.21,1543.03 L1362.96,1543.26 L1363.69,1543.48 L1364.45,1543.61 L1431.96,1550.29 L1470.6,1553.65 L1502.29,1552.76 L1503.01,1552.54 L1503.83,1552.46 L1538.1,1551.22 L1538.06,1551.92 L1541.21,1541.78 L1506.28,1552.67 L1505.61,1552.7 L1504.81,1552.73 L1474.63,1555.06 L1474.11,1554.28 L1473.61,1553.8 L1437.04,1536.71 L1437.26,1535.83 L1437.46,1535.13 L1437.45,1534.35 L1411.88,1492.74 L1411.17,1492.78 L1410.49,1492.84 L1409.61,1492.9 L1408.6,1492.98 L1348.84,1520.82 L1348.24,1520.64 L1347.55,1520.37 L1384.25,1494.26 L1387.9,1494.7 L1388.32,1493.56 L1388.35,1492.02 L1388.74,1492.6 L1389.2,1491.58 L1459.22,1490.62 L1457.61,1488.03 L1458.41,1488.3 L1458.71,1488.86 L1475.25,1549.12 L1474.48,1548.95 L1506.92,1551.86 L1507.69,1551.8 L1508.4,1551.79 L1508.88,1552.36 L1509.8,1552.26 L1510.61,1552.19 L1540.15,1548.86 L1539.4,1549.45 L1502.66,1552.81 L1501.98,1552.98 L1501.65,1553.62 L1469.58,1552.02 L1461.39,1550.26 L1401.04,1577.45 L1407.71,1571.27 L1399.43,1577.33 L1396.59,1579.11 L1339.33,1546.5 L1379.6,1505.9 L1380.63,1505.09 L1381.36,1504.54 L1382.08,1504.19 L1382.89,1504.27 L1420.72,1551.42 L1421.27,1552.02 L1421.74,1552.59 L1422.26,1553.21 L1452.41,1550.9 L1453.34,1550.84 L1454.02,1550.81 L1455.03,1550.81 L1491.71,1557.91 L1492.11,1557.33 L1492.59,1556.83 L1524.13,1555.56 L1527.7,1553.65 L1526.82,1553.91 L1527.67,1553.66 L1537.53,1553.08 L1530.98,1555.14 L1530.93,1555.18 L1492.5,1557.15 L1491.96,1557.57 L1461.23,1549 L1460.36,1548.88 L1459.51,1548.93 L1458.68,1548.93 L1438.09,1522.43 L1438.15,1521.77 L1438.09,1521.1 L1418.73,1491.98 L1418.06,1492.18 L1417.43,1492.23 L1355.92,1497.14 L1355.25,1497.1 L1354.54,1496.95 L1338.25,1523.91 L1338.94,1523.13 L1338.73,1524.08 L1365.25,1496.31 L1364.38,1496.54 L1364.71,1497.46 L1365.46,1497.54 L1419.45,1493.24 L1415.76,1493.31 L1473.55,1525.2 L1475.52,1526.34 L1475.27,1527.23 L1475.8,1527.82 L1477.23,1560.27 L1524.59,1544.27 L1526.49,1544.65 L1528.61,1543.22 L1529.2,1542.9 L1535.65,1539.9 L1534.48,1541.68 L1552.45,1528.97 L1551.7,1529.75 L1552.72,1529.35 L1551.84,1527.67 L1522.92,1545.61 L1520.95,1543.84 L1519.08,1545.78 L1517.25,1543.75 L1477.24,1560.49 L1476.62,1559.91 L1479.68,1559.77 L1477.96,1559.65 L1477.3,1559.62 L1460.85,1495.21 L1460.98,1493.67 L1427.03,1491.97 L1424.21,1492.69 L1421.48,1491.74 L1420.26,1491.69 L1418.95,1491.32 L1417.62,1491.23 L1416.28,1491.16 L1314.77,1467.61 L1275.67,1473.42 L1273.62,1473.68 L1271.8,1473.92 L1268.61,1474.71 L1266.26,1475.23 L1264.21,1475.69 L1162.86,1521.75 L1163.07,1520.62 L1162.86,1521.75 L1163.07,1520.62 L1165.44,1529.41 L1169.87,1557.76 L1169.26,1558.26 L1168.99,1556.35 L1169.22,1558.02 L1164.58,1525.38 L1163.89,1525.2 L1163.98,1526.12 L1192.78,1508.56 L1193.97,1507.94 L1195.21,1507.36 L1196.35,1506.75 L1197.61,1506.08 L1198.79,1505.46 L1199.94,1504.88 L1201,1504.26 L1202.24,1503.55 L1203.42,1502.91 L1204.73,1502.42 L1249.63,1479.06 L1346.86,1514.6 L1350.58,1507.79 L1353.04,1503.27 L1359.54,1491.38 L1353.96,1498.8 L1354.67,1497.44 L1388.87,1494.35 L1388.99,1496.2 L1388.77,1495.48 L1458.36,1490.12 L1500.48,1525.64 L1498.19,1497.45 L1467.41,1491.3 L1465.39,1490.89 L1464.38,1490.68 L1463.66,1491.26 L1463.06,1491 L1389.93,1493.61 L1393.76,1494.71 L1395.32,1495.18 L1393.14,1494.16 L1393.77,1493.78 L1342.7,1520.88 L1343.43,1520.39 L1364.22,1484.94 L1364.59,1484.36 L1365.18,1481.72 L1366.05,1480.86 L1366.35,1480.19 L1366.66,1479.52 L1367.07,1478.86 L1367.41,1478.18 L1367.75,1477.55 L1368.13,1476.87 L1368.46,1476.23 L1368.8,1475.64 L1352.66,1439.01 L1348.92,1435.27 L1346.47,1435.7 L1346.35,1434.47 L1347.61,1433.83 L1346.91,1433.31 L1346.11,1432.93 L1363.54,1307.64 L1364,1306.77 L1364.56,1305.81 L1364.86,1305.24 L1365.18,1304.64 L1365.5,1304.01 L1365.86,1303.4 L1366.21,1302.75 L1366.53,1302.07 L1366.83,1301.41 L1387.67,1255.91 L1388.14,1255.03 L1387.88,1262.49 L1387.86,1260.15 L1387.68,1262.61 L1387.41,1262.04 L1398.93,1219.01 L1401.89,1215.43 L1402.7,1214.43 L1403.25,1213.9 L1403.85,1213.18 L1381.06,1184.39 L1379.22,1182.63 L1379.15,1181.86 L1378.33,1181.2 L1377.67,1181.14 L1376.39,1181.14 L1333.01,1200.37 L1332.16,1202.86 L1332.18,1204.09 L1331.61,1204.68 L1331.03,1205.15 L1330.54,1205.61 L1329.84,1206.22 L1329,1206.54 L1290.33,1240.31 L1290.79,1240.78 L1312.98,1218.14 L1313.33,1217.51 L1335.93,1196.31 L1336.61,1196.18 L1304.01,1200.5 L1305.46,1199.54 L1342.23,1191.89 L1343.42,1185.96 L1343.99,1186.62 L1344.62,1186.81 L1411.53,1205.92 L1412.32,1205.46 L1409.27,1207.62 L1407.06,1210.03 L1407.16,1209.31 L1378.25,1276.68 L1377.87,1279.52 L1371.65,1289.54 L1371.05,1291.59 L1370.67,1292.55 L1370.32,1293.18 L1369.99,1293.86 L1369.59,1294.52 L1369.25,1295.18 L1368.88,1295.82 L1368.53,1296.45 L1308.35,1384.62 L1314.65,1395.89 L1316.72,1395.18 L1315.12,1393.84 L1315.57,1394.47 L1316.36,1395.31 L1316.87,1395.98 L1317.69,1396.64 L1318.53,1397.49 L1350.71,1436.42 L1375.03,1466.75 L1371.39,1462.89 L1370.8,1463.42 L1370.73,1464.08 L1371.1,1464.78 L1340.42,1520.57 L1341.77,1520.77 L1358.57,1494.61 L1359.08,1493.89 L1359.03,1495.27 L1390.66,1491.73 L1446.17,1487.35 L1444.64,1487.02 L1444.58,1488.23 L1444.68,1487.26 L1446.62,1487.11 L1613.58,1316.45 L1613.45,1314.99 L1613.31,1313.72 L1612.67,1309.6 L1613.7,1309.24 L1609.95,1309.77 L1610.08,1308.65 L1611.83,1308.65 L1612.74,1227.11 L1725.49,1079.24 L1725.34,1078.45 L1612.74,1227.11 L1725.26,1078.06 L1612.74,1227.11 L1416.97,836.379 L1302.76,742.666 L1303.27,742.11 L1302.56,742.043 L1309.19,711.673 L1309.24,710.978 L1320.86,682.229 L1320.88,681.576 L1320.81,650.515 L1320.76,649.859 L1317.09,616.383 L1319.9,630.645 L1329.82,725.625 L1330.92,736.096 L1331.56,742.286 L1319.9,630.645 L1411.96,876.209 L1319.9,630.645 L1586.58,1053.24 L1319.9,630.645 L1724.87,1078.27 L1674.42,1093.06 L1611.74,1218.73 L1613.79,1209.98 L1614.89,1205.41 L1615.44,1203.13 L1611.23,1303.38 L1581.19,1370.67 L1581.99,1371.31 L1581.23,1371.17 L1578.32,1372.38 L1577.63,1372.75 L1418.11,1491.21 L1408.24,1495.53 L1407.6,1495.85 L1405.6,1494.77 L1404.79,1494.66 L1401.34,1491.94 L1400.31,1492.41 L1399.55,1493.04 L1398.11,1492.16 L1396.75,1492.59 L1395.08,1492.3 L1394.1,1490.56 L1393.18,1491.43 L1350.88,1497.1 L1348.83,1496.67 L1348.18,1496.83 L1349.01,1496.56 L1349.41,1494.66 L1346.15,1496.2 L1336.29,1525.21 L1340.89,1522.15 L1356.36,1500.45 L1357.18,1499.89 L1357.8,1499.45 L1358.44,1499.08 L1359.14,1498.93 L1427.12,1493.64 L1427.91,1493.64 L1428.74,1493.64 L1435.06,1545.11 L1434.99,1545.8 L1434.85,1546.54 L1434.71,1547.21 L1480.2,1563.04 L1534.2,1565.76 L1534.49,1565 L1534.44,1564.11 L1534.34,1563.28 L1534.25,1562.47 L1545.58,1536.21 L1546.36,1536.11 L1547.23,1535.75 L1547.81,1535.44 L1527.27,1553.54 L1524.64,1557.46 L1523.6,1556.96 L1524.46,1557.9 L1524.72,1558.85 L1525.35,1559.91 L1524.98,1557.52 L1525.83,1560.54 L1526.47,1561 L1527.27,1561.58 L1526.32,1557.17 L1526.05,1558.55 L1513.03,1552.46 L1512.3,1552.35 L1476.71,1559.23 L1474.71,1556.34 L1474.86,1554.79 L1474.25,1553.54 L1460.62,1499.59 L1461.09,1500.13 L1461.52,1499.32 L1461.18,1499.97 L1464.15,1498.92 L1462.77,1498.96 L1461.18,1499.1 L1315.39,1468.42 L1247.01,1479.94 L1247.8,1479.8 L1158.21,1519.26 L1157.51,1519.29 L1250.16,1479.12 L1250.63,1476.14 L1358.01,1497.79 L1359.65,1498.02 L1356.73,1497.89 L1355.56,1497.98 L1356.66,1497.23 L1342.3,1523.88 L1341.96,1521.62 L1361.96,1499.07 L1362.24,1498.36 L1428.29,1492.79 L1427.84,1492.3 L1428.16,1492.91 L1481.62,1536.77 L1480.02,1538.67 L1479.42,1538.98 L1512.57,1552.33 L1527.84,1553.7 L1527.63,1553.6 L1527.6,1553.8 L1527.68,1553.79 L1526.79,1553.51 L1526.21,1561.68 L1525.99,1552.96 L1525.63,1552.62 L1482.51,1561.83 L1481.82,1561.54 L1481.37,1560.82 L1443.55,1549.99 L1442.81,1550.04 L1442.14,1550.25 L1437.87,1495.75 L1437.88,1495.06 L1437.47,1494.38 L1366.89,1494.67 L1366.23,1494.89 L1365.53,1495.08 L1347.33,1519.91 L1347.07,1520.73 L1346.63,1521.43 L1345.83,1521.66 L1341.96,1521.62 L1341.38,1522.26 L1341.96,1521.62 L1335.65,1502.88 L1337.58,1552.21 L1335.27,1557.1 L1336.11,1557.67 L1337.2,1558.12 L1338.33,1557.01 L1338.1,1557.79 L1326.93,1591.54 L1326.81,1592.26 L1325.49,1593.03 L1325.15,1593.8 L1326.02,1593.88 L1326.65,1594.15 L1315.96,1623.3 L1329.46,1639.45 L1329.24,1634.26 L1328.83,1634.88 L1313.09,1612.36 L1312.91,1611.74 L1312.74,1611.07 L1312.62,1610.41 L1312.25,1609.76 L1326.36,1583.52 L1326.59,1582.69 L1326.87,1581.95 L1327.03,1581.17 L1344.68,1520.16 L1342.35,1521.66 L1344,1520.03 L1342.35,1521.66 L1349.16,1517.75 L1342.76,1524.51 L1366.49,1497.11 L1454.66,1490.6 L1474.49,1527.98 L1477.67,1516.31 L1478.05,1519.48 L1477.56,1517.76 L1478.18,1518.47 L1477.86,1519.35 L1477.91,1520.2 L1477.58,1521.09 L1477.98,1561.03 L1477.09,1560.16 L1514.24,1552.25 L1513.76,1550.75 L1527.66,1553.57 L1525.13,1557.83 L1524.89,1558.58 L1524.76,1559.26 L1543.15,1536.96 L1537.54,1553.13 L1530.95,1555.1 L1517.12,1548.31 L1513.31,1552.5 L1492.44,1554.61 L1482.15,1567.53 L1478.46,1561.53 L1477.93,1560.89 L1479.17,1561.17 L1477.59,1560.08 L1478.23,1529.45 L1475.92,1528.44 L1477.28,1526.06 L1476.34,1526.28 L1475.51,1525.98 L1474.8,1525.48 L1423.19,1492.78 L1422.25,1492.38 L1421.22,1492.68 L1420.47,1492.92 L1419.81,1492.79 L1359.74,1497.87 L1361.42,1498.28 L1360.89,1498.66 L1343.11,1525.08 L1342.79,1524.36 L1342.35,1521.66 L1370.22,1508.53 L1370.85,1508.39 L1371.79,1508.38 L1372.44,1508.3 L1373.11,1508.22 L1396.57,1543.52 L1397.1,1543.96 L1397.76,1544.49 L1444.11,1549.88 L1444.82,1549.77 L1445.59,1549.59 L1489.57,1556.65 L1520.73,1550.86 L1489.74,1557.62 L1488.93,1557.57 L1488.38,1557.88 L1487.62,1558.39 L1437.21,1550.26 L1436.58,1550.07 L1436.09,1549.59 L1431.67,1493.29 L1430.91,1493.35 L1430.11,1493.46 L1381.06,1495.08 L1380.37,1495.08 L1379.55,1495.05 L1350.24,1513.98 L1353.12,1505.25 L1349.03,1509.96 L1350.4,1509.57 L1352.3,1508.29 L1352.83,1507.6 L1353.12,1508.18 L1316.48,1468.33 L1317.54,1470.17 L1170.97,1557.48 L1171.71,1556.86 L1171.02,1556.74 L1165.46,1528.01 L1163.98,1525.54 L1165.46,1528.01 L1163.98,1525.54 L1174.84,1520.25 L1273,1467.75 L1273.84,1468.28 L1274.5,1468.71 L1278.88,1468.82 L1278,1468.38 L1279.31,1468.38 L1361.61,1493.39 L1360.06,1495.02 L1361.61,1493.39 L1360.04,1495.04 L1361.16,1494.39 L1359.88,1493.81 L1341.91,1519.99 L1341.49,1521.76 L1342.35,1521.66 L1362.54,1498.03 L1363.36,1497.63 L1364.16,1497.3 L1364.8,1497.15 L1435.73,1493 L1436.4,1493.33 L1474.75,1493.8 L1475.47,1493.98 L1476.41,1494.21 L1477.12,1494.48 L1501.07,1525.66 L1486.57,1497.34 L1485.76,1497.17 L1485.12,1496.91 L1484.28,1496.55 L1397.25,1493.69 L1396.4,1493.61 L1395.62,1493.6 L1394.85,1493.58 L1393.98,1493.54 L1343.45,1520.55 L1342.87,1524.09 L1343.36,1524.22 L1361.23,1496.32 L1361.85,1496.12 L1362.61,1495.84 L1363.41,1495.54 L1445.46,1490.35 L1446.15,1490.26 L1446.81,1490.18 L1447.46,1490.19 L1499.47,1512.99 L1499.47,1513.8 L1499.52,1514.54 L1499.4,1515.4 L1475.35,1492.09 L1474.35,1491.76 L1473.66,1491.64 L1472.9,1491.32 L1472.18,1491.09 L1471.35,1490.87 L1367.83,1495.02 L1366.95,1495.13 L1366.14,1495.25 L1365.31,1495.48 L1364.56,1495.58 L1343.12,1514.97 L1342.85,1515.72 L1342.64,1516.4 L1342.38,1516.99 L1342.35,1521.66 L1341.89,1522.17 L1342.35,1521.66 L1341.27,1522.5 L1340.49,1522.07 L1341.02,1522.7 L1341.66,1522.06 L1340.98,1521.05 L1341.43,1522.55 L1342.03,1521.94 L1364.97,1491.94 L1319.42,1469.93 L1323.02,1469.48 L1322.57,1470.7 L1254.06,1478.23 L1172.06,1520.19 L1171.58,1520.83 L1116.61,1558.69 L1069.68,1598.23 L1116.61,1558.69 L929.219,1620.34 L923.4,1621.36 L791.658,1638.62 L725.446,1687.02 L724.749,1687.59 L632.86,1707.45 L573.464,1700.48 L632.86,1707.45 L573.464,1700.48 L571.12,1700.09 L569.475,1699.82 L558.595,1698.76 L544.313,1703.5 L542.453,1703.98 L536.189,1707.55 L530.054,1715.01 L528.43,1717.2 L536.518,1707.11 L554.949,1696.17 L549.537,1694.62 L556.104,1694.9 L795.414,1639.27 L803.63,1637.79 L808.347,1637.05 L811.49,1636.56 L821.173,1635.97 L828.683,1634.59 L1112.4,1565.32 L1166.78,1523.01 L1168.9,1522.55 L1203.29,1512.63 L1205.19,1510.23 L1208.59,1508.18 L1211.16,1500.5 L1216.43,1497.46 L1219.42,1496.12 L1444.52,1487.71 L1444.51,1490.51 L1443.74,1488.97 L1444.68,1489.07 L1445.35,1488.95 L1470.12,1521.37 L1475.39,1519.01 L1472.99,1522.91 L1472.64,1523.84 L1473.19,1522.84 L1477.15,1560.2 L1480.99,1564.23 L1478.01,1561.21 L1518.58,1553.96 L1518.32,1551.82 L1519.04,1551.88 L1524.23,1556.77 L1526.56,1555.02 L1523.54,1554.02 L1523.5,1552.93 L1522.86,1556.13 L1485.48,1561.08 L1487.31,1560.33 L1487,1559.58 L1475.35,1526.96 L1474.76,1526.26 L1473.83,1525.99 L1473.68,1524.89 L1472.35,1523.74 L1471.66,1523.69 L1471.18,1522.54 L1390.62,1494.89 L1390.61,1493.29 L1388.96,1493.39 L1381.83,1494.33 L1379.85,1494.06 L1378.2,1494.55 L1378.63,1493.8 L1377.91,1494.03 L1377.06,1493.94 L1376.23,1493.9 L1375.51,1493.92 L1374.84,1493.83 L1374.11,1493.81 L1342.35,1521.66 L1368.15,1508.97 L1368.97,1508.74 L1369.76,1508.62 L1370.55,1508.53 L1409.41,1546.78 L1410.12,1546.52 L1410.89,1546.25 L1411.75,1545.96 L1412.54,1545.82 L1472.04,1552.04 L1511.45,1551.67 L1526.7,1553.99 L1541.29,1538.14 L1504.75,1552.56 L1505.13,1553.48 L1505.15,1552.78 L1525.71,1552.21 L1528.72,1556.5 L1526.41,1562.02 L1534.38,1540.83 L1535.07,1540.41 L1535.81,1540.11 L1536.55,1540.01 L1560.55,1522.84 L1561.27,1522.43 L1562.01,1522.11 L1522.29,1487.19 L1522.83,1487.61 L1523.41,1487.99 L1524,1488.38 L1473.83,1491.55 L1473.11,1491.25 L1472.28,1490.96 L1471.51,1490.78 L1379.23,1493.15 L1378.35,1493.18 L1377.55,1493.19 L1376.71,1493.13 L1375.87,1493.11 L1344.22,1520.05 L1342.35,1521.66 L1341.53,1522.37 L1342.35,1521.66" fill-rule="evenodd"/>
  </g>
  <g stroke="#000000" font-family="MS Shell Dlg 2" fill="none" stroke-width="1" stroke-linecap="square" font-style="normal" font-size="34.375" transform="matrix(0.999751,0,0,0.999751,0,0)" stroke-linejoin="bevel" font-weight="400" stroke-opacity="1"/>
  <g stroke="#000000" font-family="MS Shell Dlg 2" fill="none" stroke-width="1" stroke-linecap="square" font-style="normal" font-size="34.375" transform="matrix(11.8081,0,0,11.8081,0,0)" stroke-linejoin="bevel" font-weight="400" stroke-opacity="1"/>
  <g stroke="#000000" font-family="MS Shell Dlg 2" fill="none" stroke-width="1" stroke-linecap="square" font-style="normal" font-size="34.375" transform="matrix(11.8081,0,0,11.8081,0,0)" stroke-linejoin="bevel" font-weight="400" stroke-opacity="1"/>
  <g stroke="#000000" font-family="MS Shell Dlg 2" fill="none" stroke-width="1" stroke-linecap="square" font-style="normal" font-size="34.375" transform="matrix(11.8081,0,0,11.8081,0,0)" stroke-linejoin="bevel" font-weight="400" stroke-opacity="1"/>
  <g stroke="#000000" font-family="MS Shell Dlg 2" fill="none" stroke-width="1" stroke-linecap="square" font-style="normal" font-size="34.375" transform="matrix(1,0,0,1,0,0)" stroke-linejoin="bevel" font-weight="400" stroke-opacity="1"/>
  <g stroke="#000000" font-family="MS Shell Dlg 2" fill="none" stroke-width="1" stroke-linecap="square" font-style="normal" font-size="34.375" transform="matrix(11.8081,0,0,11.8081,0,0)" stroke-linejoin="bevel" font-weight="400" stroke-opacity="1"/>
  <g stroke="#000000" font-family="MS Shell Dlg 2" fill="none" stroke-width="1" stroke-linecap="square" font-style="normal" font-size="34.375" transform="matrix(11.8081,0,0,11.8081,0,0)" stroke-linejoin="bevel" font-weight="400" stroke-opacity="1"/>
  <g stroke="#000000" font-family="MS Shell Dlg 2" fill="none" stroke-width="1" stroke-linecap="square" font-style="normal" font-size="34.375" transform="matrix(11.8081,0,0,11.8081,0,0)" stroke-linejoin="bevel" font-weight="400" stroke-opacity="1"/>
  <g stroke="#000000" font-family="MS Shell Dlg 2" fill="none" stroke-width="1" stroke-linecap="square" font-style="normal" font-size="34.375" transform="matrix(11.8081,0,0,11.8081,0,0)" stroke-linejoin="bevel" font-weight="400" stroke-opacity="1"/>
  <g stroke="#000000" font-family="MS Shell Dlg 2" fill="none" stroke-width="1" stroke-linecap="square" font-style="normal" font-size="34.375" transform="matrix(1,0,0,1,0,0)" stroke-linejoin="bevel" font-weight="400" stroke-opacity="1"/>
 </g>
 <metadata>
  <rdf:RDF xmlns:dc="http://purl.org/dc/elements/1.1/" xmlns:rdf="http://www.w3.org/1999/02/22-rdf-syntax-ns#" xmlns:rdfs="http://www.w3.org/2000/01/rdf-schema#">
   <rdf:Description dc:date="2024-09-25T09:46:49" dc:title="" dc:identifier="" dc:description="" dc:format="image/svg+xml">
    <dc:creator>
     <rdf:Bag>
      <rdf:li>Michele</rdf:li>
     </rdf:Bag>
    </dc:creator>
    <dc:publisher>
     <rdf:Bag>
      <rdf:li>QGIS 3.28.15-Firenze</rdf:li>
     </rdf:Bag>
    </dc:publisher>
    <dc:subject>
     <rdf:Bag/>
    </dc:subject>
   </rdf:Description>
   <cc:Work rdf:about="">
    <dc:format>image/svg+xml</dc:format>
    <dc:title></dc:title>
    <dc:date>2024-09-25T09:46:49</dc:date>
    <dc:identifier></dc:identifier>
    <dc:description></dc:description>
    <dc:creator>
     <cc:Agent>
      <dc:title>Michele</dc:title>
     </cc:Agent>
    </dc:creator>
    <dc:publisher>
     <cc:Agent>
      <dc:title>QGIS 3.28.15-Firenze</dc:title>
     </cc:Agent>
    </dc:publisher>
   </cc:Work>
  </rdf:RDF>
 </metadata>
</svg>
