<?xml version='1.0' encoding='UTF-8' standalone='no'?>
<svg xmlns="http://www.w3.org/2000/svg" version="1.2" xmlns:xlink="http://www.w3.org/1999/xlink" width="296.926mm" viewBox="0 0 3507 2480" xmlns:cc="http://creativecommons.org/ns#" height="209.973mm" baseProfile="tiny">
 <defs/>
 <g stroke="black" fill-rule="evenodd" fill="none" stroke-width="1" stroke-linecap="square" stroke-linejoin="bevel">
  <g stroke="#000000" font-family="MS Shell Dlg 2" fill="none" stroke-width="1" stroke-linecap="square" font-style="normal" font-size="34.375" transform="matrix(1,0,0,1,0,0)" stroke-linejoin="bevel" font-weight="400" stroke-opacity="1"/>
  <g stroke="#000000" font-family="MS Shell Dlg 2" fill="none" stroke-width="1" stroke-linecap="square" font-style="normal" font-size="34.375" transform="matrix(1,0,0,1,0,0)" stroke-linejoin="bevel" font-weight="400" stroke-opacity="1"/>
  <g stroke="#000000" font-family="MS Shell Dlg 2" fill="none" stroke-width="1" stroke-linecap="square" font-style="normal" font-size="34.375" transform="matrix(11.8081,0,0,11.8081,0,0)" stroke-linejoin="bevel" font-weight="400" stroke-opacity="1"/>
  <g stroke="#000000" font-family="MS Shell Dlg 2" fill="none" stroke-width="1" stroke-linecap="square" font-style="normal" font-size="34.375" transform="matrix(0.999751,0,0,0.999751,0,0)" stroke-linejoin="bevel" font-weight="400" stroke-opacity="1"/>
  <g stroke="none" font-family="MS Shell Dlg 2" fill="#ffffff" font-style="normal" fill-opacity="1" font-size="34.375" transform="matrix(0.999751,0,0,0.999751,0,0)" font-weight="400">
   <path vector-effect="none" d="M-2,-2 L3510,-2 L3510,2483 L-2,2483 L-2,-2" fill-rule="evenodd"/>
  </g>
  <g stroke="#000000" font-family="MS Shell Dlg 2" fill="none" stroke-width="1" stroke-linecap="square" font-style="normal" font-size="34.375" transform="matrix(0.999751,0,0,0.999751,0,0)" stroke-linejoin="bevel" font-weight="400" stroke-opacity="1"/>
  <g stroke="#000000" font-family="MS Shell Dlg 2" fill="none" stroke-width="1" stroke-linecap="square" font-style="normal" font-size="34.375" transform="matrix(11.8081,0,0,11.8081,0,0)" stroke-linejoin="bevel" font-weight="400" stroke-opacity="1"/>
  <g stroke="#000000" font-family="MS Shell Dlg 2" fill="none" stroke-width="1" stroke-linecap="square" font-style="normal" font-size="34.375" transform="matrix(11.8081,0,0,11.8081,0,0)" stroke-linejoin="bevel" font-weight="400" stroke-opacity="1"/>
  <g stroke="#000000" font-family="MS Shell Dlg 2" fill="none" stroke-width="1" stroke-linecap="square" font-style="normal" font-size="34.375" transform="matrix(11.8081,0,0,11.8081,0,0)" stroke-linejoin="bevel" font-weight="400" stroke-opacity="1"/>
  <g stroke="#000000" font-family="MS Shell Dlg 2" fill="none" stroke-width="1" stroke-linecap="square" font-style="normal" font-size="34.375" transform="matrix(11.8081,0,0,11.8081,0,0)" stroke-linejoin="bevel" font-weight="400" stroke-opacity="1"/>
  <g stroke="#000000" font-family="MS Shell Dlg 2" fill="none" stroke-width="1" stroke-linecap="square" font-style="normal" font-size="34.375" transform="matrix(11.8081,0,0,11.8081,0,0)" stroke-linejoin="bevel" font-weight="400" stroke-opacity="1"/>
  <g stroke="#000000" font-family="MS Shell Dlg 2" fill="none" stroke-width="1" stroke-linecap="square" font-style="normal" font-size="34.375" transform="matrix(11.8081,0,0,11.8081,0,0)" stroke-linejoin="bevel" font-weight="400" stroke-opacity="1"/>
  <g stroke="none" font-family="MS Shell Dlg 2" fill="#000000" font-style="normal" fill-opacity="0" font-size="34.375" transform="matrix(0.999751,0,0,0.999751,0,0)" font-weight="400">
   <rect x="0" y="0" width="3508" height="2480"/>
  </g>
  <g stroke="#000000" font-family="MS Shell Dlg 2" fill="none" stroke-width="1" stroke-linecap="square" font-style="normal" font-size="34.375" transform="matrix(0.999751,0,0,0.999751,0,0)" stroke-linejoin="bevel" font-weight="400" stroke-opacity="1"/>
  <g stroke="#54c2e4" font-family="MS Shell Dlg 2" fill="none" stroke-width="3.07087" stroke-linecap="square" font-style="normal" font-size="34.375" transform="matrix(0.999751,0,0,0.999751,0,0)" stroke-linejoin="bevel" font-weight="400" stroke-opacity="1">
   <path vector-effect="none" d="M1523.36,1554.88 L1523.56,1556.59 L1523.51,1555.46 L1523.43,1554.63 L1523.71,1556.9 L1525.32,1555.79 L1526.49,1553.74 L1527.16,1552.64 L1559.07,1533.99 L1559.2,1534.63 L1559.86,1534.85 L1560.4,1534.47 L1534.47,1554.02 L1534.71,1553.39 L1531.85,1571.45 L1530.53,1569.48 L1529.98,1568.34 L1530.54,1569.48 L1529.98,1568.34 L1530.55,1569.47 L1529.8,1569.88 L1528.75,1569.28 L1527.72,1568.77 L1528.44,1569.18 L1529.83,1568.77 L1529.93,1569.81 L1531.27,1567.2 L1531.31,1566.41 L1530.75,1567.27 L1531.43,1569.09 L1529.96,1570.03 L1530.66,1569.36 L1529.9,1570.55 L1530.55,1569.47 L1529.85,1559.43 L1530.55,1569.47 L1501.76,1552.93 L1500.24,1555.12 L1501.32,1552.99 L1500.65,1552.9 L1499.99,1553.2 L1480.63,1564.97 L1355.2,1578.41 L1480.63,1564.97 L1614.48,1696.21 L1480.63,1564.97 L1809.13,1566.97 L1480.63,1564.97 L1823.54,1557.53 L1480.63,1564.97 L1941.16,1489.55 L1944.34,1488.32 L1945.93,1487.7 L1480.63,1564.97 L1945.93,1487.7 L1946.73,1487.4 L2081.04,1447.72 L2110.4,1356.69 L2111.38,1357.02 L2112.44,1357.4 L2113.04,1357.6 L2114.22,1357.83 L2115.31,1358.13 L2356.37,1295.06 L2356.96,1294.68 L2357.64,1294.36 L2358.05,1293.82 L2358.74,1293.39 L2385.21,1261 L2459.59,1094.03 L2458.23,1096.06 L2457.06,1097.8 L2459.72,1093.31 L2461.99,1089.47 L2476.71,1085.37 L2477.4,1084.68 L2478.53,1083.65 L2479.65,1082.78 L2480.75,1081.8 L2481.68,1080.83 L2482.59,1079.95 L2589.84,1016.91 L2586.48,999.794 L2586.21,998.56 L2593.93,992.997 L2593.62,995.129 L2595.48,992.59 L2596.01,991.534 L2596.34,990.881 L2596.59,990.222 L2604.17,960.832 L2604.7,958.997 L2604.95,958.164 L2605.15,957.498 L2605.69,956.864 L2605.85,955.893 L2575.74,943.915 L2574.94,943.99 L2573.94,943.401 L2572.86,942.846 L2571.74,942.424 L2504.48,917.696 L2502.54,899.926 L2504.48,917.696 L2502.54,899.926 L2502.29,897.822 L2502.57,897.032 L2506.75,940.239 L2506.58,939.432 L2454.65,1068.66 L2454.41,1069.45 L2454.24,1070.18 L2453.89,1070.94 L2453.66,1071.54 L2368.74,1250.87 L2367.91,1252.24 L2368.85,1250.84 L2369.41,1251.19 L2316.11,1294.17 L2315.26,1294.5 L2314.12,1295.06 L2297.96,1335.73 L2298.13,1336.74 L2298.4,1336.06 L2297.71,1335.16 L2297.86,1334.31 L2313.56,1364.15 L2343.72,1423.81 L2345.52,1427.02 L2346.92,1429.52 L2253.89,1506.12 L2254.86,1505.96 L2253.68,1506.15 L2248.39,1457.55 L2269.43,1454.1 L2305,1444.22 L2297.44,1445.83 L2303.65,1445.08 L2264.27,1382.12 L2303.65,1445.08 L2264.27,1382.12 L2263.77,1380.46 L2263.4,1379.18 L2262.69,1378.4 L2262.23,1377.66 L2261.8,1377.1 L2261.31,1376.69 L2260.6,1375.48 L2260.15,1374.92 L2259.78,1374.28 L2263.2,1324.85 L2267.02,1322.35 L2265.31,1322.06 L2266.06,1324.77 L2266.8,1324.12 L2267.69,1323.46 L2268.1,1322.85 L2268.76,1322.58 L2269.36,1322.34 L2269.88,1321.95 L2270.6,1321.59 L2271.29,1321.35 L2272.01,1321.07 L2272.67,1320.97 L2273.28,1320.76 L2273.9,1320.6 L2274.55,1320.63 L2275.18,1320.8 L2275.88,1320.5 L2276.57,1320.49 L2277.29,1320.46 L2277.93,1320.35 L2278.61,1320.31 L2279.3,1320.5 L2279.86,1320.89 L2280.53,1320.67 L2281.2,1320.62 L2281.86,1320.74 L2282.51,1320.84 L2283.08,1321.14 L2283.66,1321.5 L2284.34,1321.67 L2284.98,1321.92 L2285.58,1322.23 L2286.18,1322.49 L2286.86,1322.63 L2287.48,1322.91 L2288.08,1323.12 L2288.69,1323.43 L2289.34,1323.57 L2289.97,1323.93 L2290.5,1324.37 L2290.99,1324.8 L2291.54,1325.22 L2292.04,1325.72 L2291.9,1326.38 L2291.66,1327.09 L2291.37,1327.68 L2291.27,1328.33 L2291.27,1328.98 L2291.74,1329.41 L2292.4,1329.42 L2293.02,1329.67 L2293.56,1330.03 L2293.81,1330.65 L2294.26,1331.21 L2294.64,1331.75 L2295.17,1332.16 L2295.53,1332.87 L2295.88,1333.42 L2296.52,1333.57 L2336.83,1283.72 L2341.4,1283.63 L2336.83,1283.72 L2341.74,1283.67 L2342.8,1282.34 L2343.61,1281.65 L2344.98,1281.48 L2346.02,1281.14 L2392.93,1221.07 L2411.98,1238.12 L2414.23,1248.2 L2416.06,1256.52 L2414.69,1244.38 L2412.88,1233.92 L2398.27,1190.85 L2398.57,1188.96 L2398.83,1187.51 L2399.57,1187.03 L2400.28,1186.61 L2401.04,1186.01 L2401.77,1185.2 L2402.46,1184.57 L2454.16,1071.15 L2492.25,1018.8 L2491.25,1020.51 L2491.44,1019.37 L2491.68,1018.59 L2503.68,906.116 L2503.08,906.328 L2504.05,904.464 L2503.96,903.457 L2612.32,923.757 L2588.42,945.32 L2589.23,945.226 L2543.51,966.433 L2543.09,967.009 L2500.62,968.143 L2500.05,973.961 L2500.23,975.709 L2500.18,977.326 L2499.29,978.604 L2499.14,980.175 L2499,981.688 L2425.13,1145.15 L2405.17,1178.34 L2404.77,1179.01 L2404.9,1203.83 L2404.2,1205.1 L2400.91,1213.81 L2123.95,1329.93 L2115.67,1332.87 L2111.45,1334.45 L2109.24,1335.27 L2116.74,1330.77 L2120.9,1328.53 L2123.07,1327.36 L2115.17,1331.54 L2111.16,1333.77 L2109.08,1334.92 L2104.08,1344.51 L1841.78,1454.48 L1837.13,1452.89 L1835.15,1451.79 L1834.16,1451.24 L1826.75,1457.79 L1823.13,1460.99 L1821.32,1462.59 L1566.13,1529.9 L1561.74,1532.87 L1562.45,1532.14 L1531.21,1567.05 L1530.53,1567.51 L1530.07,1568.21 L1530.74,1566.81 L1530.31,1567.7 L1529.89,1568.48 L1530.46,1568.99 L1537.82,1564.21 L1537.52,1565.03 L1536.69,1564.96 L1536.99,1565.6 L1537.34,1564.68 L1545.39,1536.37 L1546.39,1536.01 L1536.9,1565.35 L1537.67,1564.68 L1537.07,1565.17 L1530.56,1569.49 L1533.15,1555.77 L1528.55,1560.96 L1536.87,1565.63 L1537.05,1565.58 L1546.04,1536.12 L1546.88,1535.64 L1527.26,1491.43 L1526.97,1492.83 L1527.4,1492.31 L1528,1491.38 L1528.31,1490.53 L1556.84,1433.07 L1589.92,1381.6 L1593.65,1380.41 L1594.83,1380.3 L1595.86,1380.2 L1597.2,1376.08 L1598.2,1375.43 L1597.53,1375.72 L1598.04,1375.2 L1632.28,1341.91 L1632.92,1341.74 L1607.8,1362.44 L1607.11,1363.27 L1606.39,1364.23 L1605.72,1365.06 L1604.96,1365.7 L1604.48,1366.48 L1560.97,1426.94 L1560.39,1427.59 L1559.89,1428.12 L1559.24,1428.67 L1558.74,1429.31 L1558.25,1429.98 L1491.4,1556.42 L1490.77,1556.4 L1490.1,1556.32 L1532.86,1542.75 L1530.49,1569.48 L1538.52,1553.61 L1537.88,1553.48 L1526.12,1561.68 L1545.25,1541.32 L1544.75,1541.25 L1539.68,1542.22 L1544.14,1536.72 L1544.67,1535.9 L1541.89,1499.92 L1541.19,1499.76 L1540.18,1499.05 L1539.5,1498.73 L1538.78,1498.23 L1538.12,1497.79 L1537.52,1497.41 L1536.87,1496.96 L1536.25,1496.52 L1535.65,1496.12 L1565.92,1418.06 L1568.72,1415.86 L1569.01,1415.28 L1569.76,1414 L1570.13,1412.9 L1570.57,1412.33 L1601.42,1370.91 L1601.01,1372 L1540.65,1463.64 L1528.28,1484.53 L1533.96,1477.49 L1533.23,1478.25 L1532.83,1478.94 L1532.38,1479.41 L1532.06,1479.96 L1531.48,1480.96 L1531.14,1481.53 L1530.81,1482.11 L1565.37,1528.52 L1566,1528.92 L1539.57,1547.59 L1537.19,1565.07 L1536.69,1564.4 L1534.61,1568.19 L1536.9,1563.91 L1530.53,1569.51 L1529.93,1568.5 L1530.53,1569.51 L1528.55,1561.02 L1528.56,1561.04 L1526.14,1561.55 L1526.14,1561.59 L1526.14,1561.63 L1506.08,1552.48 L1516.57,1500.32 L1519.14,1497.12 L1520.04,1496.86 L1521.03,1496.12 L1521.65,1495.56 L1522.36,1494.95 L1523.14,1494.31 L1528.19,1487.98 L1582.66,1393.93 L1577.63,1397.89 L1578.48,1398.9 L1596.86,1376.81 L1625.43,1340.97 L1622.8,1342.38 L1623.87,1341.33 L1599.32,1374.85 L1598.73,1376.12 L1598.03,1376.86 L1597.41,1377.31 L1596.86,1377.63 L1596.7,1378.29 L1560.64,1424.03 L1559.52,1425.52 L1560.1,1426.59 L1490.3,1557.58 L1490.64,1558.27 L1521.44,1554.87 L1522.14,1555.04 L1522.64,1555.57 L1530.67,1569.57 L1526.14,1561.27 L1535.84,1564.49 L1553.24,1533.2 L1551.98,1534.07 L1552.71,1533.65 L1544.58,1536.67 L1530.36,1555.61 L1529.31,1555.4 L1530.41,1555.56 L1530.8,1567.04 L1529.93,1568.58 L1498.02,1552.53 L1497.17,1553.97 L1540.27,1463.56 L1542.74,1466 L1556.49,1435.22 L1556.72,1434.59 L1557,1433.97 L1557.44,1433.15 L1601.58,1369.78 L1601.09,1369.34 L1600.78,1368.6 L1600.35,1367.96 L1600.63,1367.37 L1631.69,1345 L1603.08,1368.51 L1602.35,1369.27 L1601.19,1370.17 L1600.73,1370.74 L1600.6,1371.51 L1600.43,1372.39 L1559.16,1424.75 L1546.09,1427.75 L1559.16,1424.75 L1548.92,1424.05 L1560.07,1422.43 L1559.92,1424.39 L1566.21,1529.78 L1566.46,1529.01 L1513.21,1552.18 L1514.15,1552.23 L1514.86,1552.2 L1537.51,1565.06 L1536.83,1564.44 L1536.23,1564.88 L1529.93,1568.5 L1530.63,1569.61 L1529.93,1568.5 L1530.63,1569.61 L1529.93,1568.5 L1530.19,1558.72 L1530.57,1569.61 L1543.74,1537.11 L1544.33,1536.86 L1545.24,1536.83 L1545.95,1536.54 L1527.18,1491.96 L1528.93,1490.16 L1529.21,1489.08 L1529.31,1488.45 L1529.59,1487.69 L1529.93,1486.78 L1533.86,1480.22 L1582.04,1396.07 L1588.23,1384.89 L1589.71,1384.51 L1590.64,1384.19 L1591.72,1384.08 L1592.44,1383.84 L1603.92,1367.96 L1622.7,1346.29 L1623.11,1345.2 L1623.46,1344.3 L1603.92,1367.96 L1623.46,1344.3 L1623.75,1343.56 L1623.99,1342.94 L1623.94,1347.18 L1622.91,1346.58 L1607.74,1361.23 L1602.74,1375.87 L1602.27,1376.31 L1599.11,1377.29 L1597.49,1377.48 L1594.45,1379.31 L1593.1,1382.51 L1593.23,1381.32 L1594.06,1383.65 L1553.7,1437.25 L1553.4,1437.84 L1553.22,1438.47 L1552.79,1439.18 L1552.72,1439.92 L1552.5,1440.62 L1552.16,1441.34 L1551.88,1441.96 L1551.31,1443.16 L1551.03,1443.77 L1512.79,1507.06 L1512,1510.69 L1509.81,1515.29 L1508.14,1518.78 L1511.01,1552.26 L1511.65,1552.22 L1540.33,1540.2 L1541.22,1539.45 L1541.15,1538.73 L1529.37,1570.78 L1530.02,1569.02 L1529.6,1569.87 L1536.39,1565.49 L1530.57,1569.62 L1496.6,1553.14 L1495.91,1553.4 L1495.55,1552.78 L1480.6,1565.03 L1597.81,1683.05 L1480.6,1565.03 L1729.21,1654.45 L1480.6,1565.03 L1878.62,1513.41 L1480.6,1565.03 L2045.13,1455.71 L2051.96,1454.13 L2055.37,1453.34 L1480.6,1565.03 L2166.22,1303.92 L2168.56,1298.92 L2169.95,1295.89 L2216.67,1185.83 L2353.69,1268.48 L2216.72,1185.77 L2353.56,1268.48 L2363.65,1263.55 L2375,1241.15 L2378.76,1236.79 L2379.01,1236.18 L2379.16,1235.44 L2415.22,1138.5 L2476.01,1065.99 L2415.22,1138.5 L2476.2,1065.65 L2453.46,1076.15 L2453.55,1074.63 L2526.49,970.903 L2525.72,970.729 L2523.42,972.086 L2570.95,942.442 L2571.86,942.868 L2572.7,943.486 L2618.58,936.748 L2620,936.031 L2620.4,936.528 L2578.4,903.883 L2577.94,903.406 L2576.37,901.517 L2575.86,900.138 L2574.78,899.564 L2573.92,898.7 L2573.43,898.266 L2547.76,893.464 L2558.35,891.056 L2550.5,893.049 L2550.21,893.852 L2570.52,870.991 L2530.72,877.518 L2531.66,878.242 L2533.78,879.152 L2502.51,898.841 L2502.16,899.375 L2505.66,935.737 L2505.91,937.139 L2505.79,938.519 L2590.62,946.153 L2589.41,944.223 L2621.69,936.45 L2592.14,923.328 L2568.45,902.337 L2536.33,903.521 L2536.98,903.159 L2503.62,904.618 L2499.04,907.719 L2500.31,974.011 L2500.37,971.878 L2499.37,970.719 L2499.55,969.713 L2490.86,1021.72 L2456.22,1104.99 L2437.46,1125.94 L2436.33,1128.18 L2435.64,1129.01 L2434.98,1129.83 L2434.37,1130.79 L2433.71,1131.76 L2433.06,1132.72 L2432.35,1133.72 L2431.63,1134.72 L2430.95,1135.75 L2430.25,1136.8 L2243.53,1393.46 L2158.09,1386.84 L2155.12,1386.1 L2152.68,1385.47 L2163.95,1370.63 L2161.91,1370.66 L2160.57,1370.23 L2159.16,1369.94 L2157.88,1369.41 L2156.58,1368.98 L2155.24,1368.54 L2153.95,1368.12 L2152.67,1367.82 L1943.91,1350.69 L1942.58,1351.24 L1934.63,1347.54 L1931.93,1345.95 L1931.05,1346.03 L1871.16,1412.19 L1843.55,1443.5 L1845.81,1440.65 L1844.69,1440.63 L1843.86,1441.4 L1843.13,1442.18 L1842.5,1443 L1763.3,1515.13 L1754.98,1516.1 L1753.68,1515.01 L1753.16,1514.48 L1762.25,1518.73 L1758.75,1518.1 L1757.27,1518.82 L1756.31,1519.23 L1755.53,1519.58 L1754.81,1519.97 L1754.14,1520.37 L1753.46,1520.75 L1752.68,1521.21 L1572.4,1528.65 L1570.11,1527.98 L1572.4,1528.61 L1571.68,1528.32 L1530.65,1566.81 L1530,1567.4 L1536.73,1564.31 L1531.21,1566.1 L1529.34,1569.93 L1530.44,1569.09 L1530.46,1569.14 L1529.7,1569.93 L1529.41,1570.69 L1500.34,1553.05 L1498.95,1552.87 L1498.3,1552.8 L1497.52,1552.78 L1515.05,1502.81 L1560.9,1424.04 L1582.16,1391.6 L1582.5,1390.91 L1572.21,1402.69 L1574.77,1398.08 L1575.59,1397.42 L1576.25,1396.4 L1576.91,1395.84 L1577.13,1395.13 L1626.45,1338.2 L1625.37,1338.18 L1626.07,1338.57 L1597.49,1371.4 L1622.94,1384.56 L1597,1362.95 L1598.63,1361.18 L1559.31,1426.45 L1514.07,1501.48 L1493.85,1550.58 L1494.48,1550.49 L1493.63,1550.81 L1492.65,1551.09 L1492.06,1551.79 L1526.52,1557.75 L1527.07,1558.32 L1527.69,1558.78 L1537.74,1553.03 L1538.11,1553.96 L1538.34,1553.48 L1536.6,1566.1 L1536.05,1565.68 L1537.28,1563.02 L1541.08,1541.03 L1561.72,1521.4 L1555.63,1507.03 L1561.72,1521.4 L1555.7,1506.67 L1556.04,1505.55 L1527.45,1492.17 L1562.12,1439.86 L1527.45,1492.17 L1562.12,1439.86 L1557.92,1443.13 L1551.94,1445.97 L1552.27,1445.38 L1552.51,1444.65 L1588.69,1387.09 L1552.51,1444.65 L1588.73,1387.05 L1591.94,1388.46 L1590.81,1386.69 L1591.62,1385.96 L1592.2,1385.3 L1592.42,1384.53 L1626.81,1338.36 L1626.99,1335.03 L1608.05,1364.23 L1605.78,1361.84 L1604.78,1363.1 L1604.3,1363.9 L1603.43,1364.25 L1574.25,1406.79 L1569.49,1413.62 L1571.29,1414.34 L1569.48,1414.62 L1568.62,1414.96 L1567.95,1415.29 L1567.07,1415.87 L1514.66,1500.53 L1514.22,1501.95 L1490.2,1557.35 L1521.91,1543.18 L1523.32,1543.81 L1523.82,1542.62 L1524.35,1542.97 L1525.34,1543.23 L1530.59,1569.5 L1526.13,1561.77 L1537.94,1553.05 L1538.46,1553.2 L1538.13,1564.59 L1538.56,1564.27 L1544.44,1541.25 L1545.02,1541.32 L1544.43,1541.16 L1552.13,1533.74 L1540.35,1463.51 L1542.24,1465.31 L1578.01,1402.87 L1575.79,1404.93 L1601.91,1369.99 L1617.1,1351.33 L1627.06,1339.05 L1625.2,1339.5 L1624.57,1339.76 L1631.69,1345.05 L1628.06,1334.2 L1590.46,1378.58 L1587.98,1381.46 L1590.75,1377.56 L1585.14,1390.18 L1543.07,1445.24 L1585.14,1390.18 L1541.43,1446.83 L1538.88,1449.3 L1537.87,1450.27 L1539.26,1450.79 L1540.47,1451.21 L1540.83,1460.19 L1541.35,1462.31 L1541.29,1462.96 L1482.35,1563.27 L1482.82,1561.27 L1483.03,1560.37 L1489.21,1558.08 L1485.12,1562.03 L1483.81,1563.26 L1483.35,1563.7 L1516.98,1617.29 L1519.98,1620.22 L1517.5,1618.3 L1516.54,1617.07 L1515.85,1617.38 L1512.75,1577.02 L1512.18,1573.77 L1530.57,1569.46 L1528.66,1561.08 L1527.36,1553.63 L1538.16,1555.19 L1538.93,1554.48 L1538.05,1553.61 L1526.16,1561.39 L1526.16,1561.39 L1526.16,1561.39 L1558.05,1525.88 L1555.85,1525.54 L1540.22,1462.87 L1541.84,1449.34 L1542.77,1447.15 L1543.53,1445.47 L1557.63,1432.08 L1598.29,1373.7 L1599.09,1373 L1599.81,1372.46 L1600.28,1371.87 L1600.75,1371.31 L1601.31,1370.75 L1601.79,1369.9 L1630.94,1341.03 L1632.24,1341.62 L1630.94,1341.03 L1632.87,1342.24 L1632.18,1342.02 L1601.46,1371.08 L1600.39,1371.11 L1601.09,1371.49 L1579.41,1398.75 L1541.04,1431.01 L1579.41,1398.75 L1541.04,1431.01 L1541.54,1429.93 L1547.75,1434.09 L1550.29,1436.5 L1552.11,1437.73 L1552.66,1439.21 L1552.52,1440.01 L1552.25,1440.76 L1552.06,1441.56 L1551.7,1442.34 L1490.48,1556.73 L1489.56,1557.62 L1490.48,1556.73 L1489.56,1557.62 L1490.43,1557.17 L1490.91,1557.6 L1522.93,1543.47 L1523.91,1543.48 L1525.64,1544.6 L1539.22,1553.69 L1526.1,1560.84 L1526.15,1561.41 L1563.15,1540.62 L1530.42,1568.87 L1530.45,1569.09 L1529.96,1569.38 L1493.81,1553.85 L1495.21,1549.86 L1495.48,1549.15 L1495.59,1548.46 L1495.83,1547.23 L1496.09,1546.49 L1515.41,1501.28 L1563.96,1421.25 L1563.37,1423.61 L1563.4,1422.51 L1563.82,1421.6 L1594.05,1380.54 L1609.65,1359.56 L1610.07,1358.86 L1620.44,1362.57 L1629.44,1334.77 L1629.44,1335.69 L1628.06,1331.9 L1628.15,1333.23 L1628.76,1335.33 L1588.44,1387.98 L1586.86,1389.21 L1586.05,1389.86 L1586.59,1391.76 L1587.62,1392.62 L1525.55,1491.61 L1523.94,1494.11 L1523.25,1494.47 L1522.44,1494.93 L1521.24,1495.44 L1520.44,1495.96 L1519.83,1496.38 L1492.37,1554.81 L1532.61,1559.84 L1501.11,1552.74 L1500.52,1552.5 L1480.6,1564.93 L1370.31,1576.74 L1480.6,1564.93 L1370.31,1576.74 L1480.6,1564.93 L1614.46,1696.23 L1480.6,1564.93 L1614.46,1696.23 L1480.6,1564.93 L1797.42,1579.81 L1480.6,1564.93 L1944.23,1488.36 L1480.6,1564.93 L2114.55,1437.96 L1480.6,1564.93 L2114.57,1438.15 L2170.91,1285.23 L2172.74,1277.5 L2174.07,1271.9 L2216.71,1185.9 L2335.95,1258.1 L2344.83,1263.2 L2349.24,1265.73 L2350.22,1268.93 L2402.33,1194.58 L2402.7,1184.72 L2403.89,1183.75 L2404.66,1182.59 L2405.68,1181.72 L2406.2,1180.52 L2406.96,1179.33 L2407.72,1178.08 L2408.39,1176.68 L2520.39,970.407 L2534.76,971.075 L2536.61,971.392 L2538.25,971.676 L2562.05,973.785 L2564.54,973.6 L2566.1,973.636 L2567.46,973.657 L2568.71,973.827 L2569.81,974.032 L2570.93,974.135 L2571.7,974.336 L2572.53,974.537 L2621.06,934.803 L2621.55,933.997 L2621.06,934.803 L2621.55,933.99 L2624.14,934.405 L2622.47,936.773 L2588.49,946.372 L2589.3,948.754 L2588.12,949.663 L2588.72,945.298 L2588.74,944.597 L2525.88,970.931 L2527.05,969.21 L2504.24,911.262 L2504.41,910.328 L2504.56,909.634 L2504.39,908.945 L2504.3,908.094 L2503.76,907.226 L2500.5,973.52 L2500.22,974.343 L2500.5,973.521 L2500.17,972.583 L2499.97,970.782 L2450.31,1078.75 L2445.61,1102.9 L2450.31,1078.75 L2445.61,1102.9 L2446.82,1111.96 L2441.32,1109.21 L2434.44,1106.75 L2433.7,1106.55 L2367.58,1254.06 L2368.18,1258.44 L2367.58,1254.06 L2368.18,1258.44 L2367.4,1262.84 L2362.98,1260.55 L2359.24,1264.55 L2353.04,1268.37 L2304.14,1240.08 L2353.04,1268.37 L2304.14,1240.08 L2297.66,1236.4 L2292.59,1233.52 L2287.93,1230.87 L2284.82,1229.1 L2165.44,1304.21 L2217.57,1186.81 L2165.36,1304.37 L2144.95,1364.17 L2100.58,1442.92 L2144.95,1364.17 L1892.39,1508.4 L2144.95,1364.17 L1745.12,1586.48 L2144.95,1364.17 L1614.05,1696.3 L2144.95,1364.17 L1480.81,1564.5 L1514.24,1552.9 L1514.76,1552.23 L1530.65,1569.32 L1482.56,1565.74 L1542.24,1538.08 L1542.79,1537.68 L1538.97,1553.25 L1538.97,1553.25 L1532.41,1569.74 L1533.13,1562.48 L1528.32,1557.84 L1528.32,1557.84 L1537.53,1553.08 L1528.23,1489.65 L1528.7,1488.93 L1528.99,1488.21 L1529.37,1487.64 L1559.91,1439.26 L1565.88,1417.98 L1568.58,1414.88 L1569.64,1412.85 L1569.88,1412.27 L1570.72,1412.13 L1571.52,1411.29 L1572.06,1410.59 L1572.45,1410.02 L1599.7,1372.35 L1599.16,1371.8 L1599.5,1369.73 L1600.18,1369.23 L1600.97,1368.85 L1631.99,1344.78 L1583.86,1390.27 L1586.54,1391.41 L1585.72,1391.99 L1584.87,1392.65 L1541.34,1463.39 L1541.84,1462.88 L1489.11,1558.27 L1487.47,1559.65 L1486.6,1560.4 L1485.49,1560.28 L1521.88,1555.41 L1522.55,1555.73 L1520.99,1555.09 L1519.05,1553.74 L1539.1,1553.71 L1540.66,1560.29 L1539.16,1553.52 L1538.54,1553.37 L1539.12,1553.68 L1539.85,1553.05 L1537.04,1565 L1537.04,1565 L1536.95,1565.39 L1539.13,1553.38 L1538.92,1553.47 L1538.92,1553.47 L1484.05,1561.99 L1483.4,1561.28 L1515.35,1500.75 L1515.4,1501.65 L1515.44,1501.02 L1515.5,1501.83 L1566.37,1417.88 L1569.38,1414.34 L1570.47,1412.62 L1571.33,1411.26 L1581.12,1397.32 L1575.75,1390.96 L1575.82,1391.76 L1576.02,1393.31 L1576.09,1393.98 L1576.13,1394.67 L1576.47,1395.24 L1623.16,1341.99 L1627.49,1338.65 L1623.16,1341.99 L1627.51,1338.64 L1627,1339.28 L1626.28,1338.5 L1609.24,1361.01 L1603.95,1375.12 L1603.47,1374.53 L1603.38,1371.16 L1602.56,1370.76 L1602.25,1371.37 L1601.58,1372.19 L1558.81,1426.78 L1558.29,1428.71 L1557.89,1429.85 L1516,1500.75 L1497.59,1542.36 L1496.82,1546.41 L1496.58,1547.31 L1496.08,1547.73 L1495.56,1548.35 L1526.13,1555.48 L1539.25,1553.19 L1539.89,1553.13 L1539.2,1553.19 L1539.2,1553.19 L1535.42,1552.86 L1544.4,1542.59 L1544.67,1541.3 L1544.67,1541.3 L1528.85,1569.29 L1530.7,1569.37 L1530.45,1569.09 L1495.74,1545.5 L1495.25,1546.75 L1494.11,1548 L1515.58,1502.34 L1567.3,1416.73 L1569.01,1414.35 L1568.41,1414.73 L1569.64,1414.64 L1569.85,1413.85 L1570.34,1413.21 L1570.73,1412.43 L1571.28,1411.72 L1591.51,1378.94 L1604.75,1366.23 L1602.98,1364.37 L1602.36,1363.08 L1603.25,1364.22 L1631.57,1345.59 L1602.51,1371.47 L1601.26,1372.43 L1600.64,1372.9 L1562.92,1422.54 L1563.83,1421.26 L1561.48,1423.31 L1561.08,1423.91 L1560.6,1424.93 L1560.33,1425.57 L1507.37,1496.66 L1503.56,1485.8 L1503.35,1485.14 L1503.6,1483.45 L1566.07,1530.23 L1566.99,1530.5 L1567.52,1530.02 L1565.86,1530.12 L1539.45,1548.04 L1540.31,1554.66 L1540.12,1558.03 L1540.02,1559.72 L1539.12,1554.26 L1539.12,1554.26 L1539.32,1553.25 L1539.12,1554.26 L1539.12,1554.26 L1538.22,1553.86 L1539.03,1553.63 L1530.71,1569.38 L1552.32,1535.76 L1571.3,1524.91 L1570.12,1524.68 L1569.48,1524.31 L1590.59,1539.6 L1777.9,1414.67 L1776.9,1413.4 L1785.48,1408.36 L1790.13,1405.9 L1792.69,1404.55 L1811.43,1425.33 L1821.7,1436.77 L1827.34,1443.05 L1844.06,1445.31 L1843.97,1444.03 L1844.57,1442.25 L1845.43,1441.33 L2078.43,1343.25 L2104.11,1353.71 L2110.8,1356.95 L2116.45,1359.69 L2151.68,1373.15 L2166.19,1373.01 L2169.99,1373.6 L2171.7,1374.25 L2173.67,1375.06 L2175.57,1375.92 L2177.46,1376.57 L2179.37,1377.22 L2181.33,1377.87 L2183.22,1378.54 L2196.67,1383.83 L2489.76,1070.32 L2489.38,1071.04 L2483.76,1067.55 L2480.44,1065.49 L2478.52,1064.29 L2494.46,1063.33 L2493.14,1063.27 L2492.27,1063.72 L2491.39,1063.86 L2490.52,1064 L2489.68,1064.18 L2488.78,1064.54 L2488.06,1064.55 L2498.44,896.272 L2497.38,893.962 L2506.17,943.172 L2465.92,1055.37 L2451.88,1107.72 L2456.23,1102.57 L2453.25,1106.82 L2452.39,1107.84 L2451.54,1108.83 L2450.53,1109.6 L2449.66,1110.49 L2448.84,1111.39 L2237.38,1394.06 L2238.92,1396.08 L2202.38,1385.89 L2200.96,1385.3 L2199.55,1384.73 L2198.08,1384.14 L2196.7,1383.53 L2195.35,1382.86 L2193.95,1382.27 L2039.02,1329.25 L1937.57,1284.17 L1921.76,1311.18 L1913.88,1324.69 L1909.95,1331.44 L1921.19,1280.99 L1920.66,1280.56 L1919.31,1280.3 L1854.14,1343.03 L1851.83,1349.09 L1851.14,1349.78 L1850.81,1350.42 L1849.62,1351.89 L1788.2,1413.93 L1780.44,1428.47 L1660.56,1473.12 L1639.52,1468.82 L1634.79,1467.98 L1631.81,1467.45 L1647.65,1462.85 L1634.53,1463.9 L1632.88,1465.93 L1631.92,1466.08 L1630.94,1466.24 L1629.43,1467.2 L1628.66,1466.93 L1627.99,1466.7 L1562.86,1430.83 L1543.57,1459.83 L1542.21,1461.88 L1537.55,1470.7 L1534.43,1476.39 L1554.07,1535.3 L1556.16,1528.1 L1555.69,1530.53 L1555.33,1531.59 L1554.66,1536.26 L1554.85,1534.51 L1554.71,1535.8 L1554.81,1536.51 L1579.56,1534.02 L1617.75,1544.5 L1621.66,1545.65 L1632.53,1555.77 L1633.08,1556.58 L1692.76,1582.21 L1691.59,1582.72 L1689.7,1585.16 L1688.89,1585.37 L1687.98,1584.94 L1687.57,1584.27 L1685.04,1582.12 L1756.8,1438.3 L1759.1,1430.5 L1760.21,1426.67 L1760.76,1424.75 L1757.23,1438.98 L1755.43,1446.12 L1754.54,1449.69 L1763.85,1440.92 L1853.75,1343.76 L1861.1,1328.66 L1861.94,1327.14 L1862.67,1325.82 L1865.13,1321.59 L1865.6,1320.74 L1870.1,1314.81 L1870.4,1313.88 L1875.39,1308.47 L1980.44,1306.42 L1974.05,1318.82 L1970.83,1324.96 L1969.21,1328.03 L1971.14,1323.04 L1972.1,1320.54 L1972.58,1319.28 L1977.08,1311.91 L1979.33,1308.22 L1980.46,1306.38 L2032.55,1327.03 L2114.83,1352.48 L2101.42,1351.34 L2355.62,1296.02 L2358.8,1293.23 L2362.16,1289.36 L2360.04,1293.17 L2416.07,1168.45 L2435.08,1128.63 L2438.53,1124.44 L2441.22,1121.19 L2439.44,1126.57 L2495.2,1010.03 L2496.58,1006.11 L2497.27,1004.15 L2489.83,1023.94 L2490,1022.77 L2490.22,1022 L2490.66,1021.34 L2491.4,1020.89 L2491.64,1019.83 L2491.95,1019.27 L2492.06,1018.63 L2502.44,899.048 L2502.28,897.871 L2502.23,897.197 L2506.77,938.253 L2506.47,939.533 L2506.15,940.502 L2490.15,1023.26 L2451.91,1108.03 L2451.55,1108.61 L2429.35,1138.3 L2428.9,1138.99 L2428.27,1140.03 L2427.57,1140.99 L2427.08,1141.84 L2426.58,1142.68 L2426.07,1143.61 L2425.54,1144.49 L2424.97,1145.42 L2328.76,1323.27 L2182.13,1385.26 L2181.11,1385.19 L2180.29,1385.13 L2328.76,1323.27 L2180.29,1385.13 L2179.55,1385.08 L2166.92,1372.42 L2166.13,1371.8 L2164.92,1371.38 L2163.58,1371.2 L2162.38,1370.64 L2161.08,1370.2 L2159.81,1369.77 L2158.55,1369.37 L1969.25,1311.47 L1965.91,1355.23 L1956.62,1345.57 L1955.16,1345.73 L1954.5,1345.66 L1953.75,1345.78 L1953.07,1345.84 L1952.26,1346.05 L1951.49,1346.22 L1842.6,1441.03 L1762.9,1507.73 L1842.6,1441.03 L1762.9,1507.73 L1774.04,1508.69 L1773.5,1509.42 L1772.85,1509.75 L1772.21,1510.03 L1771.62,1510.41 L1770.54,1511.08 L1769.51,1511.76 L1768.46,1512.44 L1572.59,1529.02 L1531.46,1566.93 L1543.82,1536.88 L1548.84,1534.76 L1547.88,1534.59 L1549.03,1534.86 L1616.52,1546.68 L1663.91,1548.67 L1664.71,1547.81 L1665.35,1547.11 L1665.9,1546.52 L1677.75,1555.6 L1679.08,1555.49 L1680.1,1555.53 L1680.82,1555.34 L1681.87,1555.11 L1682.87,1554.9 L1683.87,1554.67 L1684.92,1554.43 L1685.86,1554.12 L2064.18,1389.58 L2065.41,1390.11 L2066.14,1389.74 L2067.5,1390.42 L2068.62,1390.81 L2069.56,1391.39 L2070.44,1391.95 L2071.37,1392.58 L2071.84,1393.01 L2072.65,1393.64 L2073.19,1394.2 L2073.91,1394.89 L2074.65,1395.59 L2075.42,1396.41 L2076.19,1397.25 L2076.64,1397.81 L2077.11,1398.43 L2077.57,1398.96 L2077.99,1399.56 L2078.58,1400.12 L2079.1,1400.87 L2079.66,1401.64 L2080.08,1402.42 L2080.6,1403.21 L2081.25,1404.1 L2081.8,1404.85 L2082.27,1405.59 L2082.79,1406.29 L2083.31,1406.93 L2083.91,1407.59 L2084.57,1408.11 L2085.25,1408.77 L2085.93,1409.4 L2086.6,1410 L2087.21,1410.58 L2087.8,1411.15 L2088.38,1411.73 L2088.91,1412.22 L2089.43,1412.73 L2090.37,1413.33 L2091.46,1413.4 L2091.97,1412.86 L2092.81,1412.04 L2093.09,1410.87 L2092.96,1410.23 L2092.1,1409.15 L2091.54,1408.61 L2090.86,1408.03 L2090.13,1407.4 L2089.42,1406.73 L2088.67,1405.97 L2087.98,1405.32 L2087.31,1404.64 L2086.64,1404.01 L2086,1403.37 L2085.44,1402.72 L2084.96,1402.06 L2084.59,1401.31 L2084.33,1400.56 L2084.14,1399.76 L2083.96,1398.98 L2083.91,1398.14 L2083.94,1397.4 L2084,1396.56 L2084.16,1395.75 L2084.37,1395.03 L2084.61,1394.35 L2084.81,1393.73 L2085,1393.11 L2085.33,1391.96 L2085.7,1390.84 L2086.1,1389.82 L2086.63,1388.62 L2086.96,1387.96 L2087.23,1387.28 L2087.55,1386.61 L2087.87,1385.85 L2088.2,1385.16 L2088.52,1384.49 L2088.82,1383.73 L2089.15,1383.02 L2089.47,1382.24 L2089.81,1381.54 L2090.16,1380.79 L2090.52,1380 L2090.88,1379.2 L2091.25,1378.37 L2091.61,1377.54 L2091.97,1376.7 L2092.36,1375.87 L2092.74,1375.01 L2093.11,1374.17 L2093.47,1373.34 L2093.88,1372.46 L2094.27,1371.58 L2094.67,1370.73 L2095.06,1369.84 L2095.49,1368.97 L2095.87,1368.04 L2096.27,1367.09 L2096.68,1366.28 L2097.07,1365.43 L2097.44,1364.6 L2097.8,1363.79 L2098.14,1363.04 L2098.47,1362.25 L2098.8,1361.61 L2099.2,1360.91 L2099.6,1360.18 L2099.87,1359.38 L2100.2,1358.63 L2100.83,1358.02 L2101.18,1357.36 L2101.56,1356.7 L2102.06,1356.08 L2102.64,1355.6 L2103.42,1355.33 L2104.15,1355.08 L2105.04,1355.07 L2105.93,1355.09 L2106.7,1355.15 L2107.55,1355.46 L2108.38,1355.85 L2109.28,1356.26 L2110.21,1356.48 L2111.14,1356.71 L2112.06,1356.89 L2113,1357.17 L2113.94,1357.5 L2114.82,1357.73 L2115.79,1358.01 L2116.74,1358.32 L2117.74,1358.54 L2118.68,1358.84 L2119.54,1359.12 L2120.43,1359.42 L2121.3,1359.74 L2122.14,1360.03 L2122.84,1360.31 L2123.49,1360.56 L2124.15,1360.76 L2124.81,1360.92 L2125.51,1361.08 L2126.19,1361.36 L2127.12,1361.38 L2128.03,1361.59 L2128.97,1361.86 L2130,1362.23 L2131.06,1362.6 L2132.13,1363.02 L2133.06,1363.45 L2134.34,1363.69 L2135.5,1363.94 L2136.68,1364.17 L2137.76,1364.41 L2138.7,1364.64 L2139.79,1364.63 L2140.91,1364.86 L2142.11,1365.16 L2143.26,1365.45 L2144.43,1365.78 L2145.6,1366.13 L2146.9,1366.55 L2148,1367.01 L2149.33,1367.36 L2150.63,1367.72 L2151.95,1368.09 L2168.36,1373.54 L2171.35,1375.1 L2172.77,1375.46 L2174.18,1375.67 L2175.41,1376.19 L2176.64,1376.48 L2177.95,1376.95 L2259.65,1386.05 L2269,1380.54 L2273.67,1377.79 L2276.01,1376.41 L2284.14,1373.5 L2284.84,1372.84 L2285.68,1371.97 L2286.43,1371.15 L2287.34,1370.26 L2288.19,1369.32 L2289.06,1368.42 L2289.89,1367.58 L2290.75,1366.64 L2291.64,1365.71 L2292.55,1364.74 L2293.46,1363.73 L2294.43,1362.64 L2358.82,1293.09 L2571.48,1054.18 L2576.44,1051.05 L2578.92,1049.48 L2358.82,1293.09 L2578.92,1049.48 L2580.17,1048.7 L2580.79,1048.31 L2598.1,984.501 L2592.51,975.125 L2597.71,985.415 L2613.79,927.983 L2614.05,927.383 L2528.31,880.131 L2526.3,878.858 L2525.12,879.055 L2524.29,879.28 L2523.33,879.363 L2522.47,879.252 L2521.79,879.141 L2499.24,908.119 L2504.66,948.545 L2504.83,949.241 L2504.37,952.549 L2503.84,953.472 L2503.47,954.016 L2465.53,1093.74 L2464.66,1094.94 L2395.73,1208.01 L2394.62,1210.26 L2394.06,1211.38 L2464.66,1094.94 L2393.64,1212.23 L2413.43,1195.39 L2407.32,1201.02 L2406.4,1202.15 L2405.22,1203.44 L2404.68,1204.49 L2404.25,1205.37 L2403.96,1206.14 L2403.72,1206.9 L2403.41,1207.63 L2403.11,1208.32 L2335.17,1315.27 L2334.77,1315.82 L2334.24,1316.28 L2333.76,1316.91 L2260.4,1381.98 L2275.59,1408.51 L2276.19,1411.43 L2276.7,1413.89 L2260.4,1381.98 L2276.7,1413.89 L2277.13,1416.02 L2277.49,1417.8 L2281.04,1421.19 L2284.03,1423.8 L2288.17,1420.76 L2289.61,1426.11 L2290.87,1427.22 L2291.53,1428.3 L2292.14,1429.3 L2292.79,1430.38 L2293.38,1431.35 L2293.91,1432.22 L2297.13,1438.42 L2149.21,1458.25 L2297.13,1438.42 L2144.75,1458.27 L2152.97,1457.18 L2078.88,1396.22 L1967.11,1356.3 L1988.13,1363 L1987.23,1362.46 L1986.08,1361.97 L1984.8,1361.61 L1983.63,1361.18 L1982.41,1360.81 L1981.17,1360.44 L1979.93,1360 L1978.7,1359.55 L1977.59,1359.26 L1857.57,1425.02 L1762.76,1508.07 L1772.52,1509.29 L1771.6,1509.79 L1770.89,1510.22 L1770.19,1510.77 L1769.43,1511.14 L1768.8,1511.57 L1768.15,1512.01 L1767.47,1512.39 L1592.98,1540.46 L1595.02,1539.25 L1594.07,1539.58 L1559.1,1533.75 L1557.71,1533.49 L1558.48,1533.13 L1559.13,1533.01 L1559.98,1533.03 L1531.47,1566.9 L1530.4,1569.12 L1530.4,1569.12 L1533.02,1542.01 L1544.77,1536.84 L1545.35,1536.35 L1546.23,1535.71 L1552.43,1539.61 L1552.22,1541.06 L1552.95,1540.01 L1551.61,1539.64 L1567.17,1529.6 L1606.34,1545.94 L1612.3,1547.17 L1613.09,1546.9 L1613.87,1546.93 L1614.68,1546.9 L1615.48,1546.95 L1616.46,1547.11 L1617.51,1547.12 L1634.54,1557.56 L1779.19,1503.33 L1781.94,1501.8 L1784.21,1500.53 L1794.87,1499.73 L1793.76,1499.34 L1794.65,1498.57 L1795.75,1497.72 L1796.53,1497.11 L1797.02,1496.64 L1799.1,1494.08 L1843.56,1441.44 L1799.1,1494.08 L1843.56,1441.42 L1842.86,1444.64 L1843.38,1443.44 L1843.86,1442.95 L1844.45,1442.32 L1873.62,1410.13 L1892.47,1386.3 L1897.22,1382.27 L1947.29,1350.63 L1939.93,1348.4 L1951.34,1351.27 L1956.14,1352.81 L1959.35,1353.85 L1961.51,1354.54 L1947.29,1350.63 L1961.51,1354.54 L1962.98,1355.01 L1963.95,1355.33 L1947.33,1351 L2062.98,1338.15 L2088.44,1345.7 L2090.99,1346.52 L2092.26,1346.92 L2090.9,1347.45 L2092.42,1348.35 L2093.77,1348.73 L2094.98,1349.21 L2096.09,1349.7 L2097.25,1350.16 L2098.51,1350.49 L2099.71,1350.85 L2100.89,1351.24 L2102.08,1351.63 L2103.23,1352.03 L2307.45,1343.91 L2309.86,1341.89 L2310.05,1342.55 L2311,1342.6 L2311.67,1342.48 L2312.09,1341.81 L2390.76,1249.99 L2390.86,1249.19 L2391.01,1248.26 L2391.05,1247.51 L2391.17,1246.47 L2392.03,1240.39 L2474.47,1068.54 L2468.86,1093.85 L2469.55,1093.17 L2470.48,1092.52 L2471.18,1091.37 L2472.13,1090.31 L2473.27,1089.38 L2474.44,1088.46 L2499.2,981.383 L2499.28,982.292 L2503.29,906.091 L2506.89,942.275 L2506.38,944.256 L2506.27,944.995 L2490.12,1023.47 L2485.6,1035.91 L2483.9,1040.56 L2482.52,1044.37 L2472.07,1046.2 L2472.73,1045.62 L2471.69,1046.52 L2470.93,1046.41 L2466.33,1093.96 L2421.28,1151.74 L2435.16,1130.53 L2442.16,1119.85 L2445.65,1114.51 L2432.97,1133.88 L2426.68,1143.5 L2423.53,1148.31 L2430.21,1139.27 L2429.86,1139.93 L2365.63,1285.94 L2365.05,1287.1 L2365.63,1285.94 L2365.04,1287.11 L2362.98,1291.12 L2360.87,1291.43 L2360.68,1292.33 L2360.12,1292.83 L2286.59,1369.81 L2285.85,1370.44 L2285.12,1371.21 L2284.21,1372.14 L2283.54,1372.87 L2197.56,1462.87 L2196.84,1462.71 L2196.19,1462.56 L2102.91,1420.05 L2102.24,1419.55 L2101.61,1419.08 L2100.95,1418.63 L2100.36,1418.16 L2099.71,1417.7 L2099.1,1417.21 L2098.55,1416.69 L2097.91,1416.18 L2097.28,1415.65 L1912.42,1357.22 L1911.95,1357.81 L1911.51,1358.42 L1911.1,1358.98 L1910.67,1359.5 L1910.3,1360.06 L1909.94,1360.59 L1909.42,1361 L1908.72,1362.03 L1908.23,1362.49 L1859.42,1422.81 L1858.86,1423.18 L1858.35,1423.73 L1857.79,1424.38 L1653.12,1557.06 L1651.99,1557.05 L1650.79,1557 L1649.68,1557 L1648.52,1556.98 L1647.4,1556.95 L1646.31,1556.96 L1645.19,1557.01 L1644.09,1556.97 L1643.06,1556.95 L1587.86,1538.26 L1535.65,1547.18 L1536.44,1547.62 L1537.15,1547.96 L1537.88,1548.18 L1538.59,1548.43 L1530.4,1569.12 L1528.67,1561.05 L1528.67,1561.05 L1536.71,1566.06 L1535.28,1566.91 L1502.92,1552.76 L1508.49,1552.39 L1501.86,1553 L1498.33,1553.47 L1497.59,1553.56 L1631.82,1344.81 L1637.24,1343.68 L1725.91,1393.62 L1637.24,1343.68 L1725.84,1392.13 L1724.88,1392.4 L1724.7,1393.08 L1724.73,1394.44 L1724.85,1395.34 L1724.99,1396.14 L1725.21,1396.85 L1782.02,1418.52 L1793.01,1406.49 L1795.81,1403.27 L1798.2,1400.52 L1782.02,1418.52 L1798.2,1400.52 L1800.27,1398.14 L1802.03,1396.11 L1812.93,1385.57 L1813.8,1384.86 L1814.72,1384.08 L1815.52,1383.44 L1816.14,1382.72 L1817.08,1382.29 L1818,1381.81 L1818.92,1381.31 L1870.61,1307.81 L1870.21,1308.43 L1868.67,1306.71 L1868.72,1305.98 L1879.02,1297.7 L2021.29,1335.75 L2025.42,1339.31 L2027.48,1341.08 L1879.02,1297.7 L2027.48,1341.08 L2028.51,1341.97 L2029.03,1342.42 L2006.77,1320.37 L2004.39,1319.93 L2005.32,1319.88 L2083.98,1343.06 L2097.15,1346.79 L2100.47,1347.72 L2103.32,1348.52 L2115.34,1358.73 L2117.68,1358.44 L2119.37,1358.19 L2119.98,1358.44 L2120.99,1358.8 L2121.98,1359.11 L2122.95,1359.36 L2123.74,1359.65 L2124.53,1359.98 L2125.34,1360.29 L2256.58,1391.38 L2262.74,1390.94 L2256.58,1391.38 L2263.06,1390.2 L2265.95,1388.4 L2266.31,1387.78 L2305.78,1347.98 L2299.25,1356.26 L2334.66,1315.54 L2336.43,1315.05 L2337.14,1314.16 L2337.77,1313.8 L2366.8,1285.19 L2408.22,1193.19 L2409.71,1183.99 L2409.93,1183.11 L2410.09,1182.32 L2410.37,1181.46 L2410.66,1180.68 L2410.91,1179.9 L2411.29,1179.05 L2411.69,1178.13 L2412.04,1177.26 L2482.84,1062.37 L2472.35,1052.14 L2471.47,1051.36 L2470.56,1051.19 L2469.91,1050.32 L2506.85,944.677 L2508.02,941.349 L2506.85,944.677 L2509.12,930.655 L2505.85,931.454 L2506.22,929.155 L2506.78,928.532 L2502.52,897.389 L2501.93,893.89 L2502.52,897.389 L2501.91,893.888 L2502.34,897.467 L2502.05,898.153 L2505.69,929.557 L2505.58,930.403 L2505.49,931.291 L2500.34,967.067 L2501.2,971.827 L2499.66,980.683 L2498.97,981.776 L2498.92,982.599 L2498.71,983.439 L2498.51,984.33 L2498.34,985.204 L2498.26,986.182 L2498.08,987.14 L2472.95,1060.27 L2460.78,1096.6 L2455.89,1101.89 L2453.06,1104.95 L2457.59,1102.28 L2456.77,1103.19 L2456.24,1103.76 L2455.59,1104.48 L2393.18,1231.43 L2380.39,1276.35 L2380.08,1275.72 L2379.83,1275.14 L2379.11,1269.44 L2378.7,1270.42 L2378.06,1271.05 L2377.37,1271.87 L2376.68,1272.65 L2308.31,1344.36 L2305.78,1347.74 L2306.78,1346.79 L2305.06,1348.45 L2304.24,1349.32 L2303.63,1350.02 L2303.14,1350.5 L2302.63,1351.11 L2264.7,1378.01 L2305.2,1454.53 L2305.02,1455.14 L2292.43,1453.76 L2291.62,1454.38 L2290.99,1454.7 L2290.41,1455.03 L2289.76,1455.38 L2289.09,1455.69 L2288.32,1456.09 L2287.45,1456.47 L2231.38,1466.94 L2165.48,1462.27 L2166.17,1458 L2165.11,1458.1 L2163.24,1457.93 L2162.45,1457.94 L2161.71,1457.92 L2161.02,1457.9 L2160.38,1457.81 L2100.72,1418.49 L2030.11,1371.91 L2030.72,1372.46 L2014.77,1371.67 L2014.03,1371.12 L2013.23,1370.82 L2012.38,1370.49 L1933.35,1347.05 L1839.45,1455.86 L1836.6,1450.26 L1835.99,1450.96 L1835.38,1451.66 L1834.85,1452.28 L1834.4,1452.88 L1833.96,1453.39 L1833.5,1453.91 L1833,1454.42 L1832.52,1454.92 L1832.05,1455.44 L1603.72,1545.2 L1604.35,1545.51 L1603.72,1545.2 L1604.36,1545.51 L1602.41,1544.76 L1601.87,1544.32 L1601.07,1544.02 L1600.24,1543.81 L1577.8,1533.41 L1554,1533.84 L1556.15,1534.5 L1558.47,1534.86 L1531.38,1567.22 L1544.02,1536.93 L1543.28,1536.99 L1543.97,1536.88 L1551.68,1539.66 L1536.91,1565.25 L1536.72,1565.57 L1544.67,1541.19 L1544.8,1541.57 L1544.62,1541.34 L1530.06,1567.11 L1530.6,1566.49 L1529.98,1565.51 L1561.97,1521.69 L1560.01,1518.91 L1559.21,1517.87 L1557.95,1515.84 L1576.71,1434.11 L1574.41,1435.82 L1574.93,1436.25 L1639.07,1471.48 L1649.42,1471.28 L1650.8,1470.9 L1651.77,1470.62 L1639.07,1471.48 L1651.77,1470.62 L1652.47,1470.43 L1653.74,1473.8 L1654.48,1473.72 L1656.05,1473.75 L1776.99,1429.68 L1774.68,1435.1 L1775.5,1434.42 L1776.28,1433.82 L1776.98,1433.16 L1777.68,1432.46 L1778.35,1431.69 L1778.92,1431.08 L1858.7,1335.09 L1869.3,1315.81 L1894.97,1290.9 L1899.31,1286.72 L1903.84,1285.5 L1906.34,1284.23 L1907.78,1283.55 L1908.61,1283.14 L1909.53,1282.62 L1910.62,1282.28 L1917.14,1280.47 L2090.86,1345.99 L2101.42,1351.36 L2222.89,1405.24 L2226.23,1391.65 L2253.93,1391.79 L2285.6,1371.08 L2287.06,1369.56 L2320.61,1332.08 L2321.2,1331.5 L2340.04,1310.49 L2389.04,1263.63 L2388.14,1258.37 L2388.44,1257.62 L2388.67,1256.78 L2388.94,1256.11 L2389.17,1255.34 L2389.41,1254.63 L2389.7,1253.48 L2389.86,1252.83 L2390.56,1248.26 L2476.29,1064.89 L2485,1064.29 L2484.25,1064.18 L2506.12,945.662 L2500.42,967.199 L2506.12,945.662 L2500.42,967.199 L2512.96,964.993 L2506.93,944.598 L2506.43,944.993 L2506.37,937.544 L2499.95,974.834 L2488.9,1014.75 L2487.46,1020.05 L2486.18,1024.74 L2488.26,1026.56 L2487.98,1027.38 L2467.78,1055.14 L2421.27,1151.8 L2467.78,1055.14 L2421.27,1151.8 L2420.82,1152.47 L2438.42,1126.39 L2437.6,1126.93 L2437.25,1127.75 L2436.62,1128.45 L2436.04,1129.41 L2435.4,1130.06 L2434.86,1130.69 L2434.18,1131.33 L2431.87,1134.6 L2388.31,1254.9 L2386.04,1259.38 L2386.52,1259.89 L2385.83,1260.83 L2385.33,1261.59 L2327.15,1325.29 L2326.05,1325.34 L2324.76,1327.59 L2324.17,1328.17 L2323.53,1328.65 L2311.93,1340.64 L2274.56,1416.89 L2281.45,1410.91 L2281.73,1411.58 L2282.04,1412.4 L2282.45,1413.37 L2282.84,1413.97 L2283.2,1414.59 L2283.57,1415.24 L2283.91,1415.9 L2284.34,1416.59 L2300.31,1444.21 L2144.2,1458.27 L2300.31,1444.21 L2144.2,1458.27 L2143.49,1458.28 L2153.66,1458.23 L2152.9,1457.66 L2151.29,1457.39 L2150.59,1457.35 L2149.88,1457.31 L2145.19,1457.12 L1975.15,1358.22 L1950.82,1350.13 L1949.38,1349.83 L1948.11,1349.46 L1946.81,1349.1 L1945.55,1348.98 L1944.53,1348.34 L1937.7,1346.85 L1757,1518.52 L1767.23,1513.45 L1766.12,1514.32 L1764.77,1515.04 L1762.43,1515.99 L1761.7,1516.15 L1760.98,1516.43 L1760.08,1516.92 L1759.08,1517.53 L1604.47,1545.72 L1569.18,1528.78 L1574.68,1530.68 L1572.43,1528.88 L1531.46,1566.9 L1554.38,1537.7 L1528.66,1561.14 L1526.18,1561.4 L1534.03,1560.34 L1534.03,1560.34 L1495.75,1553.18 L1494.68,1551.35 L1579.45,1440.95 L1778.38,1431.36 L1817.26,1388.05 L1839.64,1375.42 L1837.61,1374.29 L1838.13,1373.72 L1838.81,1372.69 L2017.78,1322.79 L2142.13,1360.21 L2148.56,1368.78 L2147.11,1367.3 L2149.21,1367.57 L2150.06,1368.11 L2151.7,1368.46 L2153.08,1368.9 L2155.9,1369.72 L2367.2,1285.08 L2447.51,1111.64 L2441.45,1122.88 L2442.2,1121.36 L2442.86,1120.43 L2443.25,1119.49 L2449.39,1112.18 L2501.3,967.09 L2501.71,973.152 L2500.02,978.511 L2494.52,898.489 L2485.76,893.364 L2503.71,905.311 L2505.45,964.822 L2503.21,955.602 L2503.65,955.111 L2447.86,1085.05 L2447.66,1086.2 L2446.96,1086.5 L2446.46,1087.47 L2446,1088.34 L2445.05,1090.95 L2377.64,1274.56 L2379.9,1268.8 L2380.98,1267.22 L2380.54,1268.24 L2379.55,1269.32 L2378.49,1270.41 L2377.54,1271.42 L2376.66,1272.44 L2375.72,1273.52 L2374.85,1274.56 L2373.98,1275.55 L2269.6,1387 L2272.2,1388.61 L2269.6,1387 L2272.36,1389.11 L2280.06,1408.73 L2280.84,1410.15 L2281.49,1411.26 L2282.15,1412.32 L2282.82,1413.54 L2283.51,1414.6 L2284.13,1415.65 L2284.77,1416.68 L2285.46,1417.73 L2286.08,1418.79 L2254.88,1476.12 L2253.46,1478.3 L2254.88,1476.12 L2253.46,1478.3 L2237.89,1468.07 L2237.17,1468.47 L2236.35,1468.46 L2202.44,1463.67 L2090.67,1378.73 L2076.01,1395.38 L2074.51,1392.91 L2073.77,1392.23 L2073.08,1391.62 L2072.13,1390.95 L2071.18,1390.31 L2070.24,1389.65 L1854.34,1429.52 L1769.85,1504.55 L1854.34,1429.52 L1769.85,1504.55 L1765.11,1508.08 L1762.79,1509.81 L1770.58,1511.04 L1769.3,1511.71 L1768.46,1512.09 L1767.58,1512.56 L1767.01,1512.86 L1561.36,1533.25 L1558.76,1534.31 L1532.02,1566.56 L1532.2,1565.95 L1532.02,1566.56 L1532.2,1565.95 L1532.02,1566.56 L1532.2,1565.95 L1530.51,1568.12 L1503.06,1481.02 L1329.74,1468.22 L1503.06,1481.02 L1329.74,1468.22 L1328.98,1467.28 L1329.22,1468.61 L1321.37,1468.76 L1249.02,1408.11 L1213.35,1397.84 L1211.36,1394.07 L1211.44,1394.76 L1177.04,1378.93 L1005.45,1375.87 L1002.31,1377.37 L1001.6,1377.79 L1000.72,1378.18 L999.911,1378.5 L999.315,1378.77 L998.457,1379.11 L931.604,1388.11 L954.296,1387.24 L942.386,1387.77 L936.431,1388.03 L933.454,1388.17 L931.966,1388.23 L930.811,1388.75 L929.935,1389.33 L729.551,1429.3 L379.609,1414.62 L729.551,1429.3 L377.68,1414.38 L379.968,1397.61 L381.87,1386.48 L388.935,1414.72 L387.783,1415.52 L387.056,1415.55 L386.341,1415.67 L385.536,1415.72 L384.49,1415.82 L383.557,1415.83 L382.603,1415.81 L381.567,1415.76 L113.196,1418.84 L35.429,1417.38 L28.4634,1418.89 L27.6003,1419 L26.4471,1419.04 L25.2126,1419.12 L23.9207,1419.19 L22.6169,1419.29 L21.2428,1419.4 L19.9315,1419.54 L18.5496,1419.74 L-49.6841,1756.19 L-53.3903,1820.67 L-53.8479,1826.81 L-54.076,1829.86 L-55.3839,1830.27 L-55.6597,1831.34 L-55.7991,1832.31 L-56.0245,1833.25 L-56.285,1834.28 L-56.7288,1835.5 L-57.0678,1836.38 L-57.478,1837.3 L-57.8516,1838.23 L-60.9851,1845.05 L-183,1933.45 L-184.92,1940.9 L-60.9851,1845.05 L-184.92,1940.9 L-185.127,1941.7 L-186.376,1918.84 L-187.699,1918.77 L-188.405,1919.03 L-189.279,1919.17 L-245.574,1896.46 L-248.398,1893.85 L-249.256,1893.18 L-249.897,1892.62 L-250.509,1892.32 L-251.431,1891.76 L-291.993,1823 L-339.274,1779.12 L-347,1789.68 L-347.614,1789.34 L-348.282,1788.86 L-348.982,1788.33 L-349.77,1787.75 L-350.567,1787.17 L-351.343,1786.64 L-352.148,1786.13 L-352.868,1785.65 L-358.033,1775.44 L-358.023,1773 L-337.327,1796.66 L-336.445,1796.28 L-336.321,1797.1 L-336.171,1798.35 L-335.527,1799.03 L-334.501,1799.73 L-256.644,1847.21 L-255.454,1851.4 L-254.426,1853.08 L-253.577,1854.46 L-256.417,1852.57 L-258.776,1850.99 L-252.807,1856.24 L-252.838,1857.17 L-252.708,1858.18 L-253.019,1859.28 L-253.347,1860.39 L-255.732,1864.89 L-259.7,2114.17 L-255.732,1864.89 L-259.544,2116.12 L-275.286,2301.5 L-274.231,2302.27 L-273.979,2301.47 L-275.869,2299.99 L-252.056,2278.22 L-228.066,2253.25 L-233.998,2253.9 L-232.478,2253.76 L-231.899,2253.47 L-148.874,2304.73 L-135.782,2304.45 L-134.879,2304.54 L-134.135,2305.12 L-133.327,2305.85 L-132.408,2306.79 L-131.477,2307.62 L-130.582,2308.43 L-129.743,2309.21 L-126.842,2311.84 L85.7422,2391.14 L88.8577,2392.33 L90.4155,2392.92 L105.905,2397.63 L106.653,2397.42 L108.682,2397.91 L140.231,2402.29 L266.526,2413.14 L272.387,2425.74 L273.638,2425.84 L275.019,2425.71 L276.662,2425.37 L278.19,2425.12 L279.733,2424.92 L281.38,2424.67 L282.953,2424.38 L284.529,2424.06 L676.46,2371.73 L699.273,2368.61 L705.373,2367.88 L710.394,2367.28 L728.27,2371.61 L730.348,2369.91 L731.584,2369.45 L733.19,2368.98 L734.532,2368.78 L735.891,2368.55 L737.089,2368.36 L738.299,2368.17 L746.392,2367.14 L995.996,2332.22 L1007.92,2336.3 L1009.33,2336.39 L1010.47,2335.78 L1011.33,2335.42 L1012.43,2334.97 L1013.42,2334.59 L1014.34,2334.29 L1015.29,2334.1 L1016.36,2333.89 L1017.34,2333.78 L981.622,2231.35 L1154.36,2057.43 L981.622,2231.35 L1154.36,2057.43 L1161.58,2054.22 L1165.09,2052.67 L1175.37,2043.64 L1176.31,2042.41 L1176.94,2041.19 L1177.61,2039.92 L1226.6,2043.68 L1647.26,1805.14 L1226.6,2043.68 L1647.26,1805.14 L1649.02,1805.31 L1649.83,1805.4 L1670.91,1775.98 L1673.36,1775.46 L1672.25,1769.96 L1671.55,1769.39 L1671.23,1768.73 L1670.71,1768.13 L1675.83,1625.45 L1686.19,1593.92 L1686.54,1593.22 L1686.45,1598.22 L1687.04,1596.5 L1687.47,1595.85 L1687.57,1594.76 L1687.62,1593.75 L1687.73,1592.84 L1534.68,1553.56 L1535.26,1552.64 L1503.36,1552.31 L1498.15,1551.61 L1495.82,1551.33 L1494.35,1551.16 L1503.36,1552.31 L1494.35,1551.16 L1493.41,1551.05 L1492.4,1550.93 L1495.79,1549.29 L1495.96,1548.54 L1496.33,1547.84 L1496.53,1546.89 L1496.85,1546.03 L1497.32,1545.11 L1497.78,1544.2 L1498.27,1543.2 L1498.82,1542.16 L1578.71,1438.22 L1578.79,1438.87 L1579.48,1439.57 L1579.63,1440.38 L1579.62,1441.07 L1580.26,1441.24 L1580.64,1441.75 L1581.29,1442.21 L1581.85,1442.7 L1582.56,1442.97 L1583.1,1443.55 L1583.82,1443.94 L1584.61,1444.35 L1585.17,1444.82 L1585.67,1445.46 L1586.23,1446.13 L1586.68,1446.64 L1587.1,1447.19 L1587.59,1447.8 L1588.14,1448.37 L1588.69,1448.8 L1589.27,1449.18 L1589.94,1449.64 L1590.59,1449.96 L1591.19,1450.19 L1592.03,1450.48 L1592.68,1450.81 L1593.45,1451.14 L1594.05,1451.5 L1594.42,1452.09 L1595.1,1452.35 L1595.61,1452.74 L1596.27,1453.03 L1596.9,1453.19 L1597.54,1453.46 L1598.29,1453.77 L1599.06,1454.07 L1599.63,1454.41 L1600.24,1454.72 L1600.68,1455.23 L1601.3,1455.6 L1601.96,1455.98 L1602.74,1456.17 L1603.61,1456.57 L1604.19,1456.95 L1604.9,1457.32 L1605.57,1457.59 L1606.27,1457.97 L1606.88,1458.24 L1607.48,1458.5 L1608.16,1458.68 L1608.64,1459.09 L1609.36,1459.39 L1610.06,1459.69 L1610.75,1460.12 L1611.45,1460.47 L1612.29,1460.79 L1612.95,1461.13 L1613.53,1461.43 L1614.29,1461.8 L1614.92,1462.04 L1615.63,1462.35 L1616.26,1462.69 L1667.89,1473.55 L1668.64,1473.8 L1715.91,1467.49 L1735.6,1449.99 L1715.91,1467.49 L1735.61,1449.74 L1738.83,1453.44 L1740.62,1452 L1789.97,1410.3 L1785.6,1419.46 L1783.04,1424.53 L1825.36,1380 L1827.48,1380.85 L1828.75,1380.92 L1892.07,1294.05 L1902.57,1285.53 L1903.08,1284.3 L1903.61,1283.36 L1909.13,1283.38 L1910.89,1282.47 L1911.94,1282.19 L1912.92,1281.73 L1913.78,1282.04 L1914.78,1281.87 L1915.75,1281.73 L1916.71,1281.59 L2021.99,1323.66 L2027.86,1325.32 L2028.99,1325.74 L2029.8,1326.34 L2083.8,1344.75 L2146.52,1373.84 L2128.14,1361.63 L2129.18,1361.64 L2129.98,1362.15 L2130.81,1362.58 L2131.7,1363 L2132.59,1363.35 L2133.48,1363.68 L2134.41,1363.89 L2135.31,1364.11 L2215.83,1391.41 L2222.41,1393.02 L2227.71,1394.04 L2228.23,1393.56 L2228.75,1394.01 L2327.56,1323.65 L2328.46,1323.15 L2359.96,1291.74 L2366.39,1289.03 L2368.73,1288.11 L2367.43,1286.89 L2367.3,1286.03 L2367.78,1285.02 L2368.33,1284.17 L2369.03,1283.48 L2396.03,1224.86 L2446.79,1111.11 L2447.71,1110.34 L2448.27,1109.89 L2449.21,1112.63 L2449.79,1112.22 L2451.03,1111.08 L2451.44,1110.59 L2488.38,1028.8 L2497.42,1007.53 L2498.88,1004.2 L2500.19,1001.21 L2499.99,996.955 L2499.65,993.548 L2497.05,986.367 L2498.65,983.123 L2498.03,896.26 L2498.25,896.877 L2497.49,895.72 L2496.04,895.826 L2495.17,896.243 L2494.55,896.627 L2499.1,908.517 L2505.46,948.087 L2504.85,950.315 L2504.3,951.448 L2504.07,952.237 L2494.48,1009.06 L2451.71,1104.4 L2494.48,1009.06 L2451.71,1104.4 L2450.63,1106.81 L2450.14,1107.88 L2443.65,1094.39 L2443.09,1094.83 L2442.59,1095.58 L2402.71,1196.23 L2408.47,1189.82 L2407.84,1191.43 L2407.39,1193.04 L2407.09,1194.63 L2406.7,1196.04 L2406.36,1197.51 L2406.05,1199.08 L2406.15,1200.5 L2405.72,1202 L2405.29,1203.48 L2404.85,1204.91 L2354.58,1297.44 L2352.36,1300.31 L2353.09,1298.71 L2351.68,1302.07 L2350.5,1302.47 L2304.07,1344.57 L2300.55,1349.03 L2304.07,1344.57 L2300.55,1349.04 L2293.91,1361.96 L2292.57,1362.75 L2292.72,1363.4 L2291.47,1364.15 L2259.38,1464.13 L2262.74,1464.74 L2262.3,1465.2 L2228.19,1467.6 L2135.21,1445.05 L2150.42,1459.47 L2149.94,1458.97 L2150.21,1458.15 L2140.16,1457.49 L2066.02,1388.85 L2065.51,1388.42 L2064.56,1387.69 L2063.7,1387.44 L2063.15,1386.72 L2062.03,1386.39 L2058.72,1385.43 L1817.3,1468.29 L1821.37,1467.71 L1820.42,1468.28 L1819.79,1468.92 L1819.24,1469.38 L1818.65,1469.88 L1818.1,1470.47 L1817.14,1470.89 L1816.58,1471.46 L1813.32,1474.97 L1599.25,1542.09 L1600.52,1544.04 L1604.28,1544.91 L1607.01,1546.49 L1606.08,1546.2 L1605.23,1545.96 L1553.33,1533.22 L1553.21,1534.34 L1531.47,1566.9 L1544.71,1535.59 L1544.12,1535.97 L1543.98,1534.87 L1526.48,1560.65 L1526.24,1561.3 L1494.66,1553.17 L1495.65,1550.42 L1495.59,1549.48 L1495.95,1548.41 L1496.2,1547.82 L1577.51,1435.95 L1613.44,1462.1 L1616.21,1463.37 L1618.33,1464.34 L1621.87,1466.3 L1623.2,1466.18 L1624.31,1466.52 L1625.1,1466.76 L1625.29,1467.52 L1696,1470.09 L1778.75,1427.66 L1777.79,1429.05 L1777.14,1429.98 L1778.89,1426.78 L1779.98,1424.68 L1780.69,1428.86 L1780.86,1427.84 L1781.53,1427.37 L1836.23,1375.59 L1848.99,1360.11 L1849.79,1358.14 L1850.4,1356.59 L1836.23,1375.59 L1850.4,1356.59 L1850.92,1355.34 L1851.3,1354.37 L1845.24,1363.94 L1845.75,1363.13 L1846.11,1362.53 L1846.43,1361.47 L1846.56,1360.79 L1847.16,1359.61 L1847.48,1359 L2111.28,1352.12 L2180.38,1376.39 L2182.46,1377.4 L2184.2,1378.26 L2185.22,1380.15 L2187.12,1380.81 L2188.68,1381.37 L2190.09,1381.84 L2191.34,1382.5 L2192.81,1383.04 L2194.38,1383.69 L2195.81,1384.32 L2414.66,1398.7 L2423.33,1395.07 L2420.1,1391.24 L2417.92,1388.68 L2411.31,1393.76 L2420.65,1343.46 L2417.98,1342.69 L2416.95,1342.13 L2416.02,1341.83 L2414.98,1341.63 L2420.95,1317.17 L2500.05,1147.75 L2501.46,1146.29 L2502.27,1145.44 L2515.67,1133.68 L2523.26,1127.15 L2521.99,1131.2 L2522.48,1130.75 L2523.36,1129.96 L2524.29,1129.31 L2525.19,1128.9 L2526.11,1128.36 L2526.86,1127.65 L2492.74,1013.46 L2493.79,1007.47 L2495.81,1001.34 L2497.6,995.914 L2498.04,992.754 L2498.39,990.137 L2499.89,979.296 L2499.85,978.649 L2499.56,977.153 L2491.9,899.548 L2491.83,901.133 L2492.06,900.098 L2508.26,933.986 L2506.18,934.873 L2505.62,935.87 L2492.26,1017.07 L2492.17,1018.11 L2491.76,1019.16 L2491.36,1020.2 L2490.98,1021.24 L2490.65,1022.27 L2490.3,1023.27 L2489.88,1024.25 L2489.29,1025.2 L2488.83,1026.18 L2488.35,1027 L2488.03,1027.55 L2487.68,1028.17 L2488.28,1028.49 L2420.54,1152.18 L2429.35,1140.33 L2428.61,1140.47 L2427.66,1141 L2427.66,1142.05 L2427.06,1142.95 L2351.71,1300.03 L2313.54,1341.25 L2316.84,1335.8 L2316.59,1336.54 L2284.18,1373.01 L2283.99,1466.43 L2282.8,1460.29 L2284.6,1457.49 L2283.96,1457.78 L2283.15,1457.96 L2282.44,1458.23 L2281.66,1458.49 L2277.47,1460.32 L2145.92,1472.97 L2143.81,1473.99 L2142.77,1474.49 L2153.43,1468.56 L2158.84,1465.56 L2161.55,1464.05 L2146.99,1454.11 L2139.74,1449.13 L2136.12,1446.64 L2156.27,1452.49 L2166.4,1455.37 L2171.47,1456.82 L2085.75,1407.04 L2066.35,1396.93 L2065.54,1397.13 L2064.87,1397.29 L2072.19,1392.82 L2070.98,1391.69 L2072.03,1391.08 L2070.74,1389.41 L1956.98,1353.25 L1921.37,1355.35 L1919.58,1356.17 L1918.11,1356.85 L1917.69,1352.71 L1917,1352.92 L1916.34,1353.11 L1915.74,1353.54 L1915.35,1354.05 L1914.26,1354.97 L1913.68,1355.53 L1870.12,1413.53 L1760.8,1510.79 L1773.03,1508.67 L1772.44,1509.05 L1771.74,1509.94 L1770.93,1510.45 L1770.09,1510.81 L1769.3,1511.33 L1768.57,1511.76 L1767.9,1512.14 L1767.22,1512.58 L1593.27,1540.94 L1577.38,1531.67 L1574.7,1531.41 L1574.23,1530.92 L1538.57,1549.68 L1539.98,1548.98 L1530.4,1569.12 L1526.18,1561.4 L1526.18,1561.4 L1529.24,1571.19 L1506.77,1552.56 L1505.25,1552.54 L1504.64,1552.95 L1503.96,1553.25 L1580.66,1435.54 L1578.71,1439.77 L1578.87,1440.6 L1580.56,1442.58 L1711.08,1496.54 L1710.49,1497.18 L1714.6,1468.22 L1715.27,1468.19 L1716.1,1467.7 L1716.68,1467.31 L1878.5,1297.24 L2150.45,1368.2 L2158.06,1371.39 L2163.43,1373.64 L1878.5,1297.24 L2163.43,1373.64 L2167.49,1375.31 L2170.13,1376.43 L2167.29,1372.82 L2170.88,1373.95 L2172.43,1374.53 L2173.86,1375.34 L2175.38,1375.86 L2176.84,1376.36 L2178.37,1376.88 L2179.92,1377.4 L2181.51,1377.94 L2186.39,1379.13 L2443.78,1117.49 L2446.74,1113.2 L2448.2,1111.07 L2438.63,1127.33 L2439.19,1125.71 L2439.83,1125.04 L2440.42,1124.36 L2441.03,1123.45 L2441.61,1122.57 L2442.25,1121.61 L2442.84,1120.72 L2443.47,1119.81 L2444.1,1118.82 L2502.53,972.334 L2511.67,952.891 L2507.45,962.931 L2505.33,967.984 L2504.69,949.885 L2505.55,950.017 L2505.76,949.34 L2505.8,948.559 L2505.8,947.922 L2505.8,947.211 L2506.11,946.498 L2506.29,945.562 L2506.57,944.84 L2506.6,944.146 L2506.61,943.424 L2501.86,886.933 L2501.21,884.987 L2502.17,886.976 L2567.26,941.646 L2565.91,941.488 L2565.17,941.461 L2624.73,932.504 L2728.71,934.675 L2624.73,932.504 L2728.71,934.675 L2706.16,988.649 L2694.77,1015.63 L2689.07,1029.12 L2709.79,981.942 L2719.94,958.347 L2725.01,946.55 L2624.73,932.504 L2423.63,1147.69 L2421.58,1150.63 L2420.55,1152.09 L2624.73,932.504 L2420.55,1152.09 L2420.04,1152.83 L2424.9,1145.87 L2424.34,1146.9 L2423.78,1148.07 L2423.07,1149.44 L2422.46,1150.73 L2421.86,1152.04 L2212.83,1390.64 L2130.12,1359.72 L2118.09,1357.63 L2113.4,1353.93 L2112.25,1353.47 L2111.26,1353.07 L1886.19,1395.61 L1884.56,1396.44 L1854.82,1428.21 L1689.91,1552.12 L1689.32,1552.37 L1693.67,1569.87 L1695.85,1578.89 L1696.97,1583.53 L1679.61,1570.09 L1670.63,1563.19 L1666.01,1559.64 L1565,1530.48 L1548.52,1534.98 L1537.04,1565.17 L1549.32,1534.52 L1535.48,1541.14 L1538.03,1539.28 L1539.32,1538.34 L1548.81,1534.69 L1550.28,1534.42 L1550.95,1534.05 L1551.56,1533.55 L1528.12,1492.64 L1555.82,1429.38 L1560.37,1427.47 L1563.94,1425.96 L1565.44,1432.86 L1566.31,1432.53 L1566.95,1432.77 L1567.83,1433.07 L1568.73,1433.25 L1569.82,1433.57 L1570.71,1433.8 L1598.68,1455.18 L1691.87,1471.79 L1694.52,1471.52 L1695.83,1471.39 L1686.65,1472.96 L1688.08,1472.74 L1784.16,1422.68 L1784.34,1421.94 L1784.64,1421.37 L1784.84,1420.58 L1785.2,1419.83 L1785.84,1418.68 L1825.06,1380.09 L1922.62,1274.85 L1926.53,1272.84 L1928.73,1271.72 L1825.06,1380.09 L1937.45,1281.63 L1926.27,1282.29 L1926.99,1282.5 L1927.78,1282.54 L1928.45,1282.57 L1929.33,1282.77 L2005.78,1320.24 L2005.7,1318.34 L2006.68,1318.67 L2007.47,1318.92 L2085.15,1345.22 L2171.24,1375.36 L2178.99,1377.69 L2183.33,1379 L2085.15,1345.22 L2183.33,1379 L2185.82,1379.75 L2187.19,1380.16 L2184.86,1378.79 L2186.16,1379.72 L2187.42,1380.03 L2188.53,1380.2 L2189.73,1380.57 L2190.67,1381.4 L2191.88,1381.92 L2192.98,1382.39 L2366.29,1285.5 L2386.23,1256.73 L2386.51,1255.68 L2386.72,1254.84 L2366.29,1285.5 L2386.72,1254.84 L2386.92,1254.1 L2388.43,1258.54 L2387.93,1257.98 L2388.26,1257.13 L2388.44,1256.22 L2388.64,1255.51 L2389.09,1254.63 L2389.39,1253.7 L2389.71,1252.92 L2420.95,1157.76 L2428.56,1098.23 L2454.21,1091.4 L2469.83,1087.26 L2497.04,1063.81 L2496.36,1063.39 L2495.55,1063.37 L2494.84,1063.57 L2493.95,1063.68 L2493,1063.8 L2492.06,1063.92 L2491.2,1064.05 L2490.41,1064.15 L2500.7,968.703 L2505.17,945.599 L2506.5,938.75 L2507.44,933.884 L2500.7,968.703 L2507.44,933.884 L2508.12,930.387 L2508.6,927.929 L2505.88,929.196 L2505.87,930.165 L2502.71,900.142 L2507.16,941.644 L2506.01,944.986 L2505.86,945.998 L2505.73,946.749 L2505.27,947.313 L2493.35,1011.26 L2482.74,1037.55 L2481.86,1040.43 L2481.07,1042.97 L2484.4,1031.91 L2483.55,1033.06 L2462.38,1088.6 L2421.57,1151.08 L2426.14,1137.5 L2426.32,1138.84 L2426.36,1140.11 L2426.46,1141.37 L2426.29,1142.34 L2425.95,1143.13 L2425.47,1144.04 L2425,1144.83 L2424.65,1145.59 L2424.27,1146.33 L2421.68,1151.29 L2353.49,1297.06 L2353.63,1296.35 L2357.65,1295.33 L2357.47,1293.49 L2356.71,1294.43 L2356.53,1295.26 L2356.28,1295.93 L2355.65,1296.58 L2310.13,1342.76 L2309.61,1343.24 L2308.37,1344.54 L2306.69,1346.37 L2306.24,1347.19 L2305.25,1347.02 L2263.84,1376.44 L2286.04,1453.43 L2263.84,1376.44 L2285.96,1453.41 L2281.31,1455.7 L2279.47,1456.51 L2278.23,1457.16 L2277.62,1457.74 L2277.37,1458.52 L2277.01,1459.47 L2275.56,1460.72 L2171.01,1460.25 L2167.87,1456.43 L2168.28,1457.29 L2167.65,1457.63 L2120.68,1433.48 L2086.55,1403.84 L2079.78,1398.22 L2078.79,1397.03 L2078.42,1396.5 L2077.31,1395.05 L1880.66,1402.11 L1870.98,1400.32 L1878.28,1404.25 L1877.01,1405.99 L1876.01,1407.24 L1874.87,1408.49 L1873.61,1409.52 L1872.41,1410.59 L1871.2,1411.84 L1869.91,1412.88 L1805.33,1486.84 L1638.55,1549.48 L1641.97,1558.44 L1641,1557.65 L1640.06,1557.18 L1639.25,1556.92 L1638.34,1556.94 L1637.42,1556.7 L1636.56,1556.58 L1635.68,1556.28 L1634.79,1555.95 L1563.1,1531.88 L1560.43,1532.63 L1559.53,1534.45 L1557.74,1534.2 L1559.63,1534.81 L1531.56,1566.78 L1530.4,1569.12 L1536.37,1566.22 L1535.95,1566.4 L1535.82,1565.53 L1546.09,1536.51 L1545.25,1536.68 L1526.4,1561.43 L1547.52,1535.52 L1549.05,1534.73 L1829.29,1468.98 L1844.41,1393.78 L1860.09,1399.23 L1868.04,1402.14 L1877.11,1408.04 L1878.11,1407.92 L1878.92,1407.43 L1879.72,1406.86 L1880.31,1406.05 L1882.31,1403.78 L1982.19,1339.04 L1882.31,1403.78 L1995.02,1355.55 L2009.34,1370.38 L2010.14,1370.84 L2010.85,1371.15 L2012.81,1372.04 L2091.66,1372.54 L2118.73,1362.25 L2125.59,1361.74 L2129.02,1361.48 L2130.73,1361.36 L2012.81,1372.04 L2132.02,1361.26 L2131.09,1362.54 L2132.22,1362.79 L2133.2,1363.08 L2134.15,1363.4 L2134.83,1363.49 L2135.98,1363.66 L2312.04,1340.42 L2400.98,1176.12 L2411.71,1177.22 L2412.18,1176.51 L2412.61,1175.62 L2413.02,1174.75 L2413.51,1173.83 L2413.92,1172.85 L2424.41,1148.97 L2475.91,1062.53 L2424.41,1148.97 L2475.91,1062.53 L2475.23,1062.61 L2485.88,1063.55 L2487.52,1063.43 L2488.22,1063.77 L2499.6,978.75 L2500.02,896.836 L2499.6,978.75 L2500.02,896.836 L2505.89,935.58 L2506.02,938.063 L2506.03,938.978 L2506.09,939.74 L2495,1001.45 L2451.95,1069.18 L2447.97,1069.57 L2445.98,1069.77 L2454.21,1069.47 L2454.24,1070.72 L2453.88,1071.43 L2453.39,1072.12 L2453.05,1072.91 L2452.7,1073.71 L2452.36,1074.47 L2450.14,1080.07 L2393.27,1211.78 L2408.64,1187.41 L2408.15,1188.08 L2407.92,1188.83 L2407.62,1189.64 L2407.34,1190.48 L2332.98,1317.51 L2318.08,1332.68 L2315.24,1336.28 L2313.84,1338.07 L2326.71,1332.9 L2320.87,1331.59 L2320.27,1332 L2319.55,1332.52 L2318.82,1332.74 L2264.58,1377.53 L2299.91,1438.68 L2300.55,1444.85 L2300.72,1445.68 L2300.44,1446.52 L2300.21,1447.37 L2300.06,1448.01 L2299.85,1448.66 L2299.49,1449.23 L2299.05,1449.77 L2298.58,1450.28 L2298.06,1450.68 L2293.88,1453.25 L2190.19,1461.59 L2195.58,1462.61 L2194.92,1462.18 L2193.75,1462.11 L2099.9,1418.64 L2093.31,1416.79 L2096.56,1413.73 L2093.05,1412.34 L2090.2,1410.79 L2089.29,1409.73 L2088.67,1408.95 L2088.08,1408.36 L2035.21,1380.65 L1914.04,1358.54 L1914.99,1356.41 L1913.27,1357.06 L1912.59,1357.73 L1911.82,1358.54 L1911.04,1359.46 L1910.32,1360.37 L1909.42,1361 L1908.83,1361.79 L1908.33,1362.51 L1857.11,1428.69 L1843.46,1445.84 L1838.02,1450.45 L1833.88,1454.01 L1830.13,1459.37 L1829.43,1458.66 L1828.52,1459.4 L1828.03,1459.91 L1827.41,1460.43 L1739.53,1527.8 L1593.12,1540.54 L1594.49,1542.01 L1538.99,1540.15 L1537.73,1540.44 L1537.04,1540.51 L1536.23,1540.59 L1535.4,1540.52 L1534.5,1540.77 L1529.23,1571.25 L1529.61,1570.19 L1526.01,1561.19 L1540.37,1539.18 L1529.2,1569.55 L1529.78,1569 L1531.21,1568.8 L1525.51,1491.67 L1527.75,1491.04 L1528.06,1490.41 L1528.43,1489.81 L1528.8,1489.25 L1529.01,1488.55 L1529.44,1487.84 L1529.84,1487.03 L1611.44,1461.44 L1696.37,1471.82 L1688.25,1473.57 L1689.4,1473.28 L1690.19,1473.09 L1691.09,1472.84 L1691.93,1472.92 L1979.74,1306.96 L1981.27,1307.57 L1982.8,1308.04 L1984.18,1308.66 L1985.75,1309.35 L1987.29,1310.13 L1988.81,1310.75 L1990.35,1311.41 L1991.94,1312.11 L1993.49,1312.76 L2323.86,1328.71 L2356.81,1290.98 L2359.14,1289.03 L2360.92,1287.65 L2377.89,1272.35 L2378.62,1271.66 L2379.29,1270.79 L2380.05,1269.95 L2380.82,1268.99 L2381.63,1268.07 L2483.82,1062.55 L2482.67,1062.49 L2482.04,1062.27 L2481.44,1061.93 L2506.24,924.622 L2504.72,927.783 L2504.5,928.682 L2499.01,907.58 L2488.34,1028.73 L2459.01,1096.86 L2456.29,1101.84 L2454.94,1104.32 L2461,1099.27 L2460.14,1100.06 L2459.38,1100.74 L2458.83,1101.35 L2458.33,1101.8 L2397.14,1220.91 L2377.39,1274.81 L2375.92,1274.27 L2374.66,1273.8 L2397.14,1220.91 L2374.66,1273.8 L2373.57,1273.4 L2372.64,1273.04 L2373.16,1273.41 L2368.65,1281.69 L2368.52,1282.59 L2367.86,1283.2 L2367.37,1283.62 L2295.39,1358.71 L2291.87,1364.43 L2290.06,1365.44 L2289.37,1366.34 L2289.08,1366.9 L2264.63,1377.6 L2258.48,1478.65 L2266.74,1474.69 L2272.29,1472.04 L2273.04,1461.71 L2272.34,1462.15 L2271.05,1462.7 L2137.64,1391.88 L2118.58,1432.53 L2118.01,1431.64 L2117.62,1431.11 L2116.63,1430.06 L2115.95,1429.56 L2070.98,1391.45 L1966.49,1349.01 L1979.49,1356.16 L1988.14,1360.92 L1980.5,1359.05 L1975.52,1357.86 L1987.77,1362.07 L1986.5,1362.21 L1985.24,1362.08 L1984.56,1361.66 L1983.79,1361.42 L1983.02,1361.19 L1976.87,1359.47 L1760.46,1511.63 L1753.4,1520.04 L1752.57,1521.14 L1751.55,1521.81 L1750.63,1522.33 L1749.68,1522.94 L1748.84,1523.62 L1747.98,1524.19 L1747.1,1524.72 L1746.25,1525.27 L1745.42,1525.81 L1591.16,1539.98 L1579.8,1534.52 L1574.12,1531.8 L1571.28,1530.43 L1591.16,1539.98 L1571.28,1530.43 L1569.86,1529.75 L1569.15,1529.41 L1571.01,1529.67 L1571.83,1529.18 L1572,1528.54 L1539.2,1539.23 L1535.66,1539.9 L1528.48,1569.49 L1529.65,1569.51" fill-rule="evenodd"/>
  </g>
  <g stroke="#000000" font-family="MS Shell Dlg 2" fill="none" stroke-width="1" stroke-linecap="square" font-style="normal" font-size="34.375" transform="matrix(0.999751,0,0,0.999751,0,0)" stroke-linejoin="bevel" font-weight="400" stroke-opacity="1"/>
  <g stroke="#000000" font-family="MS Shell Dlg 2" fill="none" stroke-width="1" stroke-linecap="square" font-style="normal" font-size="34.375" transform="matrix(11.8081,0,0,11.8081,0,0)" stroke-linejoin="bevel" font-weight="400" stroke-opacity="1"/>
  <g stroke="#000000" font-family="MS Shell Dlg 2" fill="none" stroke-width="1" stroke-linecap="square" font-style="normal" font-size="34.375" transform="matrix(11.8081,0,0,11.8081,0,0)" stroke-linejoin="bevel" font-weight="400" stroke-opacity="1"/>
  <g stroke="#000000" font-family="MS Shell Dlg 2" fill="none" stroke-width="1" stroke-linecap="square" font-style="normal" font-size="34.375" transform="matrix(11.8081,0,0,11.8081,0,0)" stroke-linejoin="bevel" font-weight="400" stroke-opacity="1"/>
  <g stroke="#000000" font-family="MS Shell Dlg 2" fill="none" stroke-width="1" stroke-linecap="square" font-style="normal" font-size="34.375" transform="matrix(1,0,0,1,0,0)" stroke-linejoin="bevel" font-weight="400" stroke-opacity="1"/>
  <g stroke="#000000" font-family="MS Shell Dlg 2" fill="none" stroke-width="1" stroke-linecap="square" font-style="normal" font-size="34.375" transform="matrix(11.8081,0,0,11.8081,0,0)" stroke-linejoin="bevel" font-weight="400" stroke-opacity="1"/>
  <g stroke="#000000" font-family="MS Shell Dlg 2" fill="none" stroke-width="1" stroke-linecap="square" font-style="normal" font-size="34.375" transform="matrix(11.8081,0,0,11.8081,0,0)" stroke-linejoin="bevel" font-weight="400" stroke-opacity="1"/>
  <g stroke="#000000" font-family="MS Shell Dlg 2" fill="none" stroke-width="1" stroke-linecap="square" font-style="normal" font-size="34.375" transform="matrix(11.8081,0,0,11.8081,0,0)" stroke-linejoin="bevel" font-weight="400" stroke-opacity="1"/>
  <g stroke="#000000" font-family="MS Shell Dlg 2" fill="none" stroke-width="1" stroke-linecap="square" font-style="normal" font-size="34.375" transform="matrix(11.8081,0,0,11.8081,0,0)" stroke-linejoin="bevel" font-weight="400" stroke-opacity="1"/>
  <g stroke="#000000" font-family="MS Shell Dlg 2" fill="none" stroke-width="1" stroke-linecap="square" font-style="normal" font-size="34.375" transform="matrix(1,0,0,1,0,0)" stroke-linejoin="bevel" font-weight="400" stroke-opacity="1"/>
 </g>
 <metadata>
  <rdf:RDF xmlns:dc="http://purl.org/dc/elements/1.1/" xmlns:rdf="http://www.w3.org/1999/02/22-rdf-syntax-ns#" xmlns:rdfs="http://www.w3.org/2000/01/rdf-schema#">
   <rdf:Description dc:date="2024-09-25T09:46:49" dc:title="" dc:identifier="" dc:description="" dc:format="image/svg+xml">
    <dc:creator>
     <rdf:Bag>
      <rdf:li>Michele</rdf:li>
     </rdf:Bag>
    </dc:creator>
    <dc:publisher>
     <rdf:Bag>
      <rdf:li>QGIS 3.28.15-Firenze</rdf:li>
     </rdf:Bag>
    </dc:publisher>
    <dc:subject>
     <rdf:Bag/>
    </dc:subject>
   </rdf:Description>
   <cc:Work rdf:about="">
    <dc:format>image/svg+xml</dc:format>
    <dc:title></dc:title>
    <dc:date>2024-09-25T09:46:49</dc:date>
    <dc:identifier></dc:identifier>
    <dc:description></dc:description>
    <dc:creator>
     <cc:Agent>
      <dc:title>Michele</dc:title>
     </cc:Agent>
    </dc:creator>
    <dc:publisher>
     <cc:Agent>
      <dc:title>QGIS 3.28.15-Firenze</dc:title>
     </cc:Agent>
    </dc:publisher>
   </cc:Work>
  </rdf:RDF>
 </metadata>
</svg>
