<?xml version='1.0' encoding='UTF-8' standalone='no'?>
<svg xmlns="http://www.w3.org/2000/svg" version="1.2" xmlns:xlink="http://www.w3.org/1999/xlink" width="296.926mm" viewBox="0 0 3507 2480" xmlns:cc="http://creativecommons.org/ns#" height="209.973mm" baseProfile="tiny">
 <defs/>
 <g stroke="black" fill-rule="evenodd" fill="none" stroke-width="1" stroke-linecap="square" stroke-linejoin="bevel">
  <g stroke="#000000" font-family="MS Shell Dlg 2" fill="none" stroke-width="1" stroke-linecap="square" font-style="normal" font-size="34.375" transform="matrix(1,0,0,1,0,0)" stroke-linejoin="bevel" font-weight="400" stroke-opacity="1"/>
  <g stroke="#000000" font-family="MS Shell Dlg 2" fill="none" stroke-width="1" stroke-linecap="square" font-style="normal" font-size="34.375" transform="matrix(1,0,0,1,0,0)" stroke-linejoin="bevel" font-weight="400" stroke-opacity="1"/>
  <g stroke="#000000" font-family="MS Shell Dlg 2" fill="none" stroke-width="1" stroke-linecap="square" font-style="normal" font-size="34.375" transform="matrix(11.8081,0,0,11.8081,0,0)" stroke-linejoin="bevel" font-weight="400" stroke-opacity="1"/>
  <g stroke="#000000" font-family="MS Shell Dlg 2" fill="none" stroke-width="1" stroke-linecap="square" font-style="normal" font-size="34.375" transform="matrix(0.999751,0,0,0.999751,0,0)" stroke-linejoin="bevel" font-weight="400" stroke-opacity="1"/>
  <g stroke="none" font-family="MS Shell Dlg 2" fill="#ffffff" font-style="normal" fill-opacity="1" font-size="34.375" transform="matrix(0.999751,0,0,0.999751,0,0)" font-weight="400">
   <path vector-effect="none" d="M-2,-2 L3510,-2 L3510,2483 L-2,2483 L-2,-2" fill-rule="evenodd"/>
  </g>
  <g stroke="#000000" font-family="MS Shell Dlg 2" fill="none" stroke-width="1" stroke-linecap="square" font-style="normal" font-size="34.375" transform="matrix(0.999751,0,0,0.999751,0,0)" stroke-linejoin="bevel" font-weight="400" stroke-opacity="1"/>
  <g stroke="#000000" font-family="MS Shell Dlg 2" fill="none" stroke-width="1" stroke-linecap="square" font-style="normal" font-size="34.375" transform="matrix(11.8081,0,0,11.8081,0,0)" stroke-linejoin="bevel" font-weight="400" stroke-opacity="1"/>
  <g stroke="#000000" font-family="MS Shell Dlg 2" fill="none" stroke-width="1" stroke-linecap="square" font-style="normal" font-size="34.375" transform="matrix(11.8081,0,0,11.8081,0,0)" stroke-linejoin="bevel" font-weight="400" stroke-opacity="1"/>
  <g stroke="#000000" font-family="MS Shell Dlg 2" fill="none" stroke-width="1" stroke-linecap="square" font-style="normal" font-size="34.375" transform="matrix(11.8081,0,0,11.8081,0,0)" stroke-linejoin="bevel" font-weight="400" stroke-opacity="1"/>
  <g stroke="#000000" font-family="MS Shell Dlg 2" fill="none" stroke-width="1" stroke-linecap="square" font-style="normal" font-size="34.375" transform="matrix(11.8081,0,0,11.8081,0,0)" stroke-linejoin="bevel" font-weight="400" stroke-opacity="1"/>
  <g stroke="#000000" font-family="MS Shell Dlg 2" fill="none" stroke-width="1" stroke-linecap="square" font-style="normal" font-size="34.375" transform="matrix(11.8081,0,0,11.8081,0,0)" stroke-linejoin="bevel" font-weight="400" stroke-opacity="1"/>
  <g stroke="#000000" font-family="MS Shell Dlg 2" fill="none" stroke-width="1" stroke-linecap="square" font-style="normal" font-size="34.375" transform="matrix(11.8081,0,0,11.8081,0,0)" stroke-linejoin="bevel" font-weight="400" stroke-opacity="1"/>
  <g stroke="none" font-family="MS Shell Dlg 2" fill="#000000" font-style="normal" fill-opacity="0" font-size="34.375" transform="matrix(0.999751,0,0,0.999751,0,0)" font-weight="400">
   <rect x="0" y="0" width="3508" height="2480"/>
  </g>
  <g stroke="#000000" font-family="MS Shell Dlg 2" fill="none" stroke-width="1" stroke-linecap="square" font-style="normal" font-size="34.375" transform="matrix(0.999751,0,0,0.999751,0,0)" stroke-linejoin="bevel" font-weight="400" stroke-opacity="1"/>
  <g stroke="#cf1764" font-family="MS Shell Dlg 2" fill="none" stroke-width="3.07087" stroke-linecap="square" font-style="normal" font-size="34.375" transform="matrix(0.999751,0,0,0.999751,0,0)" stroke-linejoin="bevel" font-weight="400" stroke-opacity="1">
   <path vector-effect="none" d="M1524.89,1557.32 L1499.91,1553.05 L1526.11,1561.21 L1524.37,1561.27 L1907.48,1556.33 L1896.6,1518.18 L1877.64,1528.06 L1877.68,1528.57 L1877.82,1528.2 L1917.53,1588.27 L1990.53,1784.63 L-251.407,2279.52 L-324.475,2255.93 L192.781,2728.91 L489.484,2729.72 L320.483,2623.79 L1099.45,1758.09 L418.843,2729.54 L446.231,2729.61 L1795.85,1551.88 L1525.09,1557.25 L1877.59,1528.05 L2325.98,2731.01 L2032.11,2731.23 L1528.49,1562.39 L1877.74,1528.18 L1526.2,1559.54 L1969.53,1531.46 L1877.68,1527.9 L2331.07,1497.57 L358.771,2709.96 L1525.16,1557.27 L1484.05,1565.09 L1877.42,1525.61 L1878.11,1527.92 L1877.58,1528.08 L1877.58,1528.08 L1893.56,1513.26 L1705.96,1591.81 L1893.56,1513.26 L1480.66,1609 L1470.71,1608.6 L1480.59,1565.12 L1523.27,1555.98 L1524.11,1554.07 L1524.47,1554.68 L1525.53,1557.44 L1556.26,1533.82 L1555.99,1533.08 L1555.27,1534.34 L1568.41,1524.38 L1648.93,1564.47 L1751.91,1562.67 L1901.23,1554.38 L1905.44,1555.65 L1751.91,1562.67 L1905.44,1555.65 L1907.59,1556.29 L1850.27,1550.78 L1822.31,1547.93 L1877.58,1528.08 L1882.37,1521.16 L1882.26,1520.43 L1813.35,1538.33 L1809.48,1539.43 L1808.4,1539.85 L1807.15,1540.69 L1805.9,1541.16 L1805.28,1541.63 L1804.62,1541.93 L1827.11,1550.07 L1842.76,1553.16 L1828.53,1548.35 L1831.11,1553.5 L1832.19,1553.48 L1833.34,1553.27 L1834.01,1553.18 L1834.85,1553.06 L1835.72,1553.07 L1886.21,1594.59 L1890.23,1597.18 L1891.03,1615.49 L1891.32,1616.68 L1891.72,1617.96 L1892.32,1619.5 L1892.56,1620.41 L1892.85,1621.27 L2061.89,1932 L2062.84,1933.27 L2063.76,1934.53 L2064.67,1935.79 L2065.36,1937.27 L2066.31,1938.6 L2067.23,1939.89 L2068.15,1941.17 L2069.06,1942.46 L2070.02,1943.81 L2070.98,1945.16 L2287.27,2231.95 L2348.5,2416.78 L2348.63,2429.44 L2348.7,2436.25 L2346.97,2445.98 L2350.6,2442.54 L2350.59,2444.03 L2350.56,2445.73 L2350.64,2447.48 L2350.56,2449.08 L2350.57,2450.94 L2351.97,2676.3 L2352.08,2730.98 L2352.88,2730.98 L2352.91,2729.91 L2353.02,2727.41 L2352.7,2725.95 L2352.62,2724.4 L2352.63,2722.67 L2352.6,2721.04 L2352.69,2719.35 L2352.72,2717.67 L2349.85,2451.12 L2341.59,2327.37 L2341.55,2326.68 L2336.36,2309.68 L2336.41,2307.92 L2336.37,2306.42 L2336.14,2304.83 L2335.9,2303.23 L2335.72,2301.65 L2335.5,2300.02 L2333.44,2288.88 L2076.2,1951.35 L2067.48,1935.2 L2065.49,1934.88 L2064.9,1933.87 L2064.14,1933.11 L2063.51,1932.33 L2062.79,1931.56 L2062.16,1930.7 L2288.49,2231.29 L1889.79,1605.98 L1889.44,1604.68 L1889.04,1603.42 L1888.68,1602.28 L1888.3,1601.34 L1888.21,1600.59 L1888.01,1599.78 L1887.69,1598.88 L1887.47,1598.1 L1887.35,1597.41 L1887.11,1596.7 L1826.1,1547.52 L1819.46,1549.62 L1823.84,1547.75 L1818.07,1542.16 L1818.43,1542.71 L1877.59,1518.88 L1878.75,1518.81 L1878.51,1520.05 L1874.77,1524.04 L1902.63,1538.85 L1896.04,1521.33 L1896.96,1528.43 L1897.36,1531.28 L1902.24,1537.16 L1903.85,1537.4 L1903.22,1537.85 L1916.05,1572.19 L1916.38,1572.97 L1918.79,1570.98 L1858.14,1557.87 L1856.42,1554.9 L1756.38,1560.47 L1745.05,1556.5 L1735.51,1553.12 L1727.05,1550.13 L1699.08,1575.61 L1469.75,1472.11 L1566.3,1530.08 L1563.85,1532.03 L1564.42,1531.65 L1513.8,1552.76 L1512.87,1553.08 L1512.93,1552.43 L1568.68,1524.51 L1547.77,1535.26 L1546.7,1535.76 L1547.04,1534.83 L1588.99,1539.69 L1592.28,1539.29 L1592.98,1539.96 L1593.46,1540.4 L1688.88,1592.9 L1686.86,1586.29 L1694.46,1595.37 L1692.07,1587.87 L1691.82,1587 L1691.93,1585.14 L1692.46,1584.25 L1693.09,1583.57 L1693.69,1583.08 L1783.78,1549.5 L1796.04,1545.16 L1796.32,1543.8 L1796.48,1545.22 L1797.16,1544.9 L1839.35,1528.83 L1857.47,1522.27 L1860.62,1521.74 L1873.47,1515.94 L1876.06,1513.7 L1876.94,1513.76 L1877.61,1513.69 L1878.22,1513.29 L1887.52,1532.43 L1887.25,1533.03 L1909.28,1556.54 L1898.03,1526.72 L1897.6,1527.59 L1877.8,1528.27 L1877.73,1528.29 L1878.47,1527.41 L1877.49,1527.63 L1875.1,1494.7 L1875.36,1493.84 L1875.65,1493.07 L1875.73,1492.36 L1877.4,1526.44 L1877.31,1527.14 L1885.66,1495.87 L1885.44,1495.22 L1894.53,1465.51 L1895.22,1465.26 L1922.61,1450.76 L1923.19,1450.4 L1896.02,1467.97 L1895.6,1468.5 L1886.1,1498.03 L1886.34,1498.72 L1877.2,1528.43 L1877.73,1528.21 L1877.61,1526.97 L1893.08,1510.72 L1675.78,1629.15 L1666.27,1633.48 L1893.08,1510.72 L1445.21,1584.51 L1484.51,1561.97 L1524.62,1556.71 L1523.88,1556.24 L1523.99,1557.1 L1525.17,1557.54 L1538.67,1553.54 L1539.16,1553.43 L1549.42,1534.7 L1549.66,1533.67 L1549.78,1532.41 L1549.54,1533.88 L1590.46,1539.43 L1580.58,1534.51 L1581.39,1534.85 L1593.71,1541.05 L1594.24,1540.38 L1594.1,1539.72 L1594.79,1539.85 L1667.16,1572.22 L1713.34,1574.7 L1725.99,1571.57 L1732.3,1570.05 L1735.46,1569.29 L1727.7,1572.28 L1728.66,1569.25 L1729.64,1569.06 L1730.32,1568.93 L1731.14,1568.76 L1731.91,1568.55 L1732.7,1568.27 L1733.48,1568.06 L1734.24,1567.76 L1799.11,1544.45 L1819.93,1536.51 L1817.95,1536.53 L1818.89,1535.65 L1819.58,1535.66 L1821.21,1535.11 L1822.3,1535.49 L1823.34,1535.21 L1824.42,1534.78 L1825.08,1534.51 L1882.16,1512.67 L1883.2,1512.37 L1884.04,1511.26 L1884.98,1511.27 L1886.22,1511.77 L1877.33,1527.56 L1877.61,1528.32 L1877.33,1527.56 L1877.68,1527.87 L1849.9,1524.88 L1849.05,1524.59 L1847.87,1525.27 L1846.78,1525.68 L1846.15,1525.87 L1845.58,1526.14 L1844.93,1526.3 L1844.07,1526.5 L1784.3,1548.9 L1780.95,1549.69 L1779.94,1549.54 L1779.98,1551.42 L1769.64,1555.7 L1769.28,1557.21 L1768.01,1557.76 L1766.82,1558.12 L1766.04,1557.94 L1664.06,1567.73 L1645.53,1555.79 L1637.47,1563.13 L1638.59,1562.66 L1636.54,1562.93 L1634.79,1562.56 L1514.69,1552.04 L1514.85,1551.25 L1525.37,1557.18 L1518.25,1554.47 L1542.64,1537.67 L1552.44,1535.15 L1551.63,1534.49 L1553,1533.53 L1555.66,1533.5 L1556.73,1532.55 L1556.65,1533.99 L1568.4,1524.31 L1640.51,1532.85 L1678.81,1542.6 L1568.4,1524.31 L1747.78,1558.78 L1750.9,1560.07 L1794.91,1543.95 L1826.57,1544.27 L1830.44,1544.34 L1833.73,1544.4 L1836.54,1544.45 L1838.93,1544.49 L1840.98,1544.53 L1909.35,1556.68 L1897.85,1526.68 L1899.3,1525.82 L1877.33,1527.56 L1877.85,1527.97 L1877.51,1528.36 L1887.93,1556.79 L1888.26,1557.42 L1888.63,1558.2 L1796.83,1567.85 L1784.88,1573.67 L1784.06,1574.11 L1783.37,1574.47 L1776.09,1579.95 L1774.56,1580.71 L1773.02,1580.73 L1772.39,1581.78 L1771.34,1582.07 L1770.45,1582.31 L1769.52,1582.83 L1768.59,1583.33 L1767.64,1583.87 L1696.23,1597.26 L1641.59,1553.83 L1631.54,1553.96 L1630.65,1553.35 L1629.97,1552.88 L1560.45,1533.44 L1559.98,1533.92 L1524.06,1560.81 L1877.72,1527.95 L1530.99,1555.99 L1546.82,1535.73 L1546.32,1535.27 L1546.97,1535.19 L1535.9,1551.76 L1540.5,1540.95 L1531.09,1555.78 L1582.94,1535.62 L1585.16,1535.93 L1585.67,1537.8 L1586.64,1538.27 L1587.47,1538.68 L1649.38,1572.11 L1669.54,1579.17 L1667.31,1576.99 L1658.54,1571.74 L1659.51,1574.05 L1660.19,1574.08 L1660.93,1574.17 L1774.87,1551.03 L1775.73,1553.06 L1775.78,1552.11 L1775.42,1551.33 L1833.48,1531.75 L1833.84,1530.27 L1898.97,1527.57 L1900.98,1532.76 L1900.93,1533.9 L1901.37,1535.03 L1902.07,1535.88 L1913.84,1572.5 L1914.2,1573.05 L1907.47,1558.45 L1903.48,1540.7 L1903.75,1540.08 L1902.78,1541.66 L1877.69,1528.12 L1877.69,1528.29 L1877.79,1528.19 L1868.21,1517.78 L1801.25,1543.21 L1800.66,1543.5 L1799.96,1544.67 L1799.6,1546.16 L1799.8,1544.27 L1733.92,1569.76 L1716.18,1577.15 L1719.17,1575.05 L1719.74,1572.34 L1718.77,1572.21 L1718.16,1572.4 L1717.21,1572.74 L1716.56,1573.13 L1601.86,1544.76 L1597.92,1541.87 L1599.98,1542.2 L1592.72,1539.46 L1589.12,1538.1 L1589.23,1540.31 L1590.02,1540.3 L1590.8,1539.72 L1589.56,1539.38 L1589.76,1538.58 L1588.96,1537.91 L1588.03,1537.93 L1587.4,1536.99 L1586.67,1536.48 L1533.8,1541.65 L1532.08,1541.49 L1534.28,1540.59 L1533.75,1541.99 L1533.45,1541.33 L1524.4,1561.69 L1563.09,1520.63 L1564.65,1520.35 L1564.86,1519.55 L1641.83,1565.54 L1642.29,1566.16 L1768.86,1555.49 L1768.46,1554.44 L1769.26,1554.18 L1769.98,1553.8 L1833.99,1531.23 L1833.24,1530.86 L1865.92,1518.79 L1866.71,1518.68 L1867.47,1518.48 L1868.25,1518.29 L1869.03,1517.98 L1869.91,1517.7 L1870.73,1517.34 L1871.56,1517.08 L1872.33,1516.76 L1873.1,1516.48 L1873.79,1516.21 L1885.24,1484.73 L1883.78,1479.77 L1883.3,1518.98 L1886.69,1510.95 L1884.77,1514.55 L1882.61,1518.61 L1883.08,1525.12 L1880.06,1526.81 L1877.22,1528.22 L1877.37,1527.57 L1877.81,1528.33 L1889.93,1522.82 L1877.75,1528.23 L1878.08,1527.68 L1877.89,1528.57 L1907.09,1550.38 L1907.1,1551.14 L1907.83,1552.42 L1907.95,1553.16 L1909.47,1568.06 L1907.99,1567.85 L1894.78,1521.22 L1880.59,1549.5 L1881.06,1550.09 L1895.99,1577.32 L1896.14,1577.95 L1896.58,1579.04 L1896.87,1580.05 L1897.24,1581.07 L1897.59,1582.12 L1852.29,1655.51 L1850.67,1656.62 L1851.61,1656.25 L1852.33,1655.62 L1870.26,1648.87 L1869.91,1649.39 L1862.05,1659.06 L1899.22,1612.56 L1902,1609.16 L1903.89,1610.43 L1904.8,1610.09 L1910.58,1559.28 L1911,1557.45 L1911.67,1557.45 L1895.01,1528.4 L1894.8,1527.54 L1894.76,1560.28 L1894,1560.48 L1893.32,1560.67 L1878.27,1532.51 L1878.74,1549.8 L1879.56,1542.49 L1878.95,1535.08 L1879.18,1534.42 L1889.52,1497.91 L1888.5,1497.78 L1889.03,1497.31 L1879.48,1466.52 L1878.78,1465.4 L1878.35,1463.82 L1879.22,1462.35 L1878.9,1461.18 L1878.66,1460.14 L1878.45,1459.3 L1878.2,1458.3 L1877.96,1457.33 L1876.65,1456.72 L1876.45,1455.83 L1818.56,1358.68 L1817.55,1359.93 L1819.9,1358.68 L1819.55,1358.09 L1818.9,1358.22 L1804.54,1333.27 L1804.09,1332.5 L1803.75,1331.91 L1774.63,1326.37 L1771.32,1333.24 L1771.11,1336.04 L1769.54,1335.93 L1768.56,1335.99 L1767.77,1336.06 L1766.34,1336.53 L1765.99,1337.57 L1766.13,1338.87 L1699.21,1343.23 L1665.66,1345.71 L1664.57,1345.79 L1663.04,1345.01 L1659.17,1342.9 L1658.46,1342.92 L1657.68,1342.86 L1656.77,1342.83 L1655.98,1342.75 L1655.11,1342.84 L1654.24,1342.84 L1653.37,1342.84 L1631.93,1340.66 L1628.55,1337.46 L1629.49,1338.56 L1686.14,1341.47 L1686.58,1342.16 L1688.04,1341.96 L1688.82,1341.97 L1690,1342.04 L1690.72,1342.13 L1744.89,1365.9 L1744.66,1364.46 L1743.16,1365.24 L1811.38,1378.03 L1811.99,1377.24 L1812.71,1374.97 L1813.51,1374.39 L1814.16,1373.71 L1814.57,1373 L1881.87,1474.24 L1884.07,1483.3 L1884.91,1487.41 L1897.84,1525.33 L1877.69,1527.97 L1877.78,1528.26 L1896.73,1522.64 L1851.12,1524.15 L1850.15,1524.42 L1849.09,1524.77 L1847.92,1525.16 L1846.8,1525.67 L1734.44,1569.76 L1697.88,1579.67 L1700.32,1578.62 L1703.16,1576.45 L1695.19,1596.76 L1599.88,1543.58 L1591.45,1540.22 L1589.94,1539.41 L1586.07,1537.5 L1584.57,1536.63 L1524.54,1550.18 L1526.8,1552.88 L1525.3,1557.01 L1524.79,1557.19 L1536.58,1538.98 L1553.69,1533.54 L1554.71,1534.06 L1533.58,1560.67 L1533.87,1561.41 L1533.46,1560.62 L1538.05,1553.6 L1553.66,1533.38 L1554.95,1532.49 L1553.81,1533 L1555.49,1533.33 L1553.9,1533.32 L1585.8,1537.36 L1642.74,1566.67 L1694.33,1588.76 L1695.24,1587.28 L1690.44,1590.79 L1805.33,1542.17 L1805.97,1542.02 L1810.2,1540.29 L1880.32,1513.39 L1880.82,1512.51 L1880.58,1513.35 L1883.1,1525.86 L1877.81,1528.05 L1877.48,1528.64 L1877.41,1527.67 L1893.08,1510.73 L1746.49,1648.79 L1672.92,1669.54 L1673.61,1666.74 L1673.17,1668.63 L1673.01,1669.31 L1891.7,1509.42 L1665.04,1569.01 L1664.59,1552.04 L1664.92,1550.32 L1665.21,1548.82 L1664.52,1537.64 L1664.59,1536.83 L1666.32,1531.7 L1666.72,1530.81 L1666.59,1529.39 L1667.38,1527.69 L1667.53,1526.54 L1669.2,1518.61 L1595.56,1382.08 L1593.36,1383.48 L1592.28,1384.18 L1591.74,1384.53 L1590.07,1385.37 L1596.68,1386.48 L1637.96,1372.28 L1596.68,1386.48 L1623.74,1374.92 L1637.89,1372.34 L1606.41,1378.2 L1637.67,1372.3 L1606.35,1378.21 L1600.84,1379.25 L1598.09,1379.78 L1596.71,1380.04 L1607.39,1378.01 L1637.56,1372.33 L1606.3,1378.22 L1600.83,1379.26 L1598.1,1379.77 L1608.45,1377.87 L1637.47,1372.32 L1578.19,1401.5 L1579.9,1402.08 L1581.15,1400.89 L1579.75,1400.52 L1540.46,1463.53 L1518.17,1499.59 L1517.28,1500.83 L1518.28,1497.45 L1496.12,1553.33 L1497.63,1553.17 L1527.61,1547.52 L1525.64,1550.32 L1529,1557.48 L1562.06,1532.59 L1568.29,1524.3 L1754.58,1559.77 L1756.41,1560.69 L1757.55,1561.27 L1751.87,1562.63 L1802.23,1545.04 L1887.3,1470.07 L1886.61,1470.24 L1885.91,1470.52 L1890.44,1505.95 L1889.89,1507.19 L1890.52,1507.53 L1862.05,1519.94 L1861.01,1520.33 L1859.91,1520.76 L1858.73,1521.16 L1857.62,1521.58 L1856.55,1521.97 L1855.43,1522.39 L1854.38,1522.83 L1853.33,1523.24 L1852.27,1523.65 L1721.13,1427.42 L1721.16,1425.85 L1721.4,1427.07 L1721.03,1428.92 L1720.84,1427.55 L1721,1428.93 L1720.94,1430.27 L1720.73,1431.45 L1720.67,1432.48 L1582.09,1385.19 L1582.79,1385.02 L1579.97,1382.77 L1580.22,1382.19 L1570.37,1376.43 L1530.09,1423.62 L1527.94,1426.62 L1526.33,1428.85 L1524.94,1430.78 L1506.98,1444.12 L1505.17,1446.51 L1504,1447.42 L1503.09,1448.52 L1502.24,1449.64 L1125.21,1542.78 L1085.32,1563 L1108.84,1566.33 L1109.41,1567.34 L1110.78,1567.99 L1110.72,1568.66 L1111.17,1568.11 L1119.88,1727.81 L1158.2,1836.72 L1165.84,1859.13 L1171.89,1876.85 L1119.88,1727.81 L1129.01,2172.42 L1127.27,2175.09 L1126.14,2176.76 L1125.54,2177.79 L1124.73,2178.14 L1123.28,2174.95 L1119.31,2184.27 L1174.43,2730.94 L2350.5,2730.98 L2347.76,2512.76 L2357.98,2502.1 L2356.88,2501.34 L2355.91,2500.76 L2349.23,2474.01 L2348.59,2470.7 L2351.01,2479.33 L2350.77,2478.09 L2351.29,2476.76 L2351.33,2475.24 L2351.25,2473.88 L2351.31,2472.44 L2351.27,2471.06 L2351.26,2469.7 L2285.45,2228.46 L2138.22,2044.74 L2135.22,2041.11 L2133.21,2038.68 L2141.73,2045.12 L2140.74,2043.72 L2140.46,2042.78 L2138.05,2042.24 L2136.68,2040.64 L2135.4,2039.08 L2134.1,2037.53 L2132.44,2036.32 L2131.07,2034.91 L2129.83,2033.49 L1888.64,1609.65 L1885.35,1600.67 L1884.43,1597.59 L1879.29,1572.48 L1878.91,1571.39 L1878.29,1570.8 L1877.94,1569.66 L1877.73,1568.5 L1877.33,1567.49 L1877.55,1566.44 L1877.25,1565.48 L1816,1543.44 L1816.46,1542.21 L1816.06,1542.77 L1843.93,1527.27 L1844.59,1527.17 L1845.82,1526.67 L1846.46,1526.43 L1847.14,1526.18 L1847.84,1525.85 L1849.08,1525.38 L1849.76,1525.07 L1850.45,1524.81 L1877.36,1527.44 L1883.1,1525.62 L1877.5,1528.13 L1874.68,1556.39 L1874.86,1557.03 L1875.09,1557.74 L1875.33,1558.42 L1838.28,1552.14 L1782.64,1575.13 L1772.16,1581.57 L1771.11,1581.9 L1770.23,1582.44 L1769.54,1582.85 L1768.62,1583.28 L1761.37,1586.67 L1639.33,1562.06 L1588.88,1535.28 L1587.87,1535.45 L1587.11,1535.63 L1589.4,1539.18 L1590.33,1540.6 L1589.84,1540.14 L1589.24,1538.24 L1588.53,1537.92 L1587.51,1537.68 L1586.72,1537.37 L1585.98,1537.03 L1585.24,1536.7 L1584.51,1536.34 L1583.83,1535.98 L1517.11,1544.75 L1516.85,1545.36 L1516.48,1546.2 L1515.62,1548.17 L1515.33,1548.83 L1547.49,1535.84 L1539.11,1554.18 L1541.69,1541.9 L1541.47,1541.1 L1541.22,1540.5 L1578.1,1533.57 L1578.75,1533.89 L1579.43,1533.96 L1641.96,1565.38 L1676.34,1570.89 L1686.84,1587.71 L1685.72,1591.05 L1685.79,1586.94 L1686.04,1586.28 L1747.02,1564.12 L1793.06,1547.63 L1794.17,1546.38 L1799.65,1544.2 L1802.61,1543.33 L1880.26,1513.7 L1879.21,1512.92 L1880.21,1514.67 L1877.4,1527.7 L1877.76,1527.9 L1878.08,1527.67 L1877.4,1527.7 L1877.4,1527.7 L1877.85,1528.08 L1877.76,1527.98 L1891.05,1543.46 L1891.33,1544.09 L1892.54,1567.09 L1895.78,1575.23 L1907.7,1610.1 L1908.08,1610.69 L1922.69,1620.81 L1897.56,1580.08 L1897.32,1579.39 L1892.54,1548.81 L1892.61,1548.15 L1867.07,1529.91 L1866.8,1529.08 L1866.78,1528.01 L1866.51,1526.94 L1866.12,1525.87 L1882.2,1473.11 L1860.01,1410.91 L1869.33,1406.82 L1860.11,1415.36 L1859.14,1413.45 L1858.48,1413.46 L1857.74,1412.48 L1857.14,1411.69 L1856.41,1410.73 L1879.31,1301.23 L1950.92,1303.77 L1990.07,1311.12 L1991.42,1311.72 L1992.57,1312.17 L1993.77,1312.78 L1994.82,1313.34 L1995.83,1313.79 L1996.91,1314.28 L1997.98,1314.65 L2315.01,1340.04 L2315.68,1339.37 L2316.24,1338.93 L2316.69,1338.45 L2316.7,1337.72 L2315.97,1337.88 L2253.51,1325.87 L2166.08,1305.73 L2160.52,1303.27 L2161.09,1303.56 L2165.3,1304.17 L2145.86,1368.48 L2145.28,1370.64 L2144.82,1372.36 L2144.59,1368.31 L2130.29,1405.46 L1990.23,1472.03 L2130.29,1405.46 L1892.31,1510.84 L1892.79,1511.49 L1893.2,1512.3 L1884.19,1480.24 L1884.06,1479.38 L1883.85,1478.66 L1883.7,1477.94 L1883.5,1477.19 L1927.7,1449.77 L1945.48,1387.8 L1946.06,1387.5 L1946.74,1386.91 L1947.33,1386.48 L1963.96,1362.09 L1964.08,1361 L1964.24,1359.85 L1964.43,1358.65 L1964.52,1358 L1964.61,1357.37 L1975.99,1272.45 L1976.09,1271.74 L1976.2,1270.95 L1976.2,1270.12 L1976.18,1269.21 L1976.28,1268.18 L1962.61,1178.72 L1962.56,1177.88 L1962.51,1177.09 L1962.45,1176.07 L1962.47,1175.03 L1981.45,1100.48 L1981.74,1099.71 L1981.96,1099 L1982.22,1098.21 L1982.53,1097.55 L1985.92,1043.25 L1985.87,1044.48 L1987.57,982.846 L1974.99,930.795 L1974.86,929.622 L1974.68,928.552 L1974.5,927.58 L1974.31,926.81 L1949.62,850.295 L1949.33,849.354 L1949.07,848.551 L1948.8,847.641 L1948.63,846.671 L1941.27,796.671 L1923.67,691.849 L1924.73,685.375 L1925.26,682.137 L1918.78,615.718 L1919.03,615.122 L1898.85,583.361 L1897.32,582.645 L1896.79,583.412 L1896.86,584.512 L1896.87,585.152 L1907.21,665.433 L1907.8,667.956 L1912.27,680.134 L1912.73,685.335 L1913.8,685.821 L1914.07,686.716 L1914.37,687.668 L1914.61,688.494 L1914.88,689.228 L1941.23,818.966 L1940.05,818.861 L1940.46,819.443 L1940.99,818.881 L1976.32,866.489 L1975.32,866.925 L1981.6,869.136 L1982.45,870.357 L1971.31,1078.87 L2043.65,1144.54 L2043.91,1145.51 L2044.11,1146.29 L2036.74,1144.36 L2043.5,1143.6 L2049.45,1150.13 L2049.87,1152.6 L2050.03,1153.39 L2050.57,1154.62 L1922.24,1350.55 L1930.18,1350.13 L1912.18,1358.02 L1910.35,1359.69 L1909.16,1361.26 L1908.09,1361.38 L1907.26,1362.54 L1906.36,1363.78 L1905.42,1365.01 L1904.66,1366.3 L1903.83,1367.81 L1903.03,1369.12 L1746.18,1523.21 L1749.15,1515.97 L1751,1512.1 L1751.29,1514.48 L1728.45,1537.36 L1694.59,1553 L1690.53,1555.04 L1676.84,1555.59 L1675.3,1555.89 L1673.05,1556.05 L1672.26,1556.31 L1671.42,1556.53 L1670.26,1557.03 L1771.51,1581.82 L1770.63,1582.28 L1774.18,1580.9 L1775.08,1580.71 L1777.68,1579.27 L1779.48,1578.65 L1780.63,1578.47 L1781.52,1577.88 L1856.03,1552.51 L1852.16,1552.98 L1855.36,1548.95 L1856.63,1550.52 L1868.25,1533.55 L1877.31,1528.14 L1877.85,1528.08 L1878.06,1527.82 L1892.97,1510.87 L1709.74,1613.74 L1715.78,1633.15 L1892.97,1510.87 L1504.76,1600.54 L1893.29,1511.37 L1481.87,1564.93 L1481.22,1565.54 L1482.54,1565.66 L1481.88,1565.74 L1481.2,1565.36 L1481.68,1565.78 L1520.64,1554.27 L1521.32,1554.66 L1521.93,1555.09 L1525.03,1557.49 L1524.94,1557.41 L1556.69,1526.77 L1555.59,1527.22 L1555.9,1526.55 L1555.94,1528.18 L1568.55,1524.16 L1655.51,1568.56 L1662.84,1563.93 L1669.09,1559.64 L1795.73,1543.61 L1967.94,1536.25 L1907.78,1559.16 L1907.72,1560.26 L1907.56,1559.49 L1864.47,1561.79 L1863.72,1561.53 L1863.65,1562.58 L1863.98,1561.93 L1864.78,1561.45 L1871.94,1530.93 L1871.1,1531.89 L1871.58,1531.46 L1911.78,1564.06 L1931.15,1612.17 L1970.26,1585.05 L2145.84,1523.64 L2149.68,1523.31 L2152.34,1523.07 L2154.18,1522.91 L2163.81,1520.95 L2170.47,1519.59 L2175.08,1518.65 L1970.25,1585.05 L2315.6,1496.13 L2318.4,1495.89 L2320.63,1495.7 L2322.39,1495.55 L1970.25,1585.05 L2421.52,1424.98 L2424.33,1418.95 L2426.27,1414.79 L2446.23,1367.22 L2446.52,1366.6 L2420.85,1348.23 L2420.38,1347.79 L2420.49,1347.95 L2446.5,1328.13 L2448.91,1324.48 L2447.2,1324.49 L2418.52,1336 L2412.69,1333.78 L2411.93,1333.71 L2393.06,1375.63 L2393.03,1376.31 L2403.62,1391.1 L2423.57,1375.21 L2424.04,1374.42 L2439.61,1385.61 L2440.25,1383.96 L1877.42,1527.68 L1877.79,1528.12 L1893.95,1512.95 L1710.43,1623.89 L1679.25,1605.41 L1678.3,1600.79 L1679.33,1598.22 L1680.24,1596.07 L1674.27,1495 L1638.48,1428.84 L1598.52,1386.16 L1597.3,1386.54 L1598.12,1386.24 L1533.52,1416.29 L1530,1419.15 L1529.13,1419.08 L1528.22,1419.5 L1527.43,1421.03 L1525.26,1422.3 L1524.37,1423.35 L1371.82,1491.71 L1358.43,1496.09 L1146.75,1532.63 L1145.52,1533.43 L1144.36,1533.78 L1140.93,1535.33 L1137.93,1543.56 L1125.37,1557.76 L1142.83,2049.91 L1139.78,2083.51 L1137.68,2106.77 L1125.37,1557.76 L1126.65,2171.39 L1125.3,2175.48 L1124.59,2177.61 L1124.22,2178.72 L1125.37,1557.76 L1157.13,2730.92 L2064.31,2731.21 L1877.79,1528.12 L2062.55,2731.21 L1116.22,2730.87 L1134.34,2154.05 L1181.59,1905.5 L1163.47,1871.01 L1162.25,1866.22 L1162.22,1863.97 L1162.2,1861.98 L1099.72,1636.6 L1165.25,1525.87 L1166.61,1524.87 L1167.59,1524.15 L1168.29,1523.64 L1169.15,1523 L1175.62,1519.34 L1175.66,1521 L1169.84,1524.22 L1172.99,1522.14 L1174.94,1521.3 L1180.07,1518.36 L1438.16,1489.31 L1441.69,1487.64 L1443.29,1487.05 L1445.33,1486.79 L1446.54,1486.59 L1447.88,1486.45 L1449.23,1486.27 L1450.58,1486.08 L1451.84,1485.82 L1533.89,1415.12 L1566.15,1384.24 L1567.18,1382.73 L1565.81,1380.28 L1553.95,1370.89 L1553.99,1371.59 L1576.55,1375.69 L1520.24,1430.23 L1576.55,1375.69 L1513.65,1436.65 L1508.16,1441.99 L1492.83,1461.43 L1492.38,1462.06 L1492.23,1463.02 L1490.74,1464.88 L1489.45,1466.39 L1489.27,1467.72 L1488.83,1468.23 L1441.16,1490.84 L1440.89,1492.23 L1440.34,1491.6 L1441.08,1491.35 L1508.54,1496.67 L1651.8,1565.57 L1631.72,1556.29 L1615.57,1548.84 L1602.67,1542.88 L1629.31,1555.88 L1642.48,1562.31 L1649.07,1565.52 L1796.01,1543.62 L1785.39,1535.61 L1781.85,1535.11 L1778.12,1540.08 L1776.29,1542.52 L1775.37,1543.74 L1774.92,1544.35 L1795.51,1543.68 L1857.4,1556.67 L1856.35,1554.59 L1855.97,1553.82 L1855.53,1553.33 L1855.15,1552.53 L1855.82,1552.42 L1875.6,1527.56 L1876.7,1526.73 L1895.15,1507.48 L1909.24,1542.58 L1898.39,1516.19 L1899.13,1516.86 L1899.67,1517.4 L1881.66,1550.92 L1865.57,1540.59 L1868.19,1539.66 L1867.63,1539.15 L1869.67,1537.86 L1869.95,1537.15 L1869.39,1536.39 L1877.69,1528.55 L1887.31,1493.84 L1887.14,1492.93 L1887.12,1492.28 L1886.99,1491.61 L1886.83,1490.93 L1886.63,1490.25 L1837.46,1384.59 L1837.03,1384 L1836.53,1383.28 L1836.04,1382.51 L1802.96,1330.41 L1802.67,1329.77 L1802.38,1329.13 L1802.1,1328.53 L1801.8,1327.87 L1805.62,1252.48 L1806.38,1252.42 L1807.14,1252.41 L1807.85,1252.38 L1784.48,1276.54 L1784.32,1277.74 L1784.17,1278.97 L1784.01,1280.17 L1783.79,1282 L1783.41,1284.26 L1783.32,1284.93 L1875.16,1450.82 L1875.38,1451.66 L1875.54,1452.51 L1875.7,1453.31 L1875.92,1454.12 L1876.1,1454.9 L1876.26,1455.68 L1876.41,1456.46 L1876.68,1457.13 L1876.83,1457.79 L1882.08,1511.94 L1892.5,1549.31 L1894.2,1553.22 L1893.31,1550.44 L1892.17,1549.67 L1892.99,1549.03 L1894.6,1548.42 L1885.09,1518.28 L1885.58,1517.35 L1886.5,1517.73 L1885.17,1517.54 L1874.18,1436.35 L1873.87,1435.4 L1873.53,1434.5 L1873.11,1433.74 L1872.7,1432.84 L1872.29,1432.02 L1871.87,1431.19 L1871.27,1430.47 L1870.87,1429.74 L1870.43,1429.07 L1940.8,1348.26 L2025.07,1359.34 L2036.51,1381.21 L2037.05,1380.86 L2037.77,1381.14 L2038.41,1381.24 L2132.46,1451.02 L2202.56,1466.72 L2209.31,1464.24 L2213.18,1462.79 L2205.84,1473.85 L2203.17,1471.84 L2203.56,1472.8 L2204.48,1473.18 L2204.73,1474.17 L2204.8,1474.82 L2204.97,1475.51 L2205.03,1476.52 L2287.41,1502.93 L2287.5,1504.18 L2365.83,1480.5 L2369.22,1481.78 L2370.09,1482.73 L2370.48,1483.75 L2371.7,1478.13 L2371.9,1477.49 L2372.84,1477.01 L2373.65,1476.88 L2374.41,1476.62 L2375.35,1476.11 L2376.4,1475.78 L2377.34,1475.42 L2378.16,1475.06 L2345.01,1488.85 L2305.85,1457.92 L2304.69,1456.85 L2303.78,1455.99 L2315.46,1447.27 L2316.29,1446.45 L2317.01,1445.87 L2454.42,1311.45 L2454.12,1312.01 L2429.86,1331.45 L2401.46,1345.5 L2401.05,1346 L2394.97,1376.82 L2394.2,1374.63 L2395.5,1374.81 L2365.68,1362.29 L2364.91,1361.34 L2364.15,1360.41 L2363.37,1359.46 L2362.59,1358.52 L2361.77,1357.61 L2361.03,1356.64 L2360.28,1355.66 L2359.54,1354.72 L2358.73,1353.8 L2297.96,1333.79 L2297.32,1334.21 L2270.6,1349.7 L2269.64,1350.06 L2268.62,1350.45 L2268.01,1350.67 L2267.23,1350.97 L2266.48,1351.23 L2265.7,1351.51 L2264.66,1351.89 L2214.7,1360.66 L2179.77,1375.29 L2180.08,1373.74 L2179.45,1375.1 L2180.35,1374.56 L2179.64,1374.55 L2149.82,1363.65 L2151.58,1362.84 L2150.41,1363.84 L2149.78,1364.13 L2149.12,1364.19 L2145.31,1364.6 L2118.97,1428.23 L2114.76,1430.42 L2111.4,1431.4 L2108.38,1432.27 L2145.31,1364.6 L1951.24,1487.25 L1941.56,1493.16 L1935.24,1497.03 L1931.05,1499.6 L1926.63,1502.29 L1884.93,1517.85 L1885.75,1517.61 L1885.29,1518.2 L1877.94,1527.79 L1878.73,1524.11 L1892.99,1510.7 L1721.46,1649.71 L1892.99,1510.7 L1526.99,1603.04 L1517.15,1599.75 L1892.99,1510.7 L1480.58,1565.01 L1511.38,1552.08 L1512.02,1552.22 L1513.52,1550.6 L1525.04,1557.52 L1524.93,1557.6 L1482.15,1564.69 L1482.6,1565.44 L1480.72,1565.07 L1480.76,1565.05 L1660.01,1685.88 L1661.85,1687.4 L1662.56,1687.94 L1480.76,1565.05 L1848.78,1541.55 L1849.85,1541.22 L1834.61,1544.64 L1893.84,1514.11 L1897.49,1523.95 L1892.29,1509.54 L1856.58,1547.22 L1796.4,1543.77 L1640.14,1559.76 L1795.58,1543.63 L1508.5,1496.67 L1374.32,1463.71 L1314.21,1390.28 L1181.89,1321.27 L1181.26,1321.04 L1183.12,1182.07 L1183.37,1181.49 L1183.67,1180.86 L1184.08,1180.18 L1184.64,1179.18 L1184.93,1178.58 L1185.36,1177.54 L1186.43,1177.56 L1117.87,1129.16 L1094.37,1113.22 L1093.25,1112.93 L1092.52,1112.75 L1098.43,1099.92 L1103.45,1102.33 L1103.36,1101 L1103.92,1100.54 L1104.6,1099.56 L1105.12,1098.77 L1064.9,1099.45 L1074.38,1104.19 L1074.43,1103.51 L1068.68,1100.29 L1082.33,1107.52 L1145.36,1152.67 L1082.33,1107.52 L1145.85,1152.95 L1146.92,1156.95 L1145.13,1152.29 L1146.57,1152.94 L1147.29,1153.39 L1147.99,1153.85 L1148.87,1154.55 L1149.62,1155.02 L1150.35,1155.48 L1150.96,1155.98 L1151.65,1156.42 L1152.34,1156.92 L1249.55,1245.32 L1251.56,1246.97 L1249.55,1245.32 L1251.57,1246.98 L1249.73,1268.43 L1248.82,1269.37 L1247.3,1270.61 L1246.83,1271.09 L1245.54,1272.42 L1244.72,1273.26 L1230.87,1354.3 L1234.67,1355.37 L1296.47,1381.82 L1299.42,1383.09 L1301.78,1384.1 L1304.88,1385.67 L1306.3,1386.48 L1307.43,1387.13 L1234.67,1355.37 L1368.86,1565.89 L1371.74,1580.68 L1372.24,1583.82 L1372.48,1585.31 L1234.67,1355.37 L1508.32,1496.62 L1522.36,1503.07 L1533.13,1508.01 L1541.37,1511.79 L1568.64,1524.5 L1579.36,1553.33 L1579.75,1554.08 L1563.99,1524.11 L1562.06,1523.76 L1562.09,1522.9 L1551.01,1533.99 L1541.02,1541.72 L1525.31,1553.71 L1529.1,1560.71 L1493.13,1555.59 L1493.45,1555.02 L1492.64,1554.49 L1492.44,1555.18 L1480.5,1565.07 L1649.66,1672.06 L1652.89,1675.72 L1655.17,1678.25 L1656.47,1679.74 L1657.31,1680.71 L1480.5,1565.07 L1848.33,1533.89 L1858.65,1530.73 L1895.81,1518.39 L1931.23,1611.72 L1931.1,1612.47 L1887.36,1556.73 L1888.07,1556.68 L1886.51,1556.88 L1883.41,1523.65 L1905.21,1546.77 L1905.49,1547.38 L1923.79,1595.48 L1930.1,1616.16 L1930.48,1617.42 L1930.81,1618.49 L1936.61,1626.59 L1937.19,1627.95 L1934.32,1630.08 L1935.27,1631.47 L1936,1631.93 L1936.82,1632.68 L1937.45,1633.41 L1937.73,1634.04 L1984.25,1724.57 L1965.59,1699.02 L1939.76,1640.68 L1919.25,1581.05 L1894.71,1531.61 L1894.55,1530.92 L1882.95,1471.55 L1918.59,1416.51 L1919.25,1414.74 L1919.79,1413.25 L1869.39,1294.43 L1864.09,1257.32 L1864.39,1259.15 L1864.72,1261.07 L1864.88,1262.03 L1869.39,1294.43 L1764.92,1172 L1763.76,1171.45 L1762.96,1171.08 L1869.39,1294.43 L1662.41,1042.38 L1681.15,1045.73 L1686.97,1046.8 L1689.87,1047.34 L1869.39,1294.43 L1506.67,1017.21 L1524.22,1021.58 L1538.41,1025.06 L1549.72,1027.83 L1869.39,1294.43 L1408.79,867.161 L1332.9,751.544 L1353.62,776.224 L1354.35,776.524 L1354.88,777.067 L1355.76,777.78 L1356.67,778.526 L1357.25,778.903 L1420.19,890.082 L1422.4,893.402 L1422.69,894.205 L1423.42,894.813 L1424,895.437 L1424.62,896.084 L1425.24,896.75 L1425.78,897.381 L1426.34,898.02 L1481.54,988.341 L1485.26,994.566 L1486.43,996.908 L1487.45,998.927 L1495.77,1011.07 L1495.51,1010.41 L1496.5,1011.59 L1496.27,1012.74 L1496.48,1013.84 L1496.88,1014.49 L1497.19,1015.44 L1497.63,1016.14 L1497.93,1016.8 L1498.48,1017.42 L1581.12,1119.62 L1609.73,1165.36 L1619.03,1225.68 L1617.39,1225.58 L1614.97,1253.22 L1615.21,1262.12 L1626.58,1331.76 L1628.35,1334.55 L1627.03,1331.53 L1594.71,1380.21 L1594.23,1380.74 L1593.67,1381.54 L1593.06,1382.28 L1592.27,1383.26 L1519.23,1497.3 L1515.86,1552.52 L1516.31,1553.11 L1516.32,1553.83 L1515.93,1554.78 L1515.91,1555.6 L1476.44,1559.16 L1476.95,1559.82 L1478.88,1558.85 L1478.29,1559.33 L1480.71,1564.99 L1646.5,1643.5 L1480.71,1564.99 L1646.5,1643.5 L1649.12,1655.81 L1480.71,1564.99 L1817.14,1548.47 L1480.71,1564.99 L1897.47,1520.54 L1480.71,1565.05 L1931.31,1611.99 L1932.66,1616.34 L1931.49,1612.39 L1931.72,1613.15 L1922.73,1593.66 L1906.42,1547.42 L1906.04,1546.39 L1907.64,1544.62 L1906.36,1545.3 L1905.29,1546.76 L1905.23,1545.59 L1905.65,1545.1 L1906.11,1544.34 L1883.79,1523.97 L1883.69,1524.92 L1882.95,1523.78 L1893.18,1511.06 L1706.91,1600.78 L1893.18,1511.06 L1706.91,1600.78 L1704.74,1602.61 L1893.18,1511.06 L1461.25,1598.36 L1484.23,1562.08 L1484.75,1561.19 L1484.74,1562.07 L1515.12,1552.39 L1524.33,1561.25 L1523.05,1560.8 L1481.61,1562.83 L1481.22,1563.53 L1480.8,1562.67 L1480.5,1562.11 L1500.54,1536.93 L1501.02,1535.81 L1501.5,1534.68 L1501.98,1533.56 L1502.46,1532.43 L1558.43,1431.51 L1598.52,1375.14 L1605.45,1366.3 L1604.3,1365.61 L1605.02,1365.57 L1605.45,1365.08 L1623.56,1337.36 L1599.91,1373.32 L1569.46,1384.27 L1575.11,1377.08 L1575.97,1376.24 L1570.17,1385.67 L1573.27,1378.54 L1524.23,1429.09 L1522.7,1431.84 L1521.44,1434.12 L1522.82,1431.6 L1444.22,1488.83 L1448.79,1491.05 L1508.51,1496.69 L1579.85,1525.2 L1580.63,1525.32 L1578.77,1524.23 L1508.51,1496.69 L1658.99,1569.87 L1508.51,1496.69 L1659,1569.87 L1752.01,1562.7 L2031.53,1502.36 L1865.85,1522.39 L1810.43,1529.08 L1782.71,1532.42 L1794.78,1542.69 L1795.4,1543.13 L1796.03,1543.45 L1910.72,1556.33 L1911.09,1557.32 L1910.37,1557.14 L1910.46,1556.25 L1897.64,1524.08 L1897.15,1526.44 L1896.8,1525.22 L1896.19,1524.82 L1896.89,1524.64 L1897.61,1524.03 L1897.37,1523.21 L1863.32,1520.32 L1862.63,1520.57 L1857.83,1520.17 L1856.88,1521.71 L1857.35,1521.25 L1856.14,1521.64 L1803.2,1542.36 L1802.15,1542.74 L1801.22,1542.51 L1800.17,1542.58 L1798.17,1542.95 L1797.47,1543.11 L1796.98,1543.57 L1691.33,1584.22 L1691.07,1587.82 L1688.06,1587.14 L1688.63,1586.68 L1673.08,1677.42 L1672.58,1678.4 L1672.62,1679.65 L1672.8,1680.89 L1672.73,1681.71 L1672.42,1682.59 L1667.22,1745.64 L1668.92,1744.32 L1670.07,1743.93 L1669.12,1743.36 L1679,1785.74 L1418.49,1881.62 L1415.94,1885.25 L1194.64,2068.85 L1180.19,2143.16 L1179.85,2145.09 L1179.68,2146 L1179.57,2146.68 L1179.41,2147.51 L1177.55,2149.74 L1177.2,2150.6 L1176.95,2152.67 L1176.58,2154.52 L1176.09,2156 L1175.49,2157.52 L1174.91,2159.11 L1174.28,2160.6 L1173.63,2162.12 L1172.97,2163.61 L1033.12,2383.71 L1016.99,2571.37 L1017.39,2575.82 L1015.32,2577.62 L1014.48,2578.83 L1013.77,2579.83 L1013.27,2580.95 L1012.74,2582.13 L1012.22,2583.29 L1009.08,2592 L690.19,2633.05 L688.931,2633.32 L551.373,2729.86 L291.346,2729.2 L288.97,2722.79 L287.192,2722.08 L286.5,2721.64 L285.838,2721.18 L233.976,2678.22 L206.999,2663.92 L203.782,2662.28 L201.509,2661.13 L205.582,2658.19 L206.384,2659.84 L206.966,2658.91 L207.424,2658.01 L207.67,2657.07 L208.248,2656.54 L208.625,2655.93 L217.746,2615.27 L217.025,2614.71 L217.866,2614.5 L231.447,2610.78 L281.22,2645.64 L282.362,2646.67 L283.301,2647.53 L270.186,2637.24 L269.167,2640.01 L353.656,2706 L366.064,2714.66 L366.313,2717 L366.606,2716.01 L355.585,2725.58 L345.616,2729.34 L274.348,2729.15 L262.122,2725.65 L263.107,2726.91 L262.649,2728.03 L262.885,2727.36 L264.326,2729.12 L343.605,2729.34 L305.778,2674.77 L306.967,2676.5 L306.892,2677.34 L282.039,2658.04 L277.148,2651.4 L279.886,2654.96 L278.287,2654.13 L277.866,2653.05 L276.901,2652.78 L371.937,2720.07 L386.19,2729.45 L543.971,2729.85 L568.411,2713.01 L569.095,2712.93 L569.713,2713.33 L595.924,2711.56 L608.901,2710.75 L590.471,2702.98 L590.908,2702.21 L590.625,2701.2 L592.985,2700.11 L593.515,2698.7 L593.095,2697.23 L607.169,2671.42 L904.223,2656.45 L903.138,2656.8 L923.967,2659.14 L933.53,2660.23 L1108.08,2504.77 L1109.19,2504.62 L1110.34,2504.49 L1111.52,2504.34 L1112.72,2504.19 L1113.87,2504.05 L1115.01,2503.91 L1116.18,2503.79 L1117.4,2503.66 L1118.6,2503.47 L1474.21,2435.39 L1475.16,2435.89 L1476.22,2436.22 L1477.24,2436.7 L1478.22,2437.14 L1479.32,2437.55 L1480.42,2437.82 L1481.38,2438.17 L1482.36,2438.73 L1483.44,2439.14 L1794.5,2333.66 L1794.87,2332.53 L1795.21,2331.31 L1795.47,2330 L1795.79,2328.79 L1796.05,2327.52 L1796.22,2326.31 L1796.39,2325.09 L1796.54,2323.96 L1796.65,2322.79 L1796.69,2321.54 L1782.45,2037.93 L1781.96,2036.82 L1781.48,2035.81 L1781.03,2034.92 L1780.55,2033.92 L1780.04,2032.69 L1779.61,2031.57 L1779.18,2030.5 L1778.68,2029.35 L1778.26,2028.15 L1777.83,2026.88 L1845.6,1922.23 L1863.02,1806.34 L1861.39,1803.04 L1845.6,1922.23 L1841.66,1717.54 L1840.65,1711.69 L1829.86,1680.92 L1830.47,1680.36 L1817.91,1651.41 L1818.37,1652.62 L1818.12,1651.81 L1819.11,1651.59 L1819.45,1650.38 L1819.19,1650.96 L1795.1,1592.08 L1796.01,1592.18 L1796.09,1590.72 L1795.34,1591.16 L1795.74,1589.44 L1795.57,1588.42 L1795.45,1587.6 L1795.29,1586.59 L1795.13,1585.59 L1794.99,1584.69 L1794.84,1583.71 L1794.79,1582.79 L1826.71,1558.19 L1826.88,1554.99 L1826.65,1555.79 L1826.45,1554.44 L1876.22,1527.21 L1877.79,1527.58 L1877.53,1526.99 L1876.56,1558.86 L1877.33,1558.58 L1878.04,1558.39 L1878.72,1558.22 L1879.4,1558.01 L1883.56,1589.84 L1883.15,1590.34 L1882.89,1590.92 L1910.02,1674.44 L1920.37,1725.54 L1923.85,1732.18 L1922.4,1718.73 L1922.64,1719.46 L1921.99,1720.34 L1921.97,1721.46 L1922.33,1722.73 L1922.53,1723.36 L1922.78,1723.98 L1922.99,1724.6 L1987.06,1839.61 L1990.97,1842.36 L1992.95,1843.5 L1985.95,1846.9 L1985.1,1842.4 L1985.66,1843.05 L1985.76,1844.12 L1985.59,1844.96 L1985.38,1849.37 L1695.45,1805.41 L1694.38,1806.38 L1678.57,1798.12 L1677.18,1797.47 L1676.03,1797.69 L1674.82,1797.9 L1291.41,1990.45 L1287.21,1994.09 L1219.03,2015.83 L1184.87,2119.42 L1185.15,2118.65 L1174.9,2157.71 L1174.27,2159.07 L1173.87,2160.35 L1173.45,2161.53 L1172.98,2162.75 L1172.46,2164.03 L1171.93,2165.32 L1171.35,2166.65 L1025.37,2550.87 L1024.86,2552.35 L1024.3,2553.88 L1023.73,2555.42 L1023.16,2556.97 L1022.52,2558.56 L1021.92,2560.11 L1021.25,2561.7 L1020.59,2563.27 L1019.91,2564.82 L1019.27,2566.38 L1009.75,2586.16 L724.143,2636.72 L711.611,2635.19 L710.558,2635.14 L708.647,2634.95 L707.409,2634.69 L706.091,2634.78 L704.893,2634.65 L703.49,2634.48 L702.283,2634.47 L701.022,2634.39 L609.825,2708.83 L607.91,2713.29 L606.803,2715.16 L598.964,2729.97 L564.504,2729.89 L568.962,2683.15 L567.984,2681.24 L569.81,2679.45 L568.635,2680.27 L555.661,2641.21 L548.098,2649.39 L543.643,2644.71 L543.089,2645.18 L543.176,2643.7 L542.432,2644.1 L542.295,2644.87 L541.787,2645.53 L470.335,2729.67 L394.623,2729.48 L403.082,2708.88 L403.594,2709.31 L402.445,2710.1 L401.784,2710.16 L429.085,2729.56 L256.414,2729.1 L255.811,2708.12 L261.326,2703.02 L259.184,2706.8 L259.658,2705.76 L259.856,2704.94 L260.189,2704.19 L260.778,2703.43 L261.347,2702.79 L225.152,2626.18 L229.11,2626.19 L225.188,2626.51 L202.093,2653.75 L203.007,2654.19 L149.607,2667.05 L148.52,2667.67 L148.064,2668.4 L147.299,2669.43 L146.681,2669.95 L146.237,2670.53 L145.804,2671.27 L105.502,2669.11 L43.834,2728.44 L509.66,2729.76 L570.281,2709.19 L576.25,2706.21 L561.126,2729.25 L562.123,2728.95 L562.27,2728.06 L564.183,2727.95 L565.499,2727.6 L566.782,2727.26 L567.92,2726.87 L569.043,2726.46 L570.165,2725.96 L571.283,2725.45 L605.923,2672.2 L898.84,2654.08 L905.827,2654.13 L887.428,2649.66 L888.869,2649.39 L887.417,2648.49 L887.842,2647.93 L889.459,2647.92 L890.609,2647.66 L892.314,2647.8 L893.489,2647.78 L894.802,2647.71 L1011.45,2596.22 L1086.38,2501.65 L1061.98,2513.73 L1062.87,2513.31 L1065.17,2511.18 L1064.58,2510.51 L1065.61,2510.32 L1066.58,2510.37 L1067.66,2510.47 L1068.66,2510.33 L1069.77,2510.3 L1390.64,2458.37 L1501.87,2438.3 L1516.88,2434.64 L1524.35,2432.81 L1523.92,2440.26 L1526.09,2438.54 L1527.8,2437.7 L1529.71,2436.92 L1531.32,2436.16 L1532.97,2435.47 L1534.57,2434.8 L1536.12,2434 L1537.62,2433.22 L1546.69,2428.56 L1742.89,2154.79 L1732.66,2176.14 L1733.78,2167.62 L1734.49,2166.74 L1732.09,2166.12 L1732.66,2164.91 L1733.84,2163.72 L1734.66,2162.77 L1735.25,2161.81 L1735.78,2161.01 L1736.31,2160.1 L1736.87,2159.24 L1788.47,1987.92 L1861.48,1905.19 L1859.41,1905.46 L1887.34,1898.84 L1887.94,1897.86 L1889.08,1896.25 L1888.45,1895.91 L1888.94,1894.81 L1889.37,1893.86 L1889.87,1892.88 L1890.34,1891.71 L1890.66,1890.45 L1890.88,1889.28 L1891.08,1888.09 L1838.87,1703.95 L1820.59,1657.49 L1819.72,1655.43 L1819.28,1654.41 L1818.95,1653.63 L1821.33,1658.87 L1822.56,1661.59 L1823.18,1662.95 L1827.76,1663.48 L1823.19,1664.84 L1823.43,1663.51 L1823.01,1662.44 L1822.47,1661.51 L1822.09,1660.56 L1821.72,1659.64 L1821.42,1658.84 L1794.14,1576.6 L1803.16,1551.58 L1808.01,1552.15 L1811.86,1552.65 L1824.7,1554.07 L1825.79,1554.83 L1826.68,1555.22 L1827.5,1554.93 L1872.33,1516.17 L1873.08,1516.92 L1873.77,1516.93 L1857.56,1544.17 L1838.76,1569.65 L1859.45,1542.52 L1861.77,1540.56 L1860.62,1542.98 L1882.84,1520.85 L1881.82,1520.99 L1881.78,1520.33 L1893.72,1513.18 L1745.91,1618.04 L1733.87,1634.77 L1893.72,1513.18 L1577.01,1622.47 L1480.66,1565.06 L1513.36,1552.47 L1516.2,1551.07 L1515.22,1551.3 L1478.91,1561.81 L1477.56,1559.2 L1477.46,1559.9 L1476.65,1559.21 L1475.8,1558.37 L1460.34,1502.29 L1460.37,1501.29 L1440.23,1489.46 L1493.46,1446.04 L1497.63,1442.61 L1501.22,1439.67 L1530.56,1419.98 L1531.07,1419.37 L1532.06,1417.76 L1532.86,1416.59 L1533.81,1415.55 L1534.72,1414.61 L1535.65,1413.56 L1536.49,1412.68 L1537.23,1411.73 L1621.23,1183.28 L1644.03,1160.56 L1644.69,1160.26 L1645.36,1159.98 L1646.07,1159.7 L1646.82,1159.42 L1648.23,1158.97 L1648.9,1158.84 L1649.57,1158.7 L1707.28,1275.88 L1707.46,1276.89 L1708.6,1280.07 L1707.81,1278.57 L1707.73,1279.48 L1711.39,1355.17 L1721.69,1381.12 L1726.04,1395.35 L1724.92,1393.01 L1724.1,1393.09 L1724.88,1393.2 L1772.36,1536.09 L1772.38,1534.32 L1781.85,1550 L1780.44,1550 L1844.05,1522.62 L1852.06,1523.11 L1852.76,1524.13 L1853.78,1523.46 L1854.47,1523.23 L1855.18,1522.88 L1877.65,1528.36 L1907.81,1551.65 L1910.74,1555.31 L1909.45,1554.17 L1909.79,1556.67 L1909.91,1557.39 L1931.11,1612.29 L1932.27,1615.01 L1932.08,1614.12 L1931.91,1613.04 L1933.19,1611.94 L1933.55,1612.82 L1933.76,1613.43 L1919.69,1582.35 L1919.97,1580.01 L1918.93,1580.45 L1918.85,1579.73 L1916.39,1579.32 L1916.94,1580.16 L1917.7,1580.53 L1826.56,1533.8 L1825.36,1533.65 L1824.32,1534.17 L1761.96,1557.7 L1755.24,1561.97 L1754.66,1561.61 L1754.47,1562.34 L1753.81,1561.06 L1752.73,1561.44 L1751.91,1561.74 L1751.3,1561.96 L1697.79,1577.48 L1644,1554.8 L1632.66,1554.43 L1631.76,1554.42 L1572.71,1529.32 L1563.58,1531.86 L1562.91,1531.67 L1561.62,1531.41 L1561.72,1532.33 L1561.28,1532.88 L1560.66,1533.2 L1526.15,1559.08 L1526.63,1559.84 L1523.54,1551.52 L1524.86,1543.25" fill-rule="evenodd"/>
  </g>
  <g stroke="#000000" font-family="MS Shell Dlg 2" fill="none" stroke-width="1" stroke-linecap="square" font-style="normal" font-size="34.375" transform="matrix(0.999751,0,0,0.999751,0,0)" stroke-linejoin="bevel" font-weight="400" stroke-opacity="1"/>
  <g stroke="#000000" font-family="MS Shell Dlg 2" fill="none" stroke-width="1" stroke-linecap="square" font-style="normal" font-size="34.375" transform="matrix(11.8081,0,0,11.8081,0,0)" stroke-linejoin="bevel" font-weight="400" stroke-opacity="1"/>
  <g stroke="#000000" font-family="MS Shell Dlg 2" fill="none" stroke-width="1" stroke-linecap="square" font-style="normal" font-size="34.375" transform="matrix(11.8081,0,0,11.8081,0,0)" stroke-linejoin="bevel" font-weight="400" stroke-opacity="1"/>
  <g stroke="#000000" font-family="MS Shell Dlg 2" fill="none" stroke-width="1" stroke-linecap="square" font-style="normal" font-size="34.375" transform="matrix(11.8081,0,0,11.8081,0,0)" stroke-linejoin="bevel" font-weight="400" stroke-opacity="1"/>
  <g stroke="#000000" font-family="MS Shell Dlg 2" fill="none" stroke-width="1" stroke-linecap="square" font-style="normal" font-size="34.375" transform="matrix(1,0,0,1,0,0)" stroke-linejoin="bevel" font-weight="400" stroke-opacity="1"/>
  <g stroke="#000000" font-family="MS Shell Dlg 2" fill="none" stroke-width="1" stroke-linecap="square" font-style="normal" font-size="34.375" transform="matrix(11.8081,0,0,11.8081,0,0)" stroke-linejoin="bevel" font-weight="400" stroke-opacity="1"/>
  <g stroke="#000000" font-family="MS Shell Dlg 2" fill="none" stroke-width="1" stroke-linecap="square" font-style="normal" font-size="34.375" transform="matrix(11.8081,0,0,11.8081,0,0)" stroke-linejoin="bevel" font-weight="400" stroke-opacity="1"/>
  <g stroke="#000000" font-family="MS Shell Dlg 2" fill="none" stroke-width="1" stroke-linecap="square" font-style="normal" font-size="34.375" transform="matrix(11.8081,0,0,11.8081,0,0)" stroke-linejoin="bevel" font-weight="400" stroke-opacity="1"/>
  <g stroke="#000000" font-family="MS Shell Dlg 2" fill="none" stroke-width="1" stroke-linecap="square" font-style="normal" font-size="34.375" transform="matrix(11.8081,0,0,11.8081,0,0)" stroke-linejoin="bevel" font-weight="400" stroke-opacity="1"/>
  <g stroke="#000000" font-family="MS Shell Dlg 2" fill="none" stroke-width="1" stroke-linecap="square" font-style="normal" font-size="34.375" transform="matrix(1,0,0,1,0,0)" stroke-linejoin="bevel" font-weight="400" stroke-opacity="1"/>
 </g>
 <metadata>
  <rdf:RDF xmlns:dc="http://purl.org/dc/elements/1.1/" xmlns:rdf="http://www.w3.org/1999/02/22-rdf-syntax-ns#" xmlns:rdfs="http://www.w3.org/2000/01/rdf-schema#">
   <rdf:Description dc:date="2024-09-25T09:46:49" dc:title="" dc:identifier="" dc:description="" dc:format="image/svg+xml">
    <dc:creator>
     <rdf:Bag>
      <rdf:li>Michele</rdf:li>
     </rdf:Bag>
    </dc:creator>
    <dc:publisher>
     <rdf:Bag>
      <rdf:li>QGIS 3.28.15-Firenze</rdf:li>
     </rdf:Bag>
    </dc:publisher>
    <dc:subject>
     <rdf:Bag/>
    </dc:subject>
   </rdf:Description>
   <cc:Work rdf:about="">
    <dc:format>image/svg+xml</dc:format>
    <dc:title></dc:title>
    <dc:date>2024-09-25T09:46:49</dc:date>
    <dc:identifier></dc:identifier>
    <dc:description></dc:description>
    <dc:creator>
     <cc:Agent>
      <dc:title>Michele</dc:title>
     </cc:Agent>
    </dc:creator>
    <dc:publisher>
     <cc:Agent>
      <dc:title>QGIS 3.28.15-Firenze</dc:title>
     </cc:Agent>
    </dc:publisher>
   </cc:Work>
  </rdf:RDF>
 </metadata>
</svg>
